<svg xmlns="http://www.w3.org/2000/svg" enable-background="new 0 0 25 25" viewBox="0 0 25 25"><path fill="#583689" d="M12.5,25c-0.16,0-0.32-0.039-0.466-0.115l-9.5-5c-0.284-0.149-0.479-0.426-0.524-0.743l-2-14C-0.058,4.668,0.22,4.213,0.671,4.056l11.5-4c0.213-0.074,0.444-0.074,0.657,0l11.5,4c0.452,0.157,0.729,0.612,0.661,1.086l-2,14c-0.045,0.317-0.24,0.594-0.524,0.743l-9.5,5C12.82,24.961,12.66,25,12.5,25z M3.917,18.353L12.5,22.87l8.583-4.517l1.811-12.679L12.5,2.059L2.106,5.674L3.917,18.353z"/><path fill="#DE002A" d="M18.765,18.508c-0.283,0-0.554-0.161-0.681-0.435L12.501,6.025L6.946,18.072c-0.173,0.375-0.621,0.541-0.995,0.367c-0.376-0.173-0.541-0.619-0.367-0.995l6.235-13.52c0.123-0.266,0.388-0.436,0.681-0.436h0c0.292,0,0.558,0.169,0.681,0.435l6.265,13.52c0.174,0.376,0.01,0.822-0.365,0.996C18.978,18.486,18.871,18.508,18.765,18.508z"/><path fill="#DE002A" d="M16.909,14.502H8.112c-0.414,0-0.75-0.336-0.75-0.75s0.336-0.75,0.75-0.75h8.796c0.414,0,0.75,0.336,0.75,0.75S17.323,14.502,16.909,14.502z"/></svg>