<svg xmlns="http://www.w3.org/2000/svg" enable-background="new 0 0 28 28" viewBox="0 0 28 28"><path fill="#FFAB66" d="M23.881,10.64C21.845,13.144,9.115,22.645,5.798,23.202s-5.977-2.828,1.13-8.129s13.117-10.051,15.039-8.63S25.959,8.086,23.881,10.64z"/><path d="M11.405 24.603c-.033 0-.065-.003-.098-.01-.131-.026-.246-.103-.319-.214l-1.189-1.796c-.151-.229-.09-.537.138-.69l2.729-1.84c.111-.075.249-.1.377-.076.131.026.246.103.319.214l1.188 1.798c.151.229.09.537-.138.69l-2.729 1.839C11.602 24.574 11.504 24.603 11.405 24.603zM10.907 22.444l.637.963 1.899-1.28-.636-.963L10.907 22.444zM18.813 26c-.033 0-.065-.003-.098-.01-.133-.026-.25-.106-.323-.22l-3.959-6.166c-.146-.227-.085-.527.136-.681l4.015-2.785c.112-.078.252-.105.383-.08.133.026.25.106.323.22l3.959 6.166c.146.227.085.527-.136.681l-4.015 2.785C19.014 25.969 18.914 26 18.813 26zM15.535 19.47l3.419 5.324 3.193-2.214-3.419-5.324L15.535 19.47zM15.485 7.935c-.033 0-.065-.003-.098-.01-.134-.027-.252-.108-.325-.224l-1.77-2.804c-.142-.225-.083-.522.135-.676l1.717-1.212c.111-.079.251-.108.386-.082.135.027.252.107.325.224l1.769 2.805c.142.225.083.521-.134.675l-1.717 1.212C15.688 7.903 15.587 7.935 15.485 7.935zM14.392 4.764l1.234 1.958.9-.635-1.235-1.958L14.392 4.764zM9.662 11.929c-.033 0-.065-.003-.098-.01-.133-.026-.25-.106-.323-.22l-.607-.946 0 0-3.338-5.2C5.15 5.327 5.21 5.026 5.431 4.873l4.013-2.784c.112-.078.251-.105.383-.08.133.026.25.106.323.22l3.947 6.145c.146.227.086.528-.136.682L9.947 11.84C9.863 11.898 9.763 11.929 9.662 11.929zM9.476 10.213l.327.51 3.193-2.213L9.589 3.206 6.398 5.419 9.476 10.213zM21.771 17.434c-.033 0-.065-.003-.098-.01-.133-.026-.25-.106-.323-.22l-1.083-1.685c-.146-.227-.086-.528.136-.682l.909-.628v-.001l.698-.482c.111-.078.249-.105.382-.079.133.026.249.106.322.22l1.083 1.684c.146.227.086.528-.136.682l-1.607 1.113C21.971 17.403 21.872 17.434 21.771 17.434zM21.37 15.386l.542.842.785-.543-.542-.843-.233.161c-.013.011-.026.021-.04.03L21.37 15.386zM8.795 24.918c-.033 0-.065-.003-.098-.01-.134-.026-.251-.107-.324-.222l-.439-.691c-.144-.226-.084-.524.135-.677l.658-.461c.111-.079.251-.107.385-.081.134.026.251.107.324.222l.439.691c.144.226.084.524-.135.678l-.658.461C8.997 24.887 8.897 24.918 8.795 24.918zM6.098 24.049c-.033 0-.066-.003-.099-.01-.132-.026-.247-.105-.32-.217l-3.598-5.521c-.149-.228-.087-.534.138-.687l19.227-13.06c.228-.154.535-.097.691.128l3.773 5.432c.076.11.105.245.081.376s-.101.248-.211.323L6.378 23.963C6.295 24.019 6.197 24.049 6.098 24.049zM3.187 18.167l3.052 4.683 18.562-12.58-3.202-4.61L3.187 18.167zM5.127 15.104c-.033 0-.065-.003-.098-.01-.132-.026-.249-.105-.322-.219l-1.882-2.909c-.147-.227-.086-.53.136-.683l2.829-1.948c.111-.077.25-.105.381-.078C6.305 9.284 6.42 9.362 6.494 9.476l1.882 2.909c.147.228.086.53-.137.684l-2.829 1.947C5.327 15.074 5.228 15.104 5.127 15.104zM3.929 11.831L5.267 13.9l.194-.133c0 0 0 0 0 0l1.811-1.246-1.338-2.069L3.929 11.831zM4.166 9.114c-.033 0-.065-.003-.098-.01C3.934 9.078 3.817 8.998 3.744 8.883l-.439-.69C3.161 7.967 3.22 7.668 3.439 7.515l.658-.461c.112-.079.25-.107.385-.081.134.027.251.107.324.223l.438.691C5.388 8.112 5.329 8.41 5.11 8.563l-.657.46C4.368 9.083 4.268 9.114 4.166 9.114z"/></svg>