<svg xmlns="http://www.w3.org/2000/svg" enable-background="new 0 0 32 32" viewBox="0 0 32 32"><path fill="#FFF9DD" d="M26,32H6c-3.314,0-6-2.686-6-6V6c0-3.314,2.686-6,6-6h20c3.314,0,6,2.686,6,6v20C32,29.314,29.314,32,26,32z"/><polygon fill="#FFD200" points="15.435 19.955 13.637 21.186 13.637 21.187 13.135 21.531 14.137 23.07 16.437 21.495 15.878 20.636"/><polygon fill="#FFE777" points="19.242 17.349 16.22 19.418 16.663 20.099 16.663 20.099 19.2 24 22.222 21.931 19.685 18.03"/><polygon fill="#FFD200" points="16.993 11.979 16.993 11.979 17.47 11.652 17.833 11.405 18.478 10.963 17.713 9.786 16.949 8.61 16.948 8.61 16.948 8.61 15.914 9.318 15.463 9.627 15.463 9.627 15.463 9.627 16.993 11.979"/><polygon fill="#FFE777" points="12.653 13.934 13.111 14.637 16.133 12.568 15.675 11.864 13.161 8 10.14 10.069 12.653 13.934"/><polygon fill="#FFD200" points="20.942 16.185 20.944 16.187 20.942 16.185 20.102 16.76 20.545 17.441 21.104 18.3 22.588 17.283 21.588 15.743"/><polygon fill="#FFE777" points="11.896 22.403 12.467 23.28 13.322 22.696 12.751 21.818"/><polygon fill="#FFD200" points="21.376 9.642 8 18.822 10.502 22.702 24 13.46"/><polygon fill="#FFD200" points="10.528 16.406 12.326 15.175 11.868 14.471 10.796 12.823 8.496 14.397 10.026 16.75"/><polygon fill="#FFE777" points="10.241 12.18 9.671 11.302 8.816 11.887 9.386 12.764"/></svg>