<svg xmlns="http://www.w3.org/2000/svg" data-name="Layer 1" viewBox="0 0 32 32"><defs><linearGradient id="a" x1="27.39" x2="27.39" y1="85.95" y2="110.99" gradientTransform="matrix(.99 .11 -.11 .84 .87 -67.11)" gradientUnits="userSpaceOnUse"><stop offset="0" stop-color="#fff" stop-opacity=".25"/><stop offset="1" stop-color="#ff9d23" stop-opacity=".7"/></linearGradient></defs><path fill="url(#a)" d="M12.79,9a12.89,12.89,0,0,1,9.74.31,6,6,0,0,1,2.66,2.09c1.14,1.83.34,4.13,1.26,6A10.77,10.77,0,0,0,29,20.25a5.11,5.11,0,0,1,1.9,3.12,3.57,3.57,0,0,1-1.46,2.84,10,10,0,0,1-3.2,1.63,28.36,28.36,0,0,1-18.29-.1,11,11,0,0,1-5.25-3.38,3.88,3.88,0,0,1,.27-5.24c1.07-.93,2.51-1.37,3.31-2.55a13.29,13.29,0,0,0,.89-2.45A10,10,0,0,1,12.79,9Z"/><path fill="#ff9d23" d="M11.74,1.56a.36.36,0,0,1-.26-.11.37.37,0,0,1,0-.52L12.3.11a.36.36,0,0,1,.52,0l.74.73a.37.37,0,1,1-.52.52L12.56.89,12,1.45A.38.38,0,0,1,11.74,1.56Z"/><path fill="#9495fa" d="M30 18.72a.39.39 0 0 1-.26-.1.37.37 0 0 1 0-.52l.83-.83a.37.37 0 0 1 .52 0l.73.74a.35.35 0 0 1 0 .51.36.36 0 0 1-.52 0l-.47-.47-.57.57A.35.35 0 0 1 30 18.72zM.49 16.45a.36.36 0 0 1-.26-.11.36.36 0 0 1 0-.52l1.1-1.1a.37.37 0 0 1 .52.52l-1.1 1.1A.38.38 0 0 1 .49 16.45z"/><path fill="#ff4b4d" d="M28.67,8.76a.36.36,0,0,1-.26-.11.37.37,0,0,1,0-.52l1.28-1.28a.37.37,0,1,1,.52.52L28.93,8.65A.38.38,0,0,1,28.67,8.76Z"/><path fill="#0000db" d="M11.33,32a.36.36,0,0,1-.26-.11.36.36,0,0,1,0-.52l1.28-1.28a.37.37,0,0,1,.52.52l-1.28,1.28A.4.4,0,0,1,11.33,32Z"/><path fill="#ff9d23" d="M23.48,32a.38.38,0,0,1-.26-.11.37.37,0,0,1,0-.52l1.29-1.28a.36.36,0,0,1,.51,0,.36.36,0,0,1,0,.52l-1.28,1.28A.38.38,0,0,1,23.48,32Z"/><path fill="#ff9d23" stroke="#0000db" stroke-linecap="round" stroke-linejoin="round" stroke-width=".66" d="M16.65,11.4a2.87,2.87,0,1,0,2.87,2.87A2.87,2.87,0,0,0,16.65,11.4Z"/><circle cx="16.65" cy="14.27" r="2" fill="#fff"/><path fill="#fed3be" stroke="#0000db" stroke-linecap="round" stroke-linejoin="round" stroke-width=".66" d="M11.25,14.27a2.07,2.07,0,1,1-2.07-2.06A2.07,2.07,0,0,1,11.25,14.27Z"/><circle cx="24.12" cy="14.27" r="2.06" fill="#f86c66" stroke="#0000db" stroke-linecap="round" stroke-linejoin="round" stroke-width=".66"/><path fill="#fed3be" stroke="#0000db" stroke-linecap="round" stroke-linejoin="round" stroke-width=".66" d="M16.65,8.87A2.07,2.07,0,1,1,18.72,6.8,2.07,2.07,0,0,1,16.65,8.87Z"/><path fill="#9495fa" stroke="#0000db" stroke-linecap="round" stroke-linejoin="round" stroke-width=".66" d="M16.65,23.8a2.07,2.07,0,1,1,2.07-2.06A2.06,2.06,0,0,1,16.65,23.8Z"/><path fill="#f86c66" stroke="#0000db" stroke-linecap="round" stroke-linejoin="round" stroke-width=".66" d="M9.35,4.94A2.07,2.07,0,1,1,7.28,2.87,2.07,2.07,0,0,1,9.35,4.94Z"/><path fill="#ff9d23" stroke="#0000db" stroke-linecap="round" stroke-linejoin="round" stroke-width=".66" d="M9.35,23.6a2.07,2.07,0,1,1-2.07-2.06A2.07,2.07,0,0,1,9.35,23.6Z"/><path fill="#9495fa" stroke="#0000db" stroke-linecap="round" stroke-linejoin="round" stroke-width=".66" d="M28.09,4.94A2.07,2.07,0,1,1,26,2.87,2.07,2.07,0,0,1,28.09,4.94Z"/><circle cx="26.02" cy="23.6" r="2.06" fill="#fed3be" stroke="#0000db" stroke-linecap="round" stroke-linejoin="round" stroke-width=".66"/><path fill="none" stroke="#0000db" stroke-linecap="round" stroke-linejoin="round" stroke-width=".66" d="M8.77,16.29,7.7,21.58m6.93.56L9.31,23.2M24,23.2l-5.32-1.06m6.93-.56-1.08-5.29M25.61,7l-1.08,5.29M24,5.34,18.68,6.4M8.77,12.25,7.7,7m6.93-.56L9.31,5.34"/><line x1="22.06" x2="19.52" y1="14.27" y2="14.27" fill="none" stroke="#0000db" stroke-linecap="round" stroke-linejoin="round" stroke-width=".66"/><line x1="13.79" x2="11.25" y1="14.27" y2="14.27" fill="none" stroke="#0000db" stroke-linecap="round" stroke-linejoin="round" stroke-width=".66"/><line x1="16.64" x2="16.64" y1="13.26" y2="12.93" fill="none" stroke="#0000db" stroke-linecap="round" stroke-linejoin="round" stroke-width=".5"/><line x1="16.64" x2="16.64" y1="15.61" y2="15.27" fill="none" stroke="#0000db" stroke-linecap="round" stroke-linejoin="round" stroke-width=".5"/><path fill="none" stroke="#0000db" stroke-linecap="round" stroke-linejoin="round" stroke-width=".5" d="M16.12,13.3a2.84,2.84,0,0,1,.47,0,.81.81,0,0,1,.54.15.41.41,0,0,1,.16.35.46.46,0,0,1-.33.43h0a.5.5,0,0,1,.41.49.55.55,0,0,1-.17.4,1,1,0,0,1-.68.19,3,3,0,0,1-.4,0Z"/><line x1="16.96" x2="16.12" y1="14.19" y2="14.19" fill="none" stroke="#0000db" stroke-linecap="round" stroke-linejoin="round" stroke-width=".5"/><path fill="#fff" d="M8.36 4.94A1.08 1.08 0 1 1 7.28 3.87 1.07 1.07 0 0 1 8.36 4.94zM10.26 14.27A1.08 1.08 0 1 1 9.18 13.2 1.07 1.07 0 0 1 10.26 14.27zM25.19 14.27a1.07 1.07 0 1 1-1.07-1.07A1.07 1.07 0 0 1 25.19 14.27zM16.65 7.87A1.07 1.07 0 1 1 17.73 6.8 1.07 1.07 0 0 1 16.65 7.87zM16.65 22.81a1.07 1.07 0 1 1 1.08-1.07A1.07 1.07 0 0 1 16.65 22.81zM8.36 23.6a1.08 1.08 0 1 1-1.08-1.07A1.08 1.08 0 0 1 8.36 23.6z"/><circle cx="26.02" cy="4.94" r="1.07" fill="#fff"/><circle cx="26.02" cy="23.6" r="1.07" fill="#fff"/></svg>