<svg xmlns="http://www.w3.org/2000/svg" viewBox="0 0 32 32"><g data-name="Layer 9"><path fill="#5233ff" d="M16 22a6 6 0 1 1-6-6h.14A6 6 0 0 1 16 22zM28 17a6 6 0 1 1-10.6-3.86A6.1 6.1 0 0 1 22 11 6 6 0 0 1 28 17z"/><path fill="#ff64c8" d="M19,11.84a5.87,5.87,0,0,0-1.55,1.3,14.79,14.79,0,0,1-2.24-6,14,14,0,0,0-5,8.86H10a6,6,0,0,0-1.91.31,15.76,15.76,0,0,1,1.14-4.45l-.15,0a5,5,0,0,1-4.59-7A1,1,0,0,1,5,4.4a5,5,0,0,1,6.76,3.28,16.4,16.4,0,0,1,3.27-2.94A1,1,0,0,1,17,5,12.8,12.8,0,0,0,19,11.84Z"/></g></svg>