<svg xmlns="http://www.w3.org/2000/svg" data-name="Layer 1" viewBox="0 0 168 168"><path fill="#2d4356" d="M64.53815 79.55316a28.72951 28.72951 0 0 0-5.46832 2.17432 2.00005 2.00005 0 0 0 1.85309 3.545 24.48714 24.48714 0 0 1 4.53223-1.82568 2.00007 2.00007 0 0 0-.917-3.89362zM20.91852 98.18359a2.001 2.001 0 0 0 2.7627-.60553c.21381-.333 20.80219-31.58789 66.54486-38.1972l.04346-.26758a11.00279 11.00279 0 0 1 1.29785-3.50537 9.94451 9.94451 0 0 1 4.13232-3.9209 10.08983 10.08983 0 0 1 1.16565-.48834c.1875-.06586 1.05212-.47021 1.21423-.38031l-.65479-.35986-1.92773-1.06012L93.56934 50.4585l-1.52051.83636.33643-2.05219.32813-2-1.41943-1.44727-1.58936-1.62115 2.02979-.30859 2.10742-.32025.90918-1.92773.74609-1.58112.74561 1.58063.90918 1.92822 2.10742.32025 2.03027.30859L99.7002 45.79541l-1.41895 1.44727.32813 2.00049.23486 1.43164a10.14806 10.14806 0 0 1 1.20654-.11859l.18127-1.11975a10.19374 10.19374 0 0 1 7.20447-8.12939 2.63671 2.63671 0 0 0-1.13281-.4165l-6.44336-.97949L96.979 33.80127C96.56982 32.93359 96.0332 32.5 95.49658 32.5c-.53613 0-1.07227.43359-1.481 1.30127l-2.88232 6.1098-6.44336.97949c-1.83051.27789-2.24164 1.6001-.915 2.94922L88.438 48.5957s-1.14453 7.0415-1.15137 7.19189c-45.9765 7.603-66.75629 39.2915-66.97546 39.63531A1.99994 1.99994 0 0 0 20.91852 98.18359zM104.18066 50.07568l-.84473 5.21973a6.23738 6.23738 0 0 0-9.11768 4.4566L91.752 74.99707l-.08545.25189a40.51365 40.51365 0 0 0-1.22021 12.35553l3.62646 17.90332a5.85 5.85 0 0 0 .48877 1.63965 24.73992 24.73992 0 0 1-.44238 4.84271 7.46288 7.46288 0 0 0 1.43018 5.48828 5.4302 5.4302 0 0 0 4.127 2.10455l18.57666 1.90137c.1543.01068.30762.01563.45947.01563a7.49825 7.49825 0 0 0 6.58215-4.03912c.20007-.49017 1.203-2.91211 2.68005-5.95306l.00488-.00391.28906-.331c.68311-.98444 1.396-1.95813 2.10986-2.93365 2.53564-3.46484 5.15784-7.04785 6.60889-11.26367a22.01528 22.01528 0 0 1 5.9707-9.80267c2.07617-1.98541 7.5918-7.25934 3.67578-12.27063a7.38971 7.38971 0 0 0-5.44873-2.74951 6.13087 6.13087 0 0 0-4.82666 1.85889l-6.5249 6.5567 3.69043-22.81549a6.10988 6.10988 0 0 0-1.09131-4.59027 6.228 6.228 0 0 0-6.80762-2.31842l.51416-3.17871a6.108 6.108 0 0 0-1.09229-4.58881 6.24748 6.24748 0 0 0-11.21436 2.62842l-.03467.21289a6.243 6.243 0 0 0-9.61719 4.15771zm6.50977-1.17682a2.22365 2.22365 0 0 1 1.46484.89362 2.14 2.14 0 0 1 .38428 1.6059L108.061 79.07709a2.00194 2.00194 0 0 0 1.67676 2.29547 2.04059 2.04059 0 0 0 .33545.08936 1.99736 1.99736 0 0 0 2.29346-1.65485l5.41406-33.46326a2.24856 2.24856 0 0 1 4.02637-.92145 2.13884 2.13884 0 0 1 .38379 1.60449l-5.52246 34.1333a1.97007 1.97007 0 0 0 1.90674 2.3139 1.8769 1.8769 0 0 0 .18262.04883 1.99883 1.99883 0 0 0 2.29346-1.65472l4.11523-25.4375a2.24835 2.24835 0 0 1 4.02588-.92236 2.13741 2.13741 0 0 1 .3833 1.60547L125.3252 83.39008c-.3584 2.21289.67236 3.09619 1.31885 3.42633.647.32806 1.97119.64746 3.56152-.95172l9.03076-9.07611a2.25744 2.25744 0 0 1 1.772-.63971 3.43626 3.43626 0 0 1 2.47412 1.2168c.876 1.12109 1.084 2.73492-3.28906 6.9165a25.89279 25.89279 0 0 0-6.98828 11.39075c-1.80664 5.24695-5.79443 9.28217-8.56055 13.998a49.59621 49.59621 0 0 0-3.05176 6.27441A3.675 3.675 0 0 1 118.7124 117.5c-.0459 0-.0918-.001-.12195 0l-18.56555-1.90234-.13086-.00977a1.47028 1.47028 0 0 1-1.17236-.54694c-1.40723-1.69629-.19727-4.13959-.27881-6.08588-.064-1.52051-.44238-3.02252-.51367-4.53522L94.41895 87.123a36.85831 36.85831 0 0 1 1.08447-10.73578L98.1665 60.39056a2.24816 2.24816 0 0 1 4.02637-.9223 2.14062 2.14062 0 0 1 .38379 1.60541l-2.7085 16.7417a1.99979 1.99979 0 1 0 3.94824.63873l4.3125-27.73975A2.22948 2.22948 0 0 1 110.69043 48.89886zM159 14a3 3 0 1 0-3 3A3.00344 3.00344 0 0 0 159 14zm-4.5 0a1.5 1.5 0 1 1 1.5 1.5A1.50148 1.50148 0 0 1 154.5 14zM84 12a3 3 0 1 0-3-3A3.00344 3.00344 0 0 0 84 12zm0-4.5A1.5 1.5 0 1 1 82.5 9 1.50148 1.50148 0 0 1 84 7.5zM160 38a2 2 0 1 0 2 2A2.00229 2.00229 0 0 0 160 38zm0 3a1 1 0 1 1 1-1A1.001 1.001 0 0 1 160 41zM66 38a2 2 0 1 0-2-2A2.00229 2.00229 0 0 0 66 38zm0-3a1 1 0 1 1-1 1A1.001 1.001 0 0 1 66 35zM12 51a2 2 0 1 0 2 2A2.00229 2.00229 0 0 0 12 51zm0 3a1 1 0 1 1 1-1A1.001 1.001 0 0 1 12 54z"/><circle cx="2" cy="134" r="2" fill="#2d4356"/><path fill="#2d4356" d="M11 132H8a2 2 0 0 0 0 4h3a2 2 0 0 0 0-4zM160 132h-3a2 2 0 0 0 0 4h3a2 2 0 0 0 0-4z"/><circle cx="166" cy="134" r="2" fill="#2d4356"/><path fill="#2d4356" d="M150.72131,132H25.88672c7.753-8.76324,33.979-35.35376,63.208-30.94922l-.83594-4.1524C74.853,95.27826,60.56152,99.292,46.13721,108.87006A120.25385,120.25385,0,0,0,20.63348,132h-3.3548a2.017,2.017,0,1,0,0,4H150.72131a2.017,2.017,0,1,0,0-4Z"/><path fill="#0bceb2" d="M54.7525 86.542a2.00053 2.00053 0 0 0-2.71338-.79791C35.37451 94.834 21.9917 111.54877 21.43024 112.25586a2.00036 2.00036 0 0 0 3.13281 2.48822c.13226-.167 13.43207-16.7832 29.39105-25.48822A2.00072 2.00072 0 0 0 54.7525 86.542zM81.6084 75.22607l-.52826 3.22211c-.15039.91608.36377 1.30768 1.1499.876l2.767-1.5224 1.86719 1.02734a46.18549 46.18549 0 0 1 .9386-4.61523l.06042-.22607.44434-2.74561-1.2168-.18512L85.708 68.12451c-.39258-.833-1.03015-.833-1.42175 0l-1.38434 2.93256-3.09277.47021c-.87842.13379-1.07574.76813-.43951 1.41559z"/><polygon fill="#0bceb2" points="27.707 19.528 26.22 21.436 27.112 22 28.13 19.794 28.16 19.794 29.099 21.984 30.085 21.421 28.583 19.543 28.583 19.512 30.945 19.794 30.945 18.73 28.583 19.042 28.583 19.011 30.07 17.056 29.131 16.524 28.177 18.714 28.145 18.714 27.175 16.539 26.22 17.087 27.691 18.996 27.691 19.027 25.391 18.73 25.391 19.794 27.707 19.497 27.707 19.528"/><polygon fill="#0bceb2" points="48.777 56.067 47.92 57.166 48.434 57.49 49.02 56.22 49.038 56.22 49.578 57.481 50.146 57.157 49.281 56.075 49.281 56.057 50.641 56.22 50.641 55.607 49.281 55.787 49.281 55.769 50.137 54.643 49.597 54.337 49.047 55.598 49.029 55.598 48.471 54.345 47.92 54.661 48.768 55.76 48.768 55.778 47.443 55.607 47.443 56.22 48.777 56.049 48.777 56.067"/><polygon fill="#0bceb2" points="135 33.713 135 32.67 132.683 32.977 132.683 32.946 134.142 31.028 133.22 30.506 132.285 32.654 132.253 32.654 131.302 30.521 130.365 31.059 131.808 32.931 131.808 32.962 129.552 32.67 129.552 33.713 131.823 33.422 131.823 33.453 130.365 35.325 131.24 35.878 132.238 33.713 132.268 33.713 133.189 35.862 134.156 35.31 132.683 33.468 132.683 33.437 135 33.713"/><polygon fill="#0bceb2" points="110.702 11.023 109.444 12.638 110.198 13.115 111.06 11.248 111.085 11.248 111.88 13.101 112.714 12.625 111.443 11.036 111.443 11.009 113.442 11.248 113.442 10.348 111.443 10.612 111.443 10.586 112.701 8.931 111.907 8.481 111.099 10.334 111.073 10.334 110.252 8.494 109.444 8.958 110.689 10.573 110.689 10.599 108.742 10.348 108.742 11.248 110.702 10.996 110.702 11.023"/><path fill="#0bceb2" d="M118.15381 141h-8.30762a2.00641 2.00641 0 0 0 0 4h8.30762a2.00641 2.00641 0 0 0 0-4zM58.15387 141H49.84613a2.00641 2.00641 0 0 0 0 4h8.30774a2.00641 2.00641 0 0 0 0-4zM104 141H64a2 2 0 0 0 0 4H79.94v2H72a2 2 0 0 0 0 4H97a2 2 0 0 0 0-4H88.06006v-2H104a2 2 0 0 0 0-4z"/></svg>