<svg xmlns="http://www.w3.org/2000/svg" enable-background="new 0 0 28 28" viewBox="0 0 28 28"><path fill="#FFA0C6" d="M11.762,19.624c-6.414-0.293-9.703-6.227-9.533-9.258c0.17-3.032,8.983-3.089,15.394-2.73s9.124,0.229,9.166,6.897C26.808,17.571,20.457,20.021,11.762,19.624z"/><path d="M11.5 18.5c-.164 0-.322-.081-.416-.223L6 10.651V18c0 .276-.224.5-.5.5S5 18.276 5 18V9c0-.22.144-.415.355-.479C5.564 8.456 5.794 8.54 5.916 8.723L11 16.349V9c0-.276.224-.5.5-.5S12 8.724 12 9v9c0 .22-.144.415-.355.479C11.597 18.493 11.548 18.5 11.5 18.5zM18 18.5h-4c-.276 0-.5-.224-.5-.5V9c0-.276.224-.5.5-.5h4c.276 0 .5.224.5.5S18.276 9.5 18 9.5h-3.5v8H18c.276 0 .5.224.5.5S18.276 18.5 18 18.5z"/><path d="M18 14.5h-4c-.276 0-.5-.224-.5-.5s.224-.5.5-.5h4c.276 0 .5.224.5.5S18.276 14.5 18 14.5zM25.5 9.5h-5C20.224 9.5 20 9.276 20 9s.224-.5.5-.5h5C25.776 8.5 26 8.724 26 9S25.776 9.5 25.5 9.5z"/><path d="M23 18.5c-.276 0-.5-.224-.5-.5V9c0-.276.224-.5.5-.5s.5.224.5.5v9C23.5 18.276 23.276 18.5 23 18.5zM2.75 18.5C2.336 18.5 2 18.164 2 17.75S2.336 17 2.75 17s.75.336.75.75S3.164 18.5 2.75 18.5zM2.75 17.5c-.138 0-.25.112-.25.25 0 .275.5.275.5 0C3 17.612 2.888 17.5 2.75 17.5z"/></svg>