<svg xmlns="http://www.w3.org/2000/svg" enable-background="new 0 0 28 28" viewBox="0 0 28 28"><path fill="#FFA0C6" d="M19.305,9.03l2.121,12.41c0,0-5.4,4.727-8.996,4.727S5.5,20.014,5.5,20.014s6.542-8.633,11.059-12.055C17.594,7.175,19.086,7.751,19.305,9.03z"/><path d="M5.501,21.636c-0.028,0-0.058-0.002-0.087-0.007c-0.271-0.047-0.454-0.306-0.406-0.578L8.173,2.833c0.072-0.421,0.39-0.742,0.808-0.817c0.424-0.078,0.826,0.114,1.04,0.482l2.842,4.9c0.139,0.239,0.057,0.545-0.182,0.684C12.442,8.22,12.136,8.14,11.997,7.9L9.156,3.001l-3.164,18.22C5.95,21.464,5.739,21.636,5.501,21.636z"/><path d="M14,26.002c-0.465,0-0.93-0.117-1.353-0.351l-7.389-4.073c-0.138-0.076-0.231-0.212-0.254-0.367c-0.022-0.156,0.03-0.312,0.141-0.424L18.965,6.919c0.266-0.266,0.654-0.358,1.008-0.247c0.357,0.114,0.62,0.416,0.685,0.788v0l2.336,13.595c0.036,0.21-0.065,0.419-0.252,0.522l-7.389,4.074C14.93,25.885,14.465,26.002,14,26.002z M6.322,21.022l6.808,3.753c0.545,0.301,1.195,0.3,1.74,0l7.077-3.902L19.671,7.629c0-0.003-0.001-0.005-0.001-0.005L6.322,21.022z"/><path d="M5.5,21.636c-0.077,0-0.155-0.018-0.229-0.055c-0.246-0.126-0.343-0.428-0.216-0.673L13.133,5.19c0.168-0.328,0.501-0.537,0.868-0.544c0.406,0.002,0.708,0.188,0.89,0.509l2.435,4.31c0.136,0.241,0.051,0.545-0.189,0.682c-0.241,0.133-0.546,0.051-0.682-0.189l-2.435-4.31L5.944,21.364C5.856,21.537,5.681,21.636,5.5,21.636z"/></svg>