<svg xmlns="http://www.w3.org/2000/svg" viewBox="0 0 32 32"><path fill="#eee" d="M12 2a1.13 1.13 0 0 0-1.13 1.13v10.4L2.16 28.29a1.13 1.13 0 0 0 1 1.71H16V2zM29.84 28.29L21.09 13.53V3.13A1.13 1.13 0 0 0 20 2H16V30H28.87a1.13 1.13 0 0 0 1-1.71z"/><path fill="#69f0ae" d="M11.06,14.83a1.13,1.13,0,0,0-1.23.52L2.16,28.29a1.13,1.13,0,0,0,1,1.71H16V17.43A11.51,11.51,0,0,0,11.06,14.83Z"/><path fill="#e0e0e0" d="M29.84,28.29,21.09,13.53V3.13A1.13,1.13,0,0,0,20,2H16V30H28.87a1.13,1.13,0,0,0,1-1.71Z"/><path fill="#69f0ae" d="M29.84,28.29l-4.17-7a1.13,1.13,0,0,0-1.19-.53,8.18,8.18,0,0,1-7.68-2.56c-.26-.26-.53-.51-.8-.74V30H28.87a1.13,1.13,0,0,0,1-1.71Z"/><path fill="#00e676" d="M29.84,28.29l-4.17-7a1.13,1.13,0,0,0-1.19-.53,8.18,8.18,0,0,1-7.68-2.56c-.26-.26-.53-.51-.8-.74V30H28.87a1.13,1.13,0,0,0,1-1.71Z"/><path fill="#4a148c" d="M30,28.42,21.14,13.5V3A1.14,1.14,0,0,0,20,1.86H12A1.14,1.14,0,0,0,10.86,3V13.5L2,28.42a1.14,1.14,0,0,0,1,1.73H29a1.14,1.14,0,0,0,1-1.73ZM13.14,14V4.14h5.71V14a1.14,1.14,0,0,0,.47.93l3.56,6a8.47,8.47,0,0,1-6.08-2.74,12.69,12.69,0,0,0-4.34-2.92l.21-.35A1.14,1.14,0,0,0,13.14,14ZM5,27.86l6.28-10.59a10.24,10.24,0,0,1,3.91,2.54,10.46,10.46,0,0,0,9,3.34L27,27.86Z"/></svg>