<svg xmlns="http://www.w3.org/2000/svg" data-name="Layer 1" viewBox="0 0 168 168"><path fill="#0bceb2" d="M84,51a37,37,0,1,0,37,37A37.04161,37.04161,0,0,0,84,51Zm0,70a33,33,0,1,1,33-33A33.03734,33.03734,0,0,1,84,121Z"/><circle cx="2" cy="150" r="2" fill="#2d4356"/><path fill="#2d4356" d="M11 148H8a2 2 0 0 0 0 4h3a2 2 0 0 0 0-4zM160 148h-3a2 2 0 0 0 0 4h3a2 2 0 0 0 0-4z"/><circle cx="166" cy="150" r="2" fill="#2d4356"/><path fill="#0bceb2" d="M118.15387 156h-8.30774a2.00641 2.00641 0 0 0 0 4h8.30774a2.00641 2.00641 0 0 0 0-4zM58.15387 156H49.84613a2.00641 2.00641 0 0 0 0 4h8.30774a2.00641 2.00641 0 0 0 0-4zM104 156H64a2 2 0 0 0 0 4H79.94v2H72a2 2 0 0 0 0 4H97a2 2 0 0 0 0-4H88.06v-2H104a2 2 0 0 0 0-4z"/><path fill="#2d4356" d="M150.72131 148H106.38818l5.7993-2.40234a4.0009 4.0009 0 0 0 2.16407-5.22656l-1.75-4.22656a56.12462 56.12462 0 0 0 4.92578-3.30273l3.24219 3.24121a4.09413 4.09413 0 0 0 5.65625 0l5.65625-5.65625a3.99854 3.99854 0 0 0 .001-5.65723l-3.24121-3.24219a56.12277 56.12277 0 0 0 3.30273-4.92578l4.22656 1.75a4.00091 4.00091 0 0 0 5.22656-2.16406l3.06152-7.39062a4.00456 4.00456 0 0 0-2.165-5.22656l-4.22852-1.752A56.3793 56.3793 0 0 0 139.42188 96H144a4.004 4.004 0 0 0 4-4V84a4.004 4.004 0 0 0-4-4h-4.57812a56.3793 56.3793 0 0 0-1.15625-5.81836l4.22852-1.752a4.00456 4.00456 0 0 0 2.165-5.22656l-3.06152-7.39062a4.00091 4.00091 0 0 0-5.22656-2.16406l-4.22656 1.75a56.12277 56.12277 0 0 0-3.30273-4.92578l3.24121-3.24219a3.99854 3.99854 0 0 0 0-5.65625L126.42676 39.918a4.09344 4.09344 0 0 0-5.65723-.001l-3.24219 3.24121a56.1246 56.1246 0 0 0-4.92578-3.30273l1.75-4.22656a4.0009 4.0009 0 0 0-2.16407-5.22656l-7.39061-3.06152a4.00143 4.00143 0 0 0-5.22656 2.165l-1.752 4.22852A56.37931 56.37931 0 0 0 92 32.57813V28a4.004 4.004 0 0 0-4-4H80a4.00427 4.00427 0 0 0-4 4v4.57813a55.89126 55.89126 0 0 0-5.81836 1.15625l-1.75146-4.22754a3.99841 3.99841 0 0 0-5.22607-2.166l-7.39161 3.06152a4.0053 4.0053 0 0 0-2.16454 5.22656l1.75049 4.22656a56.13016 56.13016 0 0 0-4.92627 3.30273L47.23047 39.917a4.00267 4.00267 0 0 0-5.65674 0l-5.65625 5.65625a3.99913 3.99913 0 0 0-.00049 5.65723l3.2417 3.24219a56.20006 56.20006 0 0 0-3.30322 4.92578l-4.22656-1.75a4.00091 4.00091 0 0 0-5.22656 2.16406l-3.062 7.3916a4.005 4.005 0 0 0 2.16553 5.22559l4.229 1.752A55.81553 55.81553 0 0 0 28.57861 80H24a4.00427 4.00427 0 0 0-4 4v8a4.00427 4.00427 0 0 0 4 4h4.57861a55.81553 55.81553 0 0 0 1.15625 5.81836l-4.22949 1.752a4.0053 4.0053 0 0 0-2.16455 5.22656l3.06152 7.39063a4.00059 4.00059 0 0 0 5.22607 2.16406l4.22705-1.75a56.20006 56.20006 0 0 0 3.30322 4.92578l-3.2417 3.24219a3.99854 3.99854 0 0 0 0 5.65625l5.65674 5.65723a4.00178 4.00178 0 0 0 5.65674 0l3.2417-3.24121a56.13017 56.13017 0 0 0 4.92627 3.30273l-1.751 4.22754a4.005 4.005 0 0 0 2.16553 5.22559L61.6123 148H17.27869a2.017 2.017 0 1 0 0 4H150.72131a2.017 2.017 0 1 0 0-4zm-83.40857 0a3.96375 3.96375 0 0 0 1.11694-1.50586l1.752-4.22852A55.89125 55.89125 0 0 0 76 143.42188V148zM80 148v-6.33984a2.00074 2.00074 0 0 0-1.78027-1.98828 51.82931 51.82931 0 0 1-8.6582-1.71875 2.00083 2.00083 0 0 0-2.40186 1.15625l-2.4248 5.85449-7.3916-3.06152 2.42334-5.85059a2.001 2.001 0 0 0-.88037-2.5166 52.1461 52.1461 0 0 1-7.333-4.915 1.99762 1.99762 0 0 0-2.66357.14746l-4.48779 4.4873-5.65674-5.65723 4.4873-4.4873a1.99912 1.99912 0 0 0 .14746-2.66309 52.15763 52.15763 0 0 1-4.91553-7.334 1.99933 1.99933 0 0 0-2.51562-.87988l-5.85107 2.42285-3.06152-7.39062 5.85449-2.4248a1.99944 1.99944 0 0 0 1.15625-2.40234 51.851 51.851 0 0 1-1.71924-8.6582A1.99951 1.99951 0 0 0 30.33984 92H24V84h6.33984a1.99951 1.99951 0 0 0 1.98779-1.78027 51.851 51.851 0 0 1 1.71924-8.6582 1.99944 1.99944 0 0 0-1.15625-2.40234l-5.85449-2.4248 3.062-7.39062 5.85059 2.42285a1.99661 1.99661 0 0 0 2.51563-.87988 52.15763 52.15763 0 0 1 4.91553-7.334 1.99912 1.99912 0 0 0-.14746-2.66309l-4.4873-4.4873 5.65723-5.65723 4.4873 4.4873a1.99966 1.99966 0 0 0 2.66357.14746 52.14609 52.14609 0 0 1 7.333-4.915 2.001 2.001 0 0 0 .88037-2.5166l-2.42334-5.85059 7.39111-3.06055 2.42529 5.85352a2.00418 2.00418 0 0 0 2.40186 1.15625 51.82931 51.82931 0 0 1 8.6582-1.71875A2.00074 2.00074 0 0 0 80 34.33984V28h8v6.33984a2.00035 2.00035 0 0 0 1.78027 1.98828 51.79028 51.79028 0 0 1 8.6582 1.71875 2.00526 2.00526 0 0 0 2.40234-1.15625l2.4248-5.85449 7.39063 3.06152-2.42285 5.85059a2.00031 2.00031 0 0 0 .88086 2.5166 52.1744 52.1744 0 0 1 7.333 4.915 1.99906 1.99906 0 0 0 2.66309-.14746l4.4873-4.4873 5.65723 5.65723-4.4873 4.4873a1.99912 1.99912 0 0 0-.14746 2.66309 52.1744 52.1744 0 0 1 4.915 7.333 1.99894 1.99894 0 0 0 2.5166.88086l5.85059-2.42285 3.06055 7.39063-5.85352 2.4248a2.0004 2.0004 0 0 0-1.15625 2.40234 51.79028 51.79028 0 0 1 1.71875 8.6582A2.00035 2.00035 0 0 0 137.66016 84H144v8h-6.33984a2.00035 2.00035 0 0 0-1.98828 1.78027 51.79028 51.79028 0 0 1-1.71875 8.6582 2.0004 2.0004 0 0 0 1.15625 2.40234l5.85449 2.4248-3.06152 7.39063-5.85059-2.42285a1.99758 1.99758 0 0 0-2.5166.88086 52.17441 52.17441 0 0 1-4.915 7.333 1.99912 1.99912 0 0 0 .14746 2.66309l4.4873 4.4873-5.65723 5.65723-4.4873-4.4873a1.99592 1.99592 0 0 0-2.66309-.14746 52.17441 52.17441 0 0 1-7.333 4.915 2.00031 2.00031 0 0 0-.88086 2.5166l2.42285 5.85059-7.39062 3.06055-2.4248-5.85352a2.0004 2.0004 0 0 0-2.40234-1.15625 51.79028 51.79028 0 0 1-8.6582 1.71875A2.00035 2.00035 0 0 0 88 141.66016V148zm12-4.57812a56.3793 56.3793 0 0 0 5.81836-1.15625l1.752 4.22852A3.95629 3.95629 0 0 0 100.69012 148H92zM68.30471 8a3 3 0 1 0-3-3A3.00344 3.00344 0 0 0 68.30471 8zm0-4.5a1.5 1.5 0 1 1-1.5 1.5A1.50148 1.50148 0 0 1 68.30471 3.5zM158.30471 69a2 2 0 1 0 2 2A2.00229 2.00229 0 0 0 158.30471 69zm0 3a1 1 0 1 1 1-1A1.001 1.001 0 0 1 158.30471 72zM146 4a2 2 0 1 0 2 2A2.00229 2.00229 0 0 0 146 4zm0 3a1 1 0 1 1 1-1A1.001 1.001 0 0 1 146 7zM146 45.66667a2 2 0 1 0 2 2A2.00229 2.00229 0 0 0 146 45.66667zm0 3a1 1 0 1 1 1-1A1.001 1.001 0 0 1 146 48.66667zM27 35a2 2 0 1 0-2 2A2.00229 2.00229 0 0 0 27 35zm-3 0a1 1 0 1 1 1 1A1.001 1.001 0 0 1 24 35z"/><polygon fill="#0bceb2" points="10.888 69.011 12.375 67.056 11.436 66.524 10.481 68.714 10.45 68.714 9.48 66.539 8.525 67.087 9.996 68.996 9.996 69.027 7.695 68.73 7.695 69.794 10.011 69.497 10.011 69.528 8.525 71.436 9.416 72 10.434 69.794 10.465 69.794 11.404 71.984 12.39 71.421 10.888 69.543 10.888 69.512 13.25 69.794 13.25 68.73 10.888 69.042 10.888 69.011"/><polygon fill="#0bceb2" points="6.667 13.333 5.81 14.432 6.324 14.757 6.91 13.486 6.928 13.486 7.469 14.748 8.036 14.424 7.171 13.342 7.171 13.324 8.532 13.486 8.532 12.874 7.171 13.054 7.171 13.036 8.028 11.91 7.487 11.603 6.937 12.865 6.919 12.865 6.361 11.612 5.81 11.928 6.658 13.027 6.658 13.045 5.333 12.874 5.333 13.486 6.667 13.315 6.667 13.333"/><polygon fill="#0bceb2" points="164.983 27.912 164.983 26.869 162.667 27.176 162.667 27.145 164.125 25.227 163.204 24.705 162.268 26.853 162.237 26.853 161.286 24.72 160.349 25.257 161.792 27.13 161.792 27.161 159.535 26.869 159.535 27.912 161.807 27.621 161.807 27.652 160.349 29.524 161.223 30.077 162.222 27.912 162.252 27.912 163.173 30.061 164.14 29.509 162.667 27.667 162.667 27.636 164.983 27.912"/><polygon fill="#0bceb2" points="116.748 19.586 118.006 17.931 117.211 17.481 116.404 19.334 116.377 19.334 115.557 17.494 114.748 17.958 115.993 19.573 115.993 19.599 114.047 19.348 114.047 20.248 116.006 19.996 116.006 20.023 114.748 21.638 115.503 22.115 116.364 20.248 116.39 20.248 117.185 22.101 118.019 21.625 116.748 20.036 116.748 20.009 118.746 20.248 118.746 19.348 116.748 19.612 116.748 19.586"/></svg>