<svg xmlns="http://www.w3.org/2000/svg" enable-background="new 0 0 25 25" viewBox="0 0 25 25"><g fill="#583689"><path d="M4.711 13.689c-2.327 0-4.22-1.894-4.22-4.223s1.893-4.223 4.22-4.223 4.22 1.895 4.22 4.223-1.893 4.223-4.22 4.223zm0-6.446c-1.224 0-2.22.997-2.22 2.223s.996 2.223 2.22 2.223 2.22-.997 2.22-2.223-.996-2.223-2.22-2.223zM5.247 24.432c-2.767 0-4.935-1.54-4.935-3.506s2.168-3.507 4.935-3.507c2.768 0 4.936 1.541 4.936 3.507s-2.168 3.506-4.936 3.506zm0-5.013c-1.68 0-2.935.795-2.935 1.507 0 .711 1.255 1.506 2.935 1.506s2.936-.795 2.936-1.506c0-.712-1.256-1.507-2.936-1.507z"/><path d="m5.217 19.353c-1.73-.734-2.728-1.775-2.964-3.094-.392-2.189 1.551-4.088 1.773-4.298l1.369 1.457-.685-.729.688.727c-.36.343-1.351 1.539-1.176 2.495.111.61.708 1.149 1.775 1.601z"/><path d="m7.092 5.896h2.295v2h-2.295z" transform="rotate(-34.699 8.239 6.896)"/><path d="m12.296 6.959h2v9.311h-2z"/></g><path fill="#de002a" d="m13.296 4.781c-.945 0-1.715-.77-1.715-1.716s.77-1.716 1.715-1.716c.946 0 1.716.77 1.716 1.716s-.77 1.716-1.716 1.716zm0-2c-.156 0-.284.127-.284.284s.128.284.284.284c.157 0 .285-.127.285-.284 0-.156-.128-.284-.285-.284z"/><path fill="#583689" d="m23.312 17.27h-1.333c-2.184 0-3.96-1.777-3.96-3.962v-9.168h2v9.168c0 1.082.879 1.962 1.96 1.962h1.333z"/><path fill="#583689" d="m17.231 6.3h5.007v2h-5.007z"/></svg>