<svg xmlns="http://www.w3.org/2000/svg" enable-background="new 0 0 28 28" viewBox="0 0 28 28"><circle cx="14.875" cy="15.25" r="11.625" fill="#DEFF8F"/><path d="M14 19.741C10.836 19.738 8.26 17.162 8.257 14c.003-3.164 2.579-5.739 5.741-5.743.001 0 .002 0 .003 0 3.16.005 5.735 2.581 5.74 5.741C19.738 17.162 17.162 19.738 14 19.741zM14 9.257C11.387 9.26 9.26 11.387 9.257 14c.003 2.611 2.13 4.739 4.743 4.742 2.611-.002 4.738-2.13 4.741-4.743C18.736 11.389 16.609 9.262 14 9.257zM21.522 9.724c-1.594 0-2.89-1.296-2.89-2.89s1.296-2.89 2.89-2.89 2.891 1.296 2.891 2.89S23.116 9.724 21.522 9.724zM21.522 4.943c-1.042 0-1.89.848-1.89 1.89s.848 1.89 1.89 1.89c1.043 0 1.891-.848 1.891-1.89S22.565 4.943 21.522 4.943z"/><path d="M14,26C7.383,26,2,20.617,2,14S7.383,2,14,2c1.958,0,3.851,0.461,5.502,1.333l0.213,0.111c0.15,0.078,0.25,0.226,0.267,0.394c0.018,0.167-0.052,0.333-0.183,0.438L19.61,4.429c-0.402,0.324-0.708,0.727-0.917,1.205l-0.06,0.142C18.58,5.901,18.478,6,18.35,6.049c-0.13,0.048-0.271,0.042-0.395-0.018l-0.148-0.072c-1.193-0.569-2.475-0.858-3.808-0.858c-4.906,0-8.897,3.991-8.897,8.897c0,4.904,3.989,8.894,8.894,8.894c4.906,0,8.897-3.991,8.897-8.897c0-1.194-0.234-2.369-0.679-3.406l-0.063-0.148c-0.054-0.125-0.054-0.267,0-0.392c0.053-0.125,0.154-0.223,0.282-0.272l0.152-0.058c0.481-0.18,0.911-0.476,1.244-0.856l0.166-0.185c0.113-0.126,0.278-0.185,0.45-0.16c0.167,0.026,0.31,0.136,0.378,0.29l0.099,0.221C25.637,10.592,26,12.265,26,14C26,20.617,20.617,26,14,26z M14.027,3C7.935,3,3,7.935,3,14s4.935,11,11,11s11-4.935,11-11c0-1.423-0.267-2.801-0.793-4.104c-0.282,0.248-0.601,0.457-0.943,0.62c0.412,1.079,0.629,2.271,0.629,3.47c0,5.467-4.44,9.907-9.897,9.907c-5.455,0-9.894-4.438-9.894-9.894c0-5.458,4.44-9.897,9.897-9.897c1.369,0,2.689,0.274,3.932,0.815c0.183-0.34,0.406-0.646,0.668-0.917C17.195,3.344,15.626,3,14.027,3z"/></svg>