<svg xmlns="http://www.w3.org/2000/svg" enable-background="new 0 0 24 24" viewBox="0 0 24 24"><path fill="#FCC34A" d="M18.63,10.151c-1.273,0-1.81-0.255-1.911-0.274c-0.1-0.061-2.754-0.789-3.937-3.548c-1.389-3.244,0.906-5.275,1.057-5.624C14.207,0.2,14.983,0.7,14.68,1.243c-1.395,2.503,0.735,5.772,3.589,6.48c1.958,0.471,3.369,0.112,4.2-1.07c0.002-0.002,0.003-0.003,0.004-0.005c0.383-0.538,1.197,0.035,0.817,0.576l-0.001,0.001l0,0C22.435,8.456,21.584,10.151,18.63,10.151z"/><path fill="#110638" d="M13.067,23.498c-0.902,0-1.875-0.085-2.924-0.275c-0.854-0.165-2.081-0.72-2.604-0.957l0.001,0c0.004,0-0.41-0.204-0.495-0.251c-0.097-0.051-0.209-0.114-0.317-0.176C6.716,21.834,6.61,21.776,6.6,21.769c-0.98-0.59-1.319-0.868-1.933-1.371l-0.171-0.14c-0.01-0.007-0.02-0.015-0.029-0.023c-3.914-3.319-6.142-9.752-2.914-14.356l1.601-2.021c0.16-0.203,0.449-0.248,0.664-0.109c0.216,0.14,0.29,0.422,0.171,0.651c-1.776,3.405-1.237,8.712,3.97,12.891c0.002,0.001,0.003,0.002,0.005,0.003c0.181,0.134,0.447,0.319,0.626,0.429c0.013,0.008,0.024,0.017,0.037,0.025L8.705,17.8c0.012,0.007,0.023,0.015,0.034,0.023c0.262,0.163,0.547,0.329,0.786,0.455c0.008,0.004,0.016,0.009,0.023,0.013c0.11,0.058,0.416,0.213,0.488,0.245l0.006,0.003c0.025,0.011,0.05,0.024,0.072,0.039c0.354,0.165,0.754,0.326,1.293,0.523c0.016,0.006,0.03,0.012,0.045,0.019c3.617,1.209,8.544,0.718,11.09-2.573c0.151-0.196,0.425-0.25,0.639-0.131c0.216,0.12,0.312,0.38,0.226,0.612C23.38,17.1,20.889,23.498,13.067,23.498z M5.095,19.457c0.006,0.004,0.012,0.008,0.017,0.013l0.189,0.155c0.615,0.505,0.896,0.735,1.814,1.288c0.018,0.007,0.069,0.035,0.118,0.065c0.089,0.05,0.191,0.108,0.291,0.16c0.081,0.045,0.41,0.209,0.442,0.225c0.436,0.197,1.632,0.737,2.36,0.877c5.366,0.97,8.55-0.938,10.302-2.781c-2.987,1.636-6.779,1.56-9.648,0.556c-0.027-0.009-0.053-0.021-0.077-0.034c-0.585-0.217-1.015-0.397-1.413-0.593c-0.023-0.012-0.046-0.024-0.066-0.039c-0.16-0.08-0.352-0.178-0.393-0.201c-0.004-0.002-0.008-0.004-0.012-0.006c-0.281-0.15-0.615-0.346-0.909-0.533c-0.02-0.013-0.038-0.026-0.056-0.042c-0.002-0.001-0.003-0.002-0.005-0.003c-0.213-0.132-0.532-0.354-0.728-0.501c-0.015-0.011-0.029-0.023-0.043-0.036c-4.352-3.519-5.646-7.81-5.087-11.311C-0.447,10.813,1.596,16.475,5.095,19.457z"/><path fill="#110638" d="M8.688,12.461c-0.14,0-0.276-0.06-0.372-0.18c-0.005-0.007-0.012-0.016-0.019-0.025L8.278,12.23c-0.153-0.218-0.108-0.519,0.103-0.682c0.21-0.163,0.513-0.133,0.687,0.069c0.019,0.022,0.047,0.06,0.062,0.085l-0.002,0.001c0.118,0.217,0.07,0.501-0.13,0.652C8.903,12.426,8.795,12.461,8.688,12.461z"/><path fill="#110638" d="M16.184 16.38c-.655 0-1.362-.057-2.124-.183-1.628-.262-4.297-1.849-5.772-3.957-.259-.363-.48-.729-.694-1.149-1.312-2.54-1.202-5.548.28-7.661l1.203-1.694c.155-.219.455-.276.68-.129.226.146.294.444.157.675-.865 1.453-1.043 3.3-.488 5.066.609 1.97 1.951 3.606 3.988 4.865.012.007.022.014.033.022.309.191 1.21.623 1.787.788.002 0 .003.001.005.001.016.004.03.008.044.012v.001c3.014.977 6.225.083 7.808-2.182.142-.203.408-.271.629-.163.221.107.331.359.26.595C23.962 11.344 22.357 16.379 16.184 16.38zM8.111 5.077c-.68 1.683-.563 3.749.371 5.557.192.377.39.704.621 1.03 1.385 1.978 3.904 3.352 5.116 3.546.001 0 .001 0 .002 0 3.455.567 5.619-.377 6.938-1.517-1.825.844-4.062.988-6.207.288-.726-.209-1.744-.709-2.076-.924-.007-.004-.014-.009-.02-.014-2.231-1.388-3.707-3.204-4.387-5.398C8.202 6.795 8.084 5.925 8.111 5.077zM2.825 18.228c-.125 0-.248-.047-.344-.143-.018-.018-.034-.037-.05-.058v0l-.011-.015C2.417 18.006 2.412 18 2.408 17.994c-.15-.226-.094-.531.13-.687.217-.152.516-.108.679.1.026.031.048.066.065.103L3.28 17.511c.091.2.047.446-.125.593C3.06 18.186 2.941 18.228 2.825 18.228zM6.831 17.529c-.076 0-.152-.017-.224-.053-.048-.024-.095-.058-.133-.096-.188-.188-.2-.492-.024-.689s.47-.229.68-.063l.012.009c.201.159.249.444.111.661C7.158 17.446 6.997 17.529 6.831 17.529z"/></svg>