<svg xmlns="http://www.w3.org/2000/svg" enable-background="new 0 0 28 28" viewBox="0 0 28 28"><path fill="#FF7C66" d="M5.125,3.75c2.998-3.232,15.034-4.837,18.123,1.562s1.98,18.254,0,19.688S7.084,28.051,4.752,24.427S0.035,9.237,5.125,3.75z"/><path d="M8.125,26c-0.002,0-0.004,0-0.005,0c-1.57-0.017-3.082-0.596-4.257-1.632c-1.136-1.033-1.761-2.534-1.862-4.467L2,7.991C2,6.36,2.679,4.858,3.86,3.816C4.944,2.678,6.44,2.023,8.047,2h12.087c1.433,0,2.785,0.615,4.021,1.83C25.318,4.895,25.979,6.363,26,7.952V20.2c0,1.409-0.59,2.729-1.752,3.924c-1.114,1.174-2.622,1.842-4.242,1.876H8.125z M8.127,25h11.862c1.347-0.028,2.604-0.586,3.538-1.568C24.52,22.411,25,21.356,25,20.2V7.963c-0.018-1.308-0.562-2.519-1.534-3.407C22.411,3.52,21.295,3,20.134,3H8.059C6.726,3.02,5.481,3.563,4.558,4.531C3.555,5.419,3,6.647,3,7.937v11.938c0.088,1.657,0.589,2.892,1.53,3.748C5.52,24.495,6.799,24.985,8.127,25z M17.785,22.281c-0.153,0-0.298-0.07-0.393-0.19l-6.71-8.512l-0.016,8.089c-0.001,0.275-0.225,0.499-0.5,0.499H7.905c-0.337,0.027-0.893-0.062-1.423-0.642c-0.407-0.443-0.625-0.992-0.649-1.632V15.39c-0.189-0.497-0.564-0.783-1.174-0.898c-0.235-0.044-0.406-0.249-0.407-0.488s0.167-0.446,0.402-0.493c0.538-0.107,0.916-0.374,1.179-0.834V8.154c0.096-0.804,0.308-1.344,0.652-1.712c0.348-0.373,0.831-0.61,1.476-0.726l2.225-0.008c0.154,0,0.299,0.071,0.394,0.192l6.754,8.641V6.219c0-0.276,0.224-0.5,0.5-0.5h2.061c0.538,0.04,1.013,0.246,1.381,0.58c0.358,0.312,0.616,0.739,0.76,1.264c0.012,0.043,0.018,0.087,0.018,0.132v4.523c0.019,0.174,0.082,0.845,1.367,1.312c0.212,0.077,0.346,0.285,0.327,0.51c-0.018,0.225-0.184,0.409-0.404,0.451c-1.071,0.204-1.253,0.763-1.292,1.228l0.002,4.692c0,0.052-0.008,0.103-0.023,0.151c-0.17,0.535-0.427,0.929-0.786,1.204c-0.345,0.273-0.793,0.442-1.365,0.511L17.785,22.281z M18.027,21.281h1.79c0.317-0.042,0.61-0.146,0.811-0.304c0.186-0.143,0.32-0.348,0.424-0.647v-4.653c0.049-0.599,0.274-1.287,0.982-1.745c-0.587-0.431-0.916-0.988-0.98-1.667l-0.002-4.5c-0.093-0.305-0.237-0.541-0.441-0.719c-0.216-0.195-0.473-0.307-0.75-0.329l-1.527,0.002v9.274c0,0.214-0.136,0.403-0.337,0.473c-0.202,0.069-0.426,0.004-0.557-0.165L9.941,6.709H8.049C7.713,6.776,7.412,6.915,7.217,7.125c-0.19,0.203-0.324,0.58-0.388,1.091l0.004,4.586c0,0.078-0.019,0.156-0.054,0.226c-0.201,0.397-0.465,0.72-0.786,0.964c0.378,0.283,0.653,0.671,0.814,1.154c0.017,0.051,0.025,0.104,0.025,0.158v4.571c0.015,0.388,0.138,0.703,0.386,0.975c0.315,0.344,0.567,0.324,0.649,0.318l1.8-0.001l0.018-9.027c0-0.213,0.136-0.402,0.337-0.472c0.2-0.069,0.424-0.005,0.556,0.163L18.027,21.281z M6.333,12.802h0.01H6.333z"/></svg>