<svg xmlns="http://www.w3.org/2000/svg" enable-background="new 0 0 36 36" viewBox="0 0 36 36"><path fill="#EFEFEF" d="M1.003,14.311c3.253,6.104,2.324,11.981,3.891,14.923s6.551,8.218,20.083,1.008s11.09-16.579,9.365-19.815C26.27-4.724-4.758,3.5,1.003,14.311z"/><rect width="2" height="1" x="7.24" y="8.806" fill="#A4AFC1" transform="rotate(-45.001 8.24 9.306)"/><rect width="2" height="1" x="3.174" y="12.871" fill="#A4AFC1" transform="rotate(-45.001 4.174 13.371)"/><rect width="1" height="2" x="3.674" y="8.129" fill="#A4AFC1" transform="rotate(-45.001 4.174 9.129)"/><path fill="#A4AFC1" d="M27.657,11.143c-0.827,0-1.5-0.673-1.5-1.5s0.673-1.5,1.5-1.5s1.5,0.673,1.5,1.5S28.484,11.143,27.657,11.143z M27.657,9.143c-0.275,0-0.5,0.225-0.5,0.5s0.225,0.5,0.5,0.5s0.5-0.225,0.5-0.5S27.933,9.143,27.657,9.143z"/><ellipse cx="18" cy="18" fill="#2FDF84" rx="11.25" ry="6.75"/><path fill="#00B871" d="M9,18c0-3.5,4.44-6.377,10.125-6.716C18.755,11.262,18.38,11.25,18,11.25c-6.213,0-11.25,3.022-11.25,6.75c0,3.728,5.037,6.75,11.25,6.75c0.38,0,0.755-0.012,1.125-0.034C13.44,24.377,9,21.5,9,18z"/><path d="M18,25.5c-6.729,0-12-3.294-12-7.5s5.271-7.5,12-7.5s12,3.294,12,7.5S24.729,25.5,18,25.5z M18,12c-5.691,0-10.5,2.748-10.5,6s4.809,6,10.5,6s10.5-2.748,10.5-6S23.691,12,18,12z"/><path d="M12.362 22.116l-1.479-.254.438-2.553v-.685h.117l.537-3.127c.062-.36.374-.623.739-.623h1.324c.624 0 1.207.273 1.6.749.381.462.534 1.062.421 1.645l-.188.972c-.212 1.092-1.188 1.885-2.322 1.885h-.847L12.362 22.116zM12.962 18.625h.589c.417 0 .774-.282.85-.67l.188-.972c.038-.195-.05-.338-.105-.405-.106-.129-.268-.203-.442-.203h-.692L12.962 18.625zM22.265 22.116l-1.479-.254.438-2.551v-.687h.118l.537-3.127c.062-.36.374-.623.739-.623h1.324c.623 0 1.205.272 1.598.748.382.462.535 1.062.423 1.646l-.188.972c-.21 1.092-1.187 1.885-2.322 1.885h-.847L22.265 22.116zM22.864 18.625h.589c.418 0 .774-.281.85-.669l.188-.973c.037-.194-.051-.338-.106-.405-.106-.129-.268-.203-.441-.203h-.692L22.864 18.625z"/><rect width="7.208" height="1.5" x="13.943" y="15.812" transform="rotate(-80.253 17.547 16.562)"/><path d="M20.595,20.227l-1.484-0.219l0.457-3.103l-0.081-0.062h-2.448v-1.5h2.448c0.465,0,0.903,0.2,1.205,0.548c0.294,0.341,0.425,0.789,0.36,1.231L20.595,20.227z"/></svg>