<svg xmlns="http://www.w3.org/2000/svg" enable-background="new 0 0 28 28" viewBox="0 0 28 28"><path fill="#FFE577" d="M6.226,3.9C8.207,1.483,21.786,0.41,23.688,5S22.5,7.188,19.966,19.517c-1.132,5.508-0.773,6.385-1.978,6.17c-1.663-0.296-14.288-10.538-14.408-11.92C3.208,9.505,4.698,5.764,6.226,3.9z"/><path d="M20.609 19.513c-.462 0-.891-.059-1.159-.223-.236-.144-.311-.451-.167-.687.145-.237.452-.312.688-.167.338.2 2.085-.029 2.437-.193 1.042-.307 1.433-.746 1.529-.971-.086.019-.19.046-.282.07-.436.113-1.027.271-1.785.233-.861-.041-1.391-.321-1.551-.464-.206-.184-.225-.499-.041-.705.179-.2.484-.223.689-.056.036.021.348.197.951.227.599.022 1.091-.101 1.484-.203.476-.125.968-.254 1.313.129.232.258.304.621.197.996-.205.72-1.008 1.345-2.148 1.673C22.54 19.288 21.51 19.513 20.609 19.513zM7.867 18.965c-.38 0-.756-.172-1.12-.512-.833-.766-1.552-2.373-1.905-3.264-.472-1.223-.93-2.73-1.291-4.249C3.232 9.648 3.04 8.518 3.015 8.07c-.103-1.99.338-3.488 1.31-4.453.757-.763 1.861-1.191 3.279-1.272.294-.022.653-.021.924.001 1.288.052 2.534.397 3.356.652.264.082.412.361.33.626-.082.263-.359.412-.625.329-.49-.151-1.792-.556-3.123-.609-.136-.011-.27-.012-.406-.011C7.931 3.331 7.797 3.332 7.671 3.342c-1.19.068-2.05.39-2.639.982-.764.759-1.106 2-1.019 3.693.018.332.188 1.388.509 2.688.352 1.48.795 2.941 1.25 4.119.546 1.376 1.149 2.433 1.654 2.896.125.117.293.297.45.244.064-.003.246-.044.533-.368.312-.347.794-.865 1.241-1.347l.807-.872c.187-.204.503-.218.707-.031.204.187.218.503.032.707l-.812.877c-.443.477-.921.991-1.228 1.332-.395.445-.811.683-1.234.701C7.903 18.964 7.885 18.965 7.867 18.965z"/><path d="M16.172,26.001c-0.567,0-1.032-0.167-1.431-0.509c-0.424-0.365-0.657-0.86-0.828-1.297c-0.079-0.199-0.146-0.613-0.183-0.935c-0.045-0.406-0.082-0.918-0.106-1.496c-0.028-0.753-0.043-1.507-0.043-2.264c0-0.64,0.011-1.275,0.028-1.817c-0.027-0.123-0.043-0.191-0.067-0.256c-0.056-0.153-0.193-0.432-0.466-0.547c-0.052-0.023-0.1-0.05-0.153-0.081c-0.084-0.05-0.117-0.067-0.185-0.067c-0.172,0.045-0.37-0.003-0.495-0.129c-0.124-0.126-0.19-0.302-0.145-0.473c0.103-0.387,0.228-0.769,0.351-1.074c0.051-0.142,0.123-0.307,0.202-0.485c0.405-0.925,0.959-2.191,0.362-5.006c-0.111-0.52-0.392-0.894-0.792-1.052c-0.352-0.14-0.782-0.145-1.318-0.021c-0.574,0.136-1.039,0.373-1.266,0.503C9.476,9.089,9.275,9.082,9.119,8.98S8.875,8.697,8.894,8.512C8.9,8.443,9.065,6.839,9.449,5.803c0.381-1.033,0.926-1.856,1.62-2.447c0.855-0.724,1.882-1.077,3.141-1.08c0,0,0,0.002,0.001,0.002h0.121c2.335,0.039,4.342,1.069,5.812,2.979c0.473,0.613,0.855,1.272,1.168,2.015c0.054,0.13,0.083,0.222,0.11,0.312c0.049,0.16,0.029,0.381-0.078,0.51c-0.107,0.13-0.261,0.231-0.423,0.226c-1.044-0.107-1.76,0.055-2.125,0.483c-0.346,0.402-0.408,1.03-0.19,1.921c0.213,0.871,0.641,1.759,0.943,2.351c0.154,0.3,0.302,0.571,0.427,0.802l0.035,0.064c0.003,0.005,0.006,0.01,0.009,0.015c0.1,0.177,0.196,0.354,0.309,0.592c0.176,0.418,0.378,0.758,0.622,1.061c0.004,0.004,0.008,0.009,0.012,0.014c0,0.001,0.001,0.002,0.002,0.003c0.093,0.119,0.183,0.24,0.284,0.386c0.09,0.133,0.112,0.301,0.058,0.451c-0.054,0.151-0.177,0.268-0.331,0.312c-0.058,0.017-0.127,0.039-0.202,0.073c-0.086,0.04-0.249,0.137-0.349,0.325c-0.105,0.195-0.149,0.476-0.133,0.833c-0.05,0.712-0.436,3.984-0.627,5.121c-0.146,0.863-0.39,1.437-0.79,1.858c-0.417,0.44-1.002,0.726-1.898,0.922C16.687,25.97,16.42,26.001,16.172,26.001z M14.584,17.492c0.009,0,0.025,0.098,0.025,0.194c-0.017,0.561-0.028,1.187-0.028,1.814c0,0.745,0.016,1.485,0.042,2.224c0.023,0.55,0.058,1.038,0.101,1.424c0.043,0.384,0.1,0.629,0.12,0.682c0.126,0.322,0.29,0.682,0.548,0.903c0.215,0.183,0.563,0.372,1.369,0.196c0.688-0.151,1.116-0.347,1.387-0.633c0.256-0.27,0.419-0.682,0.53-1.337c0.184-1.088,0.568-4.347,0.615-4.97c-0.026-0.488,0.056-0.93,0.25-1.291c0.125-0.234,0.308-0.438,0.528-0.596c-0.256-0.34-0.471-0.714-0.641-1.114c-0.088-0.189-0.163-0.332-0.238-0.468c-0.008-0.013-0.016-0.025-0.023-0.039l0.001-0.001c-0.001-0.002-0.002-0.004-0.003-0.006h-0.001c-0.004-0.007-0.007-0.014-0.01-0.021c-0.001-0.002-0.002-0.004-0.004-0.006l0-0.001c-0.014-0.032-0.025-0.065-0.033-0.1l-0.021,0.005c-0.128-0.236-0.28-0.516-0.438-0.824c-0.518-1.011-0.844-1.827-1.025-2.568c-0.299-1.227-0.167-2.145,0.403-2.809c0.479-0.561,1.198-0.846,2.187-0.864c-0.245-0.512-0.532-0.98-0.873-1.421c-1.296-1.685-2.988-2.556-5.028-2.59H14.21c-1.012,0.001-1.828,0.275-2.494,0.841c-0.56,0.477-1.008,1.16-1.329,2.031c-0.17,0.46-0.295,1.074-0.377,1.574c0.222-0.083,0.446-0.151,0.666-0.203c0.74-0.176,1.367-0.153,1.914,0.063c0.712,0.281,1.223,0.928,1.404,1.773c0.663,3.13,0.008,4.625-0.425,5.615c-0.069,0.158-0.133,0.304-0.184,0.442c-0.052,0.128-0.104,0.27-0.153,0.419c0.083,0.036,0.15,0.075,0.199,0.104c0.496,0.217,0.857,0.617,1.052,1.148C14.53,17.216,14.563,17.352,14.584,17.492L14.584,17.492z"/><path d="M12.583 16.76c-1.078 0-2.124-.498-2.87-1.366-.757-.882-1.093-2.033-.922-3.16.113-.792.158-1.623.133-2.468C8.914 9.122 8.893 8.58 8.893 8.578c-.011-.275.204-.509.48-.52.272.001.508.204.519.48 0 0 .022.553.033 1.203.027.896-.021 1.784-.144 2.638-.128.843.124 1.702.691 2.361.556.647 1.326 1.019 2.111 1.019.276 0 .5.224.5.5S12.86 16.76 12.583 16.76zM20.84 16.794c-.132 0-.259-.053-.354-.146-.204-.204-.174-.371-.061-.992.105-.584.283-1.562.309-2.459.011-.597-.054-1.176-.111-1.686-.049-.435-.091-.81-.08-1.132.031-.895.052-1.484-.072-2.501-.033-.274.162-.523.436-.557.275-.036.523.161.557.436.133 1.095.11 1.75.078 2.656-.008.248.03.59.075.985.061.541.13 1.154.118 1.822-.007.225-.021.451-.042.676.651-1.312 1.255-2.906 1.826-4.815.304-1.029.47-1.964.48-2.699.011-.781-.165-1.15-.234-1.227C22.482 3.738 20.649 3.014 18.319 3h-.178c-.362.006-.748.129-1.155.259-.292.093-.58.184-.864.237-.268.052-.532-.127-.584-.398-.051-.271.127-.533.398-.584.246-.047.494-.127.746-.208C17.141 2.159 17.616 2.008 18.134 2h.188c2.625.015 4.705.851 6.185 2.484.325.36.504 1.057.492 1.911-.012.826-.192 1.854-.522 2.971-.955 3.192-2.012 5.555-3.234 7.224-.086.117-.22.191-.365.202C20.866 16.794 20.853 16.794 20.84 16.794z"/><path d="M11.142 20.018c-.898 0-1.483-.192-1.779-.582-.188-.247-.233-.562-.122-.841.167-.419.595-.536 1.009-.649.254-.07.542-.149.846-.296.584-.283 1.5-1.225 1.805-1.563.184-.205.5-.223.706-.038s.223.5.038.706c-.125.14-1.249 1.377-2.114 1.796-.386.187-.735.282-1.016.359-.034.01-.072.02-.109.03.241.065.696.117 1.525.032 1.313-.139 1.688-1.019 1.704-1.056.104-.254.392-.38.648-.278.254.101.382.385.284.641-.023.061-.588 1.482-2.531 1.688C11.708 20.001 11.411 20.018 11.142 20.018zM13.414 10.508c-.402 0-1.207-.076-1.82-.624-.513-.457-.772-1.119-.772-1.966 0-.276.224-.5.5-.5s.5.224.5.5c0 .547.146.956.434 1.216.497.446 1.29.369 1.299.369.277-.033.52.169.55.442.03.274-.166.521-.439.552C13.651 10.498 13.559 10.508 13.414 10.508zM17.987 10.514c-.276 0-.5-.224-.5-.5s.224-.5.5-.5c.49 0 .847-.129 1.091-.396.439-.479.385-1.264.385-1.271-.024-.275.18-.518.455-.541.274-.021.517.18.541.455.004.05.097 1.227-.644 2.034C19.378 10.271 18.763 10.514 17.987 10.514z"/></svg>