<svg xmlns="http://www.w3.org/2000/svg" width="32" height="32" viewBox="0 0 32 32"><g transform="translate(612 -918.362)"><path fill="#00d1b6" stroke="#373449" stroke-linecap="round" stroke-linejoin="round" d="m -607.5,-83.5 0,3.001953 c 0,0.554 0.446,1 1,1 l 22,0 c 0.554,0 1,-0.446 1,-1 l 0,-3.001953 -24,0 z" transform="translate(0 1020.362)"/><rect width="24" height="17" x="-607.5" y="923.862" fill="none" stroke="#373449" stroke-linecap="round" stroke-linejoin="round" rx="1" ry="1"/><path fill="none" stroke="#373449" stroke-linecap="round" stroke-linejoin="round" d="m -598.49997,940.88015 6,0 c -0.9377,2.8229 0.59123,3.8595 2,4.9832 l -10,0 c 1.73191,-1.2517 3.06667,-2.661 2,-4.9832 z"/><path fill="none" stroke="#373449" d="m -607.49997,936.86335 24,0"/><path fill="none" stroke="#373449" stroke-linecap="round" stroke-linejoin="round" d="m -602.49997,945.86335 14,0"/><path fill="none" stroke="#373449" d="M-599.51741 926.8636c-.29611 0-.95585-.024-.95585.4317 0 .8451 0 1.5904 0 2.1878 0 .2606-.61817.7236-.61817.8687 0 .1453.62779.4993.62779.8809 0 .3816 0 1.9473 0 2.2004 0 .483.79324.4283.94623.4283M-591.44815 926.8636c.29611 0 .95585-.024.95585.4317 0 .8451 0 1.5904 0 2.1878 0 .2606.61817.7236.61817.8687 0 .1453-.62779.4993-.62779.8809 0 .3816 0 1.9473 0 2.2004 0 .483-.79324.4283-.94623.4283M-597.99997 931.8633l5 0 0 0M-597.99997 928.8633l5 0 0 0"/><circle cx="-595.688" cy="938.8" r=".738" fill="#373449"/></g></svg>