<svg height="512" viewBox="0 0 42 58" width="512" xmlns="http://www.w3.org/2000/svg"><g id="Page-1" fill="none" fill-rule="evenodd"><g id="003---Right-Arrow" fill-rule="nonzero"><path id="Shape" d="m22 45.53v11.47c-.0015928.5516236-.4483764.9984072-1 1h-10c-.5516236-.0015928-.9984072-.4483764-1-1v-11.47c0-8.7006-7.2263-22.785-9.8237-26.53-.27464583-.3964938-.22358447-.9332083.1209-1.2708l8.2148-6.8432c.20071196-.2016001.47782651-.3081104.76189451-.292838.28406801.0152725.54816546.1508803.72610549.372838 2.3047836 2.8902668 4.3147825 6.0037551 6 9.294" fill="#285680"/><path id="Shape" d="m41.67 1.2-4.19 21.46c-.071174.3627549-.3360796.656973-.6894037.7656881-.353324.1087151-.7378064.0143087-1.0005963-.2456881l-4.6-4.55c-.2419333.3056-.4863333.6227333-.7332.9514-5.5494068 7.5066467-8.5165721 16.6096073-8.4568 25.9446v11.474c0 .5522847-.4477153 1-1 1h-10c-.5522847 0-1-.4477153-1-1v-12.53c.0087591-5.171092.807991-10.3104568 2.37-15.24 2.1474662-6.9754499 5.6209838-13.4708939 10.23-19.13l-4.04-4c-.2630384-.25868011-.3619891-.64133066-.2573248-.99509609s.3958832-.62098119.7573248-.69490391l21.43-4.39c.3283353-.06329688.6666826.04043146.9031256.27687443.2364429.23644298.3401713.57479027.2768744.90312557z" fill="#4482c3"/></g></g></svg>