<svg xmlns="http://www.w3.org/2000/svg" fill-rule="evenodd" stroke-linejoin="round" stroke-miterlimit="2" clip-rule="evenodd" viewBox="0 0 134 134"><rect width="100" height="29.167" x="16.667" y="37.5" fill="#fadf8f"/><path d="M118.25,37.5c0,-0.875 -0.709,-1.584 -1.583,-1.584l-100,0c-0.875,0 -1.584,0.709 -1.584,1.584l-0,29.167c-0,0.874 0.709,1.583 1.584,1.583l100,0c0.874,0 1.583,-0.709 1.583,-1.583l0,-29.167Zm-100,1.584l0,25.999l96.833,-0l-0,-25.999l-96.833,-0Z"/><path fill="#fadf8f" d="M116.667,95.833l-100,0l-0,21.652c-0,1.993 0.791,3.904 2.201,5.314c1.409,1.409 3.321,2.201 5.314,2.201c18.561,0 66.408,0 84.969,0c1.994,0 3.905,-0.792 5.314,-2.201c1.41,-1.41 2.202,-3.321 2.202,-5.314c-0,-8.642 -0,-21.652 -0,-21.652Zm-0,-79.984c-0,-1.994 -0.792,-3.905 -2.202,-5.315c-1.409,-1.409 -3.32,-2.201 -5.314,-2.201c-18.561,0 -66.408,0 -84.969,0c-1.993,0 -3.905,0.792 -5.314,2.201c-1.41,1.41 -2.201,3.321 -2.201,5.315c-0,8.642 -0,21.651 -0,21.651l100,0l-0,-21.651Z"/><path d="M118.25,95.833c0,-0.874 -0.709,-1.583 -1.583,-1.583l-100,-0c-0.875,-0 -1.584,0.709 -1.584,1.583l-0,21.652c-0,2.413 0.959,4.727 2.665,6.434c1.706,1.706 4.021,2.665 6.434,2.665c18.561,-0 66.408,-0 84.969,-0c2.414,-0 4.728,-0.959 6.434,-2.665c1.707,-1.707 2.665,-4.021 2.665,-6.434c0,-8.642 0,-21.652 0,-21.652Zm-3.167,1.584l-96.833,0l0,20.068c0,1.573 0.625,3.082 1.738,4.194c1.112,1.112 2.621,1.737 4.194,1.737c18.561,0 66.408,0 84.969,0c1.573,0 3.082,-0.625 4.195,-1.737c1.112,-1.112 1.737,-2.621 1.737,-4.194l-0,-20.068Zm3.167,-81.568c0,-2.414 -0.958,-4.728 -2.665,-6.434c-1.706,-1.707 -4.02,-2.665 -6.434,-2.665c-18.561,-0 -66.408,-0 -84.969,-0c-2.413,-0 -4.728,0.958 -6.434,2.665c-1.706,1.706 -2.665,4.02 -2.665,6.434c-0,8.642 -0,21.651 -0,21.651c-0,0.875 0.709,1.584 1.584,1.584l100,-0c0.874,-0 1.583,-0.709 1.583,-1.584l0,-21.651Zm-3.167,20.067l-0,-20.067c-0,-1.574 -0.625,-3.082 -1.737,-4.195c-1.113,-1.112 -2.622,-1.737 -4.195,-1.737c-18.561,0 -66.408,0 -84.969,0c-1.573,0 -3.082,0.625 -4.194,1.737c-1.113,1.113 -1.738,2.621 -1.738,4.195l0,20.067l96.833,0Z"/><rect width="100" height="29.167" x="16.667" y="66.667" fill="#fadf8f"/><path d="M118.25 66.667c0-.875-.709-1.584-1.583-1.584l-100 0c-.875 0-1.584.709-1.584 1.584l0 29.166c0 .875.709 1.584 1.584 1.584l100 0c.874 0 1.583-.709 1.583-1.584l0-29.166zm-100 1.583l0 26 96.833 0 0-26-96.833 0zM50 53.667l33.333 0c.874 0 1.584-.71 1.584-1.584 0-.874-.71-1.583-1.584-1.583l-33.333 0c-.874 0-1.584.709-1.584 1.583 0 .874.71 1.584 1.584 1.584zM50 112l33.333 0c.874 0 1.584-.709 1.584-1.583 0-.874-.71-1.584-1.584-1.584l-33.333 0c-.874 0-1.584.71-1.584 1.584 0 .874.71 1.583 1.584 1.583zM50 24.5l33.333 0c.874 0 1.584-.709 1.584-1.583 0-.874-.71-1.584-1.584-1.584l-33.333 0c-.874 0-1.584.71-1.584 1.584 0 .874.71 1.583 1.584 1.583z"/><path d="M50,82.834l33.333,-0c0.874,-0 1.584,-0.71 1.584,-1.584c0,-0.874 -0.71,-1.584 -1.584,-1.584l-33.333,0c-0.874,0 -1.584,0.71 -1.584,1.584c0,0.874 0.71,1.584 1.584,1.584Z"/></svg>