<svg xmlns="http://www.w3.org/2000/svg" data-name="LINE COLOR" viewBox="0 0 24 24"><path fill="#3949ab" d="M12,23.75A11.75,11.75,0,1,1,23.75,12,11.76,11.76,0,0,1,12,23.75Zm0-22A10.25,10.25,0,1,0,22.25,12,10.26,10.26,0,0,0,12,1.75Z"/><rect width="2" height="1.5" x="3" y="11.25" fill="#9fa8da"/><rect width="2" height="1.5" x="19" y="11.25" fill="#9fa8da"/><rect width="1.5" height="2" x="11.25" y="3" fill="#9fa8da"/><rect width="1.5" height="2" x="11.25" y="19" fill="#9fa8da"/><polygon fill="#9fa8da" points="15.47 16.53 11.25 12.31 11.25 6 12.75 6 12.75 11.69 16.53 15.47 15.47 16.53"/></svg>