<svg xmlns="http://www.w3.org/2000/svg" data-name="Layer 1" viewBox="0 0 168 168"><path fill="#2d4356" d="M33.51172 46H25a1 1 0 0 0 0 2h8.51172a1 1 0 0 0 0-2zM45.791 50H31.23242a1 1 0 0 0 0 2H45.791a1 1 0 1 0 0-2z"/><path fill="#0bceb2" d="M25,56h6.39551a1,1,0,0,0,0-2H25a1,1,0,0,0,0,2Z"/><path fill="#2d4356" d="M25 60h9.53522a1 1 0 0 0 0-2H25a1 1 0 0 0 0 2zM47.86041 63a1.00013 1.00013 0 0 0-1-1H33.18652a1 1 0 0 0 0 2H46.86041A1.00013 1.00013 0 0 0 47.86041 63z"/><path fill="#0bceb2" d="M43.74408,66H30.11621a1,1,0,0,0,0,2H43.74408a1,1,0,0,0,0-2Z"/><path fill="#2d4356" d="M25 72H38.55859a1 1 0 0 0 0-2H25a1 1 0 0 0 0 2zM45.76758 75a1.00009 1.00009 0 0 0-1-1H34.30267a1 1 0 0 0 0 2h10.4649A1.00009 1.00009 0 0 0 45.76758 75z"/><path fill="#0bceb2" d="M31.3252,78a1,1,0,1,0,0,2h7.2334a1,1,0,0,0,0-2Z"/><path fill="#2d4356" d="M25 84H38.55859a1 1 0 0 0 0-2H25a1 1 0 0 0 0 2zM25 88H37.53522a1 1 0 0 0 0-2H25a1 1 0 0 0 0 2zM50 90H36.44141a1 1 0 0 0 0 2H50a1 1 0 0 0 0-2z"/><path fill="#0bceb2" d="M25,96H38.55859a1,1,0,0,0,0-2H25a1,1,0,0,0,0,2Z"/><path fill="#2d4356" d="M40.37207 99a1.00009 1.00009 0 0 0 1 1H51.93073a1 1 0 0 0 0-2H41.37207A1.00009 1.00009 0 0 0 40.37207 99zM126.51172 46H118a1 1 0 0 0 0 2h8.51172a1 1 0 0 0 0-2zM138.791 50H124.23242a1 1 0 0 0 0 2H138.791a1 1 0 0 0 0-2z"/><path fill="#0bceb2" d="M118,56h9.39551a1,1,0,1,0,0-2H118a1,1,0,0,0,0,2Z"/><path fill="#2d4356" d="M118 60h9.53522a1 1 0 0 0 0-2H118a1 1 0 0 0 0 2zM137.86041 63a1.00013 1.00013 0 0 0-1-1H121.18652a1 1 0 0 0 0 2h15.67389A1.00013 1.00013 0 0 0 137.86041 63z"/><path fill="#0bceb2" d="M126.11621,66a1,1,0,0,0,0,2h5.62787a1,1,0,0,0,0-2Z"/><path fill="#2d4356" d="M119 71a1.00013 1.00013 0 0 0 1 1h18.55859a1 1 0 0 0 0-2H120A1.00013 1.00013 0 0 0 119 71zM122.30267 74a1 1 0 1 0 0 2h10.4649a1 1 0 0 0 0-2z"/><path fill="#0bceb2" d="M118.3252,79a1,1,0,0,0,1,1h10.2334a1,1,0,0,0,0-2H119.3252A1,1,0,0,0,118.3252,79Z"/><path fill="#2d4356" d="M139.55859 82H119a1 1 0 0 0 0 2h20.55859a1 1 0 0 0 0-2zM119 88h16.53522a1 1 0 0 0 0-2H119a1 1 0 0 0 0 2zM141 90H124.44141a1 1 0 1 0 0 2H141a1 1 0 0 0 0-2z"/><path fill="#0bceb2" d="M121,96h8.55859a1,1,0,0,0,0-2H121a1,1,0,0,0,0,2Z"/><path fill="#2d4356" d="M140.93073,98H129.37207a1,1,0,0,0,0,2h11.55865a1,1,0,0,0,0-2Z"/><circle cx="137" cy="35" r="1" fill="#2d4356"/><circle cx="129" cy="35" r="1" fill="#2d4356"/><path fill="#2d4356" d="M105.791 85.42969a3.11227 3.11227 0 0 0-2.81934-1.97168 3.52858 3.52858 0 0 0-1.16455.1748l-1.165.35394-8.79352-16.626a4.03936 4.03936 0 0 0-3.59027-2.09619L85 65.27728v-8.496a5.45741 5.45741 0 0 0-2.42187-4.39313 5.99851 5.99851 0 0 1-1.8877 1.19189A3.89516 3.89516 0 0 1 83 56.78131v9.5a.70825.70825 0 0 0 .29437.56775c.1875.18652.441.15094.70563.15094h.00391l4.2583.124A2.10451 2.10451 0 0 1 90.0835 68.23l9.17633 17.38519a1.00912 1.00912 0 0 0 1.17426.50739l1.96869-.58936a1.638 1.638 0 0 1 .52692-.08014A1.09137 1.09137 0 0 1 104 86.5293a1.18723 1.18723 0 0 1-.75488.977c-.30029.10938-3.06744 1.11279-4.29639 1.45367a.82967.82967 0 0 1-.33643.0351 2.21027 2.21027 0 0 1-.55182-.12988L93 79.4624V75.23877A2.2647 2.2647 0 0 0 90.71527 73H74V71H84a1 1 0 0 0 0-2H74V57.74658a4.39793 4.39793 0 0 1 2.21-4.20312 6.008 6.008 0 0 1-1.8194-1.183 6.05479 6.05479 0 0 0-2.08844 3.17426 4.06918 4.06918 0 0 0-1.2207-.5083L64 55a1 1 0 0 0 0 2h6.72748A1.55577 1.55577 0 0 1 72 58.47711V74.39355A11.99346 11.99346 0 1 0 86.94922 87H91v8a.92625.92625 0 0 0 .03522.17291 2.99979 2.99979 0 1 0 1.93005 0A.98293.98293 0 0 0 93 95V83.68256l3.458 6.42535a1.0016 1.0016 0 0 0 .41022.40869 4.16637 4.16637 0 0 0 1.53406.46729A2.7275 2.7275 0 0 0 98.69678 91a2.89079 2.89079 0 0 0 .7915-.11383c.65723-.18207 3.75049-1.21326 4.52631-1.54236l.00354.00775a3.1519 3.1519 0 0 0 1.9809-2.75537A3.0382 3.0382 0 0 0 105.791 85.42969zm-38.5293-5.75439L72.58643 85H65.05078A9.95135 9.95135 0 0 1 67.26172 79.67529zM65.05078 87h7.53461l-5.32416 5.32367A9.95284 9.95284 0 0 1 65.05078 87zM74 95.94916a9.95252 9.95252 0 0 1-5.32471-2.21136L74 88.41357zm0-12.36377l-5.32373-5.32422A9.95205 9.95205 0 0 1 74 76.05078zm2-7.53461a9.9504 9.9504 0 0 1 5.32422 2.21088L76 83.58539zm0 19.89838V88.41357l5.32422 5.32471A9.9504 9.9504 0 0 1 76 95.94916zm6.73828-3.625L77.41461 87h7.53461A9.94961 9.94961 0 0 1 82.73828 92.32416zM77.41357 85l5.32471-5.32422A9.94822 9.94822 0 0 1 84.94922 85zM91 85H86.94971a11.99792 11.99792 0 0 0-7.1601-10H90.71527A.26842.26842 0 0 1 91 75.23877zm2 12.99951A1 1 0 1 1 92.001 97 1.00085 1.00085 0 0 1 93 97.99951zM78.5 52a4 4 0 1 0-4-3.99951A4.00162 4.00162 0 0 0 78.5 52zm0-6a2 2 0 1 1-2 2.00049A2.0024 2.0024 0 0 1 78.5 46z"/><path fill="#2d4356" d="M24 118H77v9H69a1 1 0 0 0 0 2H99a1 1 0 0 0 0-2H91v-9h17.6958l-1.82861-2H24a2.002 2.002 0 0 1-2-2v-5h79.06842a2.81567 2.81567 0 0 1 .29877-2H92.29a34.84534 34.84534 0 0 1-16.58 0H22V40H72.355a34.90965 34.90965 0 0 1 23.29 0H146v67H128.28961l1.852 2H146v5a2.002 2.002 0 0 1-2 2h-7.45459a2.97972 2.97972 0 0 1 .41156 2H144a4.01151 4.01151 0 0 0 4-4V34a4.01151 4.01151 0 0 0-4-4H24a4.01151 4.01151 0 0 0-4 4v80A4.01151 4.01151 0 0 0 24 118zm55 0H89v9H79zM22 34a2.002 2.002 0 0 1 2-2H144a2.002 2.002 0 0 1 2 2v4H22zM150 18.5a2 2 0 1 0-2-2A2.00229 2.00229 0 0 0 150 18.5zm0-3a1 1 0 1 1-1 1A1.001 1.001 0 0 1 150 15.5zM41 18.5a3 3 0 1 0-3-3A3.00344 3.00344 0 0 0 41 18.5zM41 14a1.5 1.5 0 1 1-1.5 1.5A1.50148 1.50148 0 0 1 41 14zM91 14.5a2 2 0 1 0-2-2A2.00229 2.00229 0 0 0 91 14.5zm0-3a1 1 0 1 1-1 1A1.001 1.001 0 0 1 91 11.5zM10 28.5a2 2 0 1 0 2 2A2.00229 2.00229 0 0 0 10 28.5zm0 3a1 1 0 1 1 1-1A1.001 1.001 0 0 1 10 31.5z"/><path fill="#2d4356" d="M152 136.5H130.97534a.95518.95518 0 0 0-.10522-.1748l-25.4433-27.8291L115.79541 99.394l17.4707 18.86719a1 1 0 0 0 1.46777-1.3584l-18.13226-19.582a.99876.99876 0 0 0-1.39362-.07233l-1.63232 1.43311-4.18848-4.60052a32.99862 32.99862 0 1 0-8.55219 7.30121l4.29291 4.7149-1.78766 1.56934a.99977.99977 0 0 0-.07806 1.42627L128.32037 136.5H16a1 1 0 0 0 0 2H152a1 1 0 0 0 0-2zM84 104.00049a31 31 0 1 1 31-31A31.03528 31.03528 0 0 1 84 104.00049zm18.54932-3.70612a33.1499 33.1499 0 0 0 5.501-4.71039l4.022 4.417-5.441 4.77631zM11 136.5H6a1 1 0 0 0 0 2h5a1 1 0 0 0 0-2z"/><circle cx="1" cy="137.5" r="1" fill="#2d4356"/><path fill="#2d4356" d="M162,136.5h-5a1,1,0,0,0,0,2h5a1,1,0,0,0,0-2Z"/><circle cx="167" cy="137.5" r="1" fill="#2d4356"/><circle cx="133" cy="35" r="1" fill="#0bceb2"/><polygon fill="#0bceb2" points="5.583 71.511 7.07 69.556 6.131 69.024 5.177 71.214 5.145 71.214 4.175 69.039 3.22 69.587 4.691 71.496 4.691 71.527 2.391 71.23 2.391 72.294 4.707 71.997 4.707 72.028 3.22 73.936 4.112 74.5 5.13 72.294 5.16 72.294 6.099 74.484 7.085 73.921 5.583 72.043 5.583 72.012 7.945 72.294 7.945 71.23 5.583 71.542 5.583 71.511"/><polygon fill="#0bceb2" points="60.281 4.269 61.137 3.143 60.597 2.837 60.047 4.098 60.029 4.098 59.471 2.845 58.92 3.161 59.768 4.26 59.768 4.278 58.443 4.107 58.443 4.72 59.777 4.549 59.777 4.567 58.92 5.666 59.434 5.99 60.02 4.72 60.038 4.72 60.578 5.981 61.146 5.657 60.281 4.575 60.281 4.557 61.641 4.72 61.641 4.107 60.281 4.287 60.281 4.269"/><polygon fill="#0bceb2" points="129.683 6.937 132 7.213 132 6.17 129.683 6.477 129.683 6.446 131.142 4.528 130.221 4.006 129.285 6.154 129.253 6.154 128.302 4.021 127.365 4.559 128.808 6.431 128.808 6.462 126.552 6.17 126.552 7.213 128.823 6.922 128.823 6.953 127.365 8.825 128.24 9.378 129.238 7.213 129.268 7.213 130.189 9.362 131.156 8.81 129.683 6.968 129.683 6.937"/><polygon fill="#0bceb2" points="110.702 22.523 109.444 24.138 110.198 24.615 111.06 22.748 111.085 22.748 111.88 24.601 112.714 24.125 111.443 22.536 111.443 22.509 113.442 22.748 113.442 21.848 111.443 22.112 111.443 22.086 112.701 20.431 111.907 19.981 111.099 21.834 111.073 21.834 110.252 19.994 109.444 20.458 110.689 22.073 110.689 22.099 108.742 21.848 108.742 22.748 110.702 22.496 110.702 22.523"/><path fill="#0bceb2" d="M105 142.5H63a1 1 0 0 0 0 2H81v2H71a1 1 0 0 0 0 2H98a1 1 0 0 0 0-2H87v-2h18a1 1 0 0 0 0-2zM119 142.5H109a1 1 0 0 0 0 2h10a1 1 0 0 0 0-2zM59 142.5H49a1 1 0 0 0 0 2H59a1 1 0 0 0 0-2z"/></svg>