<svg height="487pt" viewBox="-22 0 487 487.832" width="487pt" xmlns="http://www.w3.org/2000/svg"><path d="m421.503906 356.835938-17.929687-30.144532c-1.082031-1.820312-3.042969-2.933594-5.15625-2.933594h-62.199219v12h58.789062l16.300782 27.40625c2.402344-3.28125 6.015625-5.613281 10.195312-6.328124zm0 0" fill="#e0ebfc"/><path d="m166.902344 14.953125c-23.84375 1.628906-43.550782 20.464844-46.171875 44.222656-.910157 8.253907.203125 16.152344 2.890625 23.277344.472656 1.253906-.003906 2.648437-1.171875 3.304687-.011719.007813-.019531.011719-.035157.019532-.828124.46875-1.828124.441406-2.648437-.042969-7.707031-4.542969-16.734375-7.085937-26.371094-6.890625-26.949219.542969-48.996093 23.070312-48.976562 50.023438.007812 8.304687 2.042969 16.125 5.632812 23.011718.96875 1.859375-.183593 4.0625-2.257812 4.335938-24.480469 3.242187-43.375 24.1875-43.375 49.554687 0 17.300781 8.789062 32.550781 22.144531 41.527344v4.945313c-13.355469 8.976562-22.144531 24.226562-22.144531 41.527343 0 27.613281 22.386719 50 50 50h.058593c2.328126-.003906 3.78125 2.464844 2.589844 4.464844-5.304687 8.90625-7.925781 19.59375-6.722656 30.960937 2.511719 23.816407 22.152344 42.734376 46.039062 44.441407 13.535157.96875 26.019532-3.460938 35.539063-11.351563 1.730469-1.433594 4.375-.429687 4.75 1.789063 3.953125 23.660156 24.523437 41.695312 49.308594 41.695312 8.878906 0 17.210937-2.324219 24.4375-6.382812v-414.550781c-9.769531-13.011719-25.734375-21.097657-43.515625-19.882813zm0 0" fill="#f9a7a7"/><path d="m306.355469 379.832031h-95.9375v-272h95.9375c16.492187 0 29.863281 13.371094 29.863281 29.863281v212.273438c0 16.492188-13.371094 29.863281-29.863281 29.863281zm0 0" fill="#f9cfcf"/><path d="m210.417969 349.070312v-210.476562h66.792969c10.996093 0 19.90625 8.914062 19.90625 19.910156v170.65625c0 10.996094-8.914063 19.910156-19.90625 19.910156zm0 0" fill="#e0ebfc"/><path d="m264.566406 107.832031h-17v-25.5c0-4.695312 3.808594-8.5 8.5-8.5 4.695313 0 8.5 3.804688 8.5 8.5zm0 0" fill="#ffea92"/><path d="m336.21875 193.859375v-17h25.5c4.691406 0 8.5 3.804687 8.5 8.5s-3.808594 8.5-8.5 8.5zm0 0" fill="#ffea92"/><path d="m336.21875 251.59375v-17h25.5c4.691406 0 8.5 3.804688 8.5 8.5 0 4.691406-3.808594 8.5-8.5 8.5zm0 0" fill="#ffea92"/><path d="m336.21875 309.324219v-17h25.5c4.691406 0 8.5 3.808593 8.5 8.5 0 4.695312-3.808594 8.5-8.5 8.5zm0 0" fill="#ffea92"/><path d="m264.566406 380h-17v25.5c0 4.695312 3.808594 8.5 8.5 8.5 4.695313 0 8.5-3.804688 8.5-8.5zm0 0" fill="#ffea92"/><path d="m185.980469 459.769531c-25.890625 0-47.871094-18.085937-52.929688-43.261719-10.519531 8.136719-23.570312 12.074219-36.953125 11.121094-25.660156-1.835937-47.042968-22.476562-49.734375-48.011718-1.179687-11.195313 1.023438-22.179688 6.375-31.875-29.035156-.921876-52.324219-24.777344-52.324219-53.972657 0-17.292969 8.238282-33.4375 22.144532-43.605469v-.789062c-13.90625-10.167969-22.144532-26.308594-22.144532-43.605469 0-26.5 19.4375-49.171875 45.445313-53.316406-3.558594-7.300781-5.4375-15.421875-5.445313-23.582031-.019531-29.207032 23.710938-53.441406 52.894532-54.027344 8.847656-.203125 17.605468 1.816406 25.464844 5.792969-2.167969-7.050781-2.847657-14.40625-2.023438-21.902344 2.8125-25.484375 24.257812-46.023437 49.875-47.773437 18.417969-1.265626 35.945312 6.765624 46.988281 21.464843.519531.695313.796875 1.535157.796875 2.402344v414.554687c0 1.445313-.78125 2.78125-2.039062 3.488282-8.023438 4.515625-17.15625 6.898437-26.390625 6.898437zm-52.234375-52.15625c.8125 0 1.640625.148438 2.441406.445313 2.324219.867187 4.019531 2.917968 4.429688 5.359375 3.710937 22.222656 22.789062 38.351562 45.363281 38.351562 7.097656 0 14.117187-1.648437 20.441406-4.792969v-410.777343c-9.445313-11.863281-23.976563-18.289063-39.242187-17.253907-21.816407 1.492188-40.078126 18.976563-42.46875 40.667969-.816407 7.382813.078124 14.59375 2.65625 21.433594 1.167968 3.109375-.050782 6.53125-2.898438 8.167969-.03125.019531-.0625.039062-.09375.054687-2.054688 1.152344-4.597656 1.121094-6.640625-.082031-7.328125-4.324219-15.714844-6.496094-24.257813-6.34375-24.859374.5-45.070312 21.144531-45.054687 46.023438.007813 7.460937 1.75 14.582031 5.179687 21.167968 1.054688 2.027344 1.0625 4.4375.015626 6.453125-1.046876 2.015625-3.027344 3.394531-5.296876 3.699219-22.75 3.007812-39.902343 22.605469-39.902343 45.582031 0 15.347657 7.617187 29.628907 20.375 38.207031 1.105469.746094 1.769531 1.988282 1.769531 3.320313v4.945313c0 1.332031-.664062 2.578124-1.769531 3.320312-12.757813 8.578125-20.375 22.863281-20.375 38.210938 0 25.363281 20.632812 46 46 46h.011719c2.578124 0 4.914062 1.351562 6.15625 3.53125 1.25 2.191406 1.21875 4.800781-.078126 6.980468-5.109374 8.574219-7.246093 18.425782-6.1875 28.492188 2.292969 21.738281 20.5 39.308594 42.351563 40.871094 11.914063.863281 23.539063-2.851563 32.695313-10.4375 1.265624-1.054688 2.804687-1.597657 4.378906-1.597657zm33.15625-392.660156h.023437zm0 0" fill="#3762cc"/><path d="m306.355469 383.832031h-95.9375c-2.207031 0-4-1.792969-4-4v-272c0-2.207031 1.792969-4 4-4h95.9375c18.671875 0 33.863281 15.191407 33.863281 33.863281v212.273438c0 18.671875-15.191406 33.863281-33.863281 33.863281zm-91.9375-8h91.9375c14.261719 0 25.863281-11.601562 25.863281-25.863281v-212.273438c0-14.257812-11.601562-25.859374-25.863281-25.859374h-91.9375zm0 0" fill="#3762cc"/><path d="m277.210938 353.070312h-66.792969c-2.207031 0-4-1.792968-4-4v-210.476562c0-2.207031 1.792969-4 4-4h66.792969c13.183593 0 23.90625 10.726562 23.90625 23.910156v170.65625c0 13.183594-10.722657 23.910156-23.90625 23.910156zm-62.792969-8h62.792969c8.769531 0 15.90625-7.136718 15.90625-15.910156v-170.65625c0-8.773437-7.136719-15.910156-15.90625-15.910156h-62.792969zm0 0" fill="#3762cc"/><path d="m264.566406 111.832031h-17c-2.207031 0-4-1.792969-4-4v-25.5c0-6.890625 5.609375-12.5 12.5-12.5 6.894532 0 12.5 5.609375 12.5 12.5v25.5c0 2.210938-1.789062 4-4 4zm-13-8h9v-21.5c0-2.480469-2.019531-4.5-4.5-4.5-2.476562 0-4.5 2.019531-4.5 4.5zm0 0" fill="#3762cc"/><path d="m361.71875 197.859375h-25.5c-2.207031 0-4-1.792969-4-4v-17c0-2.207031 1.792969-4 4-4h25.5c6.890625 0 12.5 5.609375 12.5 12.5 0 6.894531-5.609375 12.5-12.5 12.5zm-21.5-8h21.5c2.480469 0 4.5-2.015625 4.5-4.5 0-2.480469-2.019531-4.5-4.5-4.5h-21.5zm0 0" fill="#3762cc"/><path d="m361.71875 255.59375h-25.5c-2.207031 0-4-1.792969-4-4v-17c0-2.210938 1.792969-4 4-4h25.5c6.890625 0 12.5 5.605469 12.5 12.5 0 6.890625-5.609375 12.5-12.5 12.5zm-21.5-8h21.5c2.480469 0 4.5-2.019531 4.5-4.5 0-2.484375-2.019531-4.5-4.5-4.5h-21.5zm0 0" fill="#3762cc"/><path d="m361.71875 313.324219h-25.5c-2.207031 0-4-1.789063-4-4v-17c0-2.207031 1.792969-4 4-4h25.5c6.890625 0 12.5 5.609375 12.5 12.5 0 6.894531-5.609375 12.5-12.5 12.5zm-21.5-8h21.5c2.480469 0 4.5-2.015625 4.5-4.5 0-2.480469-2.019531-4.5-4.5-4.5h-21.5zm0 0" fill="#3762cc"/><path d="m256.066406 418c-6.890625 0-12.5-5.609375-12.5-12.5v-25.5c0-2.207031 1.792969-4 4-4h17c2.210938 0 4 1.792969 4 4v25.5c0 6.890625-5.605468 12.5-12.5 12.5zm-4.5-34v21.5c0 2.480469 2.023438 4.5 4.5 4.5 2.480469 0 4.5-2.019531 4.5-4.5v-21.5zm0 0" fill="#3762cc"/><path d="m243.167969 20c0 8.835938-7.164063 16-16 16-8.835938 0-16-7.164062-16-16s7.164062-16 16-16c8.835937 0 16 7.164062 16 16zm0 0" fill="#6bdddd"/><path d="m440.21875 214.191406c0 8.835938-7.164062 16-16 16s-16-7.164062-16-16c0-8.835937 7.164062-16 16-16s16 7.164063 16 16zm0 0" fill="#4671c6"/><path d="m440.21875 113.074219c0 8.839843-7.164062 16-16 16s-16-7.160157-16-16c0-8.835938 7.164062-16 16-16s16 7.164062 16 16zm0 0" fill="#6bdddd"/><path d="m440.21875 372.589844c0 8.835937-7.164062 16-16 16s-16-7.164063-16-16c0-8.835938 7.164062-16 16-16s16 7.164062 16 16zm0 0" fill="#4671c6"/><path d="m440.21875 271.992188c0 8.835937-7.164062 16-16 16s-16-7.164063-16-16c0-8.835938 7.164062-16 16-16s16 7.164062 16 16zm0 0" fill="#6bdddd"/><path d="m344.050781 20c0 8.835938-7.164062 16-16 16-8.835937 0-16-7.164062-16-16s7.164063-16 16-16c8.835938 0 16 7.164062 16 16zm0 0" fill="#4671c6"/><path d="m243.167969 467.832031c0 8.835938-7.164063 16-16 16-8.835938 0-16-7.164062-16-16 0-8.835937 7.164062-16 16-16 8.835937 0 16 7.164063 16 16zm0 0" fill="#4671c6"/><path d="m344.050781 467.832031c0 8.835938-7.164062 16-16 16-8.835937 0-16-7.164062-16-16 0-8.835937 7.164063-16 16-16 8.835938 0 16 7.164063 16 16zm0 0" fill="#6bdddd"/><g fill="#3762cc"><path d="m227.167969 40c-11.027344 0-20-8.972656-20-20s8.972656-20 20-20c11.027343 0 20 8.972656 20 20s-8.972657 20-20 20zm0-32c-6.617188 0-12 5.382812-12 12s5.382812 12 12 12c6.617187 0 12-5.382812 12-12s-5.382813-12-12-12zm0 0"/><path d="m424.21875 234.191406c-11.027344 0-20-8.972656-20-20s8.972656-20 20-20 20 8.972656 20 20-8.972656 20-20 20zm0-32c-6.617188 0-12 5.382813-12 12 0 6.617188 5.382812 12 12 12s12-5.382812 12-12c0-6.617187-5.382812-12-12-12zm0 0"/><path d="m424.21875 133.074219c-11.027344 0-20-8.96875-20-20 0-11.027344 8.972656-20 20-20s20 8.972656 20 20c0 11.03125-8.972656 20-20 20zm0-32c-6.617188 0-12 5.382812-12 12 0 6.621093 5.382812 12 12 12s12-5.378907 12-12c0-6.617188-5.382812-12-12-12zm0 0"/><path d="m424.21875 392.589844c-11.027344 0-20-8.972656-20-20 0-11.03125 8.972656-20 20-20s20 8.96875 20 20c0 11.027344-8.972656 20-20 20zm0-32c-6.617188 0-12 5.378906-12 12 0 6.617187 5.382812 12 12 12s12-5.382813 12-12c0-6.621094-5.382812-12-12-12zm0 0"/><path d="m424.21875 291.992188c-11.027344 0-20-8.96875-20-20 0-11.027344 8.972656-20 20-20s20 8.972656 20 20c0 11.03125-8.972656 20-20 20zm0-32c-6.617188 0-12 5.382812-12 12 0 6.621093 5.382812 12 12 12s12-5.378907 12-12c0-6.617188-5.382812-12-12-12zm0 0"/><path d="m328.050781 40c-11.027343 0-20-8.972656-20-20s8.972657-20 20-20c11.027344 0 20 8.972656 20 20s-8.972656 20-20 20zm0-32c-6.617187 0-12 5.382812-12 12s5.382813 12 12 12c6.617188 0 12-5.382812 12-12s-5.382812-12-12-12zm0 0"/><path d="m227.167969 487.832031c-11.027344 0-20-8.972656-20-20 0-11.027343 8.972656-20 20-20 11.027343 0 20 8.972657 20 20 0 11.027344-8.972657 20-20 20zm0-32c-6.617188 0-12 5.382813-12 12 0 6.617188 5.382812 12 12 12 6.617187 0 12-5.382812 12-12 0-6.617187-5.382813-12-12-12zm0 0"/><path d="m328.050781 487.832031c-11.027343 0-20-8.972656-20-20 0-11.027343 8.972657-20 20-20 11.027344 0 20 8.972657 20 20 0 11.027344-8.972656 20-20 20zm0-32c-6.617187 0-12 5.382813-12 12 0 6.617188 5.382813 12 12 12 6.617188 0 12-5.382812 12-12 0-6.617187-5.382812-12-12-12zm0 0"/><path d="m51.886719 260.203125c-9.945313 0-19.527344-3.328125-27.433594-9.601563-1.726563-1.375-2.015625-3.890624-.644531-5.621093 1.378906-1.734375 3.890625-2.019531 5.625-.644531 7.578125 6.023437 17.054687 8.734374 26.671875 7.625 9.621093-1.101563 18.234375-5.886719 24.257812-13.46875 6.019531-7.585938 8.730469-17.054688 7.625-26.675782s-5.886719-18.234375-13.46875-24.253906c-1.730469-1.375-2.019531-3.890625-.644531-5.621094 1.375-1.730468 3.886719-2.015625 5.621094-.644531 9.257812 7.347656 15.097656 17.863281 16.441406 29.605469 1.347656 11.746094-1.957031 23.308594-9.308594 32.5625-7.351562 9.257812-17.863281 15.097656-29.609375 16.445312-1.71875.195313-3.429687.292969-5.132812.292969zm0 0"/><path d="m126.867188 392.589844c-.566407 0-1.136719-.121094-1.683594-.371094-2.003906-.929688-2.875-3.308594-1.945313-5.3125 4.074219-8.785156 4.480469-18.628906 1.148438-27.71875s-10.003907-16.339844-18.789063-20.414062c-8.785156-4.074219-18.625-4.480469-27.71875-1.152344-9.09375 3.332031-16.34375 10.003906-20.414062 18.789062-.929688 2-3.320313 2.875-5.3125 1.945313-2.003906-.925781-2.875-3.304688-1.945313-5.3125 4.96875-10.722657 13.820313-18.867188 24.917969-22.933594s23.117188-3.566406 33.839844 1.40625c10.722656 4.96875 18.871094 13.820313 22.933594 24.917969 4.066406 11.097656 3.570312 23.117187-1.402344 33.839844-.675782 1.457031-2.121094 2.316406-3.628906 2.316406zm0 0"/><path d="m188.367188 350.492188c-24.335938 0-44.171876-19.757813-44.246094-44.113282-.074219-24.398437 19.710937-44.308594 44.113281-44.386718h.011719c2.203125 0 3.992187 1.785156 4 3.988281.007812 2.210937-1.78125 4.007812-3.988282 4.011719-19.984374.0625-36.199218 16.375-36.136718 36.363281.0625 19.949219 16.3125 36.136719 36.25 36.136719h.125c2.203125 0 3.992187 1.785156 4 3.988281.007812 2.210937-1.78125 4.003906-3.988282 4.011719-.046874 0-.09375 0-.140624 0zm0 0"/><path d="m149.402344 102.582031c-13.457032 0-26.03125-8.511719-30.535156-21.957031-.703126-2.09375.425781-4.363281 2.519531-5.066406 2.101562-.703125 4.367187.429687 5.066406 2.523437 4.234375 12.636719 17.960937 19.484375 30.601563 15.242188 6.125-2.046875 11.082031-6.363281 13.960937-12.140625 2.875-5.78125 3.332031-12.335938 1.28125-18.460938-.699219-2.09375.429687-4.359375 2.523437-5.0625 2.101563-.703125 4.363282.429688 5.0625 2.523438 2.730469 8.144531 2.125 16.871094-1.707031 24.5625-3.832031 7.695312-10.429687 13.433594-18.578125 16.164062-3.378906 1.132813-6.816406 1.671875-10.195312 1.671875zm0 0"/><path d="m92.230469 216.628906c-2.167969 0-3.949219-1.734375-3.996094-3.914062-.253906-11.816406 4.109375-23.023438 12.285156-31.5625 8.171875-8.535156 19.183594-13.375 31-13.632813 24.496094-.546875 44.667969 18.890625 45.199219 43.28125.046875 2.210938-1.707031 4.039063-3.914062 4.085938-2.191407.078125-4.039063-1.703125-4.085938-3.910157-.425781-19.71875-16.605469-35.464843-36.230469-35.464843-.265625 0-.53125 0-.792969.007812-9.679687.207031-18.703124 4.175781-25.398437 11.167969s-10.269531 16.175781-10.058594 25.855469c.046875 2.207031-1.707031 4.035156-3.914062 4.085937-.035157 0-.0625 0-.09375 0zm0 0"/></g><path d="m227.167969 36c-2.125 0-4.144531-.421875-6-1.175781v73.011719h12v-73.011719c-1.855469.75-3.875 1.175781-6 1.175781zm0 0" fill="#e0ebfc"/><path d="m408.21875 214.191406c0-2.125.421875-4.144531 1.171875-6h-73.171875v12h73.171875c-.75-1.851562-1.171875-3.875-1.171875-6zm0 0" fill="#e0ebfc"/><path d="m411.488281 122.742188-16.480469 27.714843h-58.789062v12h62.199219c2.117187 0 4.074219-1.113281 5.15625-2.929687l18.230469-30.652344c-4.199219-.636719-7.855469-2.898438-10.316407-6.132812zm0 0" fill="#e0ebfc"/><path d="m411.304688 367.164062c-.0625 0-.125 0-.1875-.003906-1.34375-.0625-2.5625-.792968-3.25-1.949218l-15.136719-25.453126h-56.511719c-2.207031 0-4-1.792968-4-4v-12c0-2.210937 1.792969-4 4-4h62.199219c3.511719 0 6.804687 1.871094 8.597656 4.890626l17.925781 30.144531c.675782 1.132812.746094 2.523437.195313 3.71875-.550781 1.195312-1.65625 2.042969-2.957031 2.265625-3.074219.527344-5.792969 2.214844-7.644532 4.75-.757812 1.03125-1.957031 1.636718-3.230468 1.636718zm-71.085938-35.40625h54.789062c1.40625 0 2.714844.742188 3.4375 1.953126l13.660157 22.976562c1.066406-.8125 2.207031-1.511719 3.410156-2.09375l-15.378906-25.859375c-.359375-.605469-1.015625-.976563-1.714844-.976563h-58.203125zm0 0" fill="#3762cc"/><path d="m408.21875 271.992188c0-2.125.421875-4.144532 1.171875-6h-73.171875v12h73.171875c-.75-1.855469-1.171875-3.875-1.171875-6zm0 0" fill="#e0ebfc"/><path d="m312.296875 22.714844-30.144531 17.925781c-1.816406 1.082031-2.933594 3.042969-2.933594 5.160156v62.03125h12v-58.621093l27.410156-16.300782c-3.285156-2.402344-5.613281-6.019531-6.332031-10.195312zm0 0" fill="#e0ebfc"/><path d="m227.167969 451.832031c2.125 0 4.144531.421875 6 1.175781v-73.175781h-12v73.175781c1.855469-.75 3.875-1.175781 6-1.175781zm0 0" fill="#e0ebfc"/><path d="m318.628906 454.921875-27.410156-16.300781v-58.789063h-12v62.199219c0 2.117188 1.117188 4.078125 2.933594 5.160156l30.148437 17.925782c.714844-4.175782 3.042969-7.792969 6.328125-10.195313zm0 0" fill="#e0ebfc"/><path d="m233.167969 111.832031h-12c-2.207031 0-4-1.792969-4-4v-73.007812c0-1.328125.660156-2.570313 1.765625-3.316407 1.105468-.742187 2.503906-.890624 3.738281-.390624 2.886719 1.167968 6.117187 1.167968 8.992187 0 1.230469-.5 2.636719-.351563 3.738282.390624 1.105468.746094 1.765625 1.984376 1.765625 3.316407v73.011719c0 2.207031-1.792969 3.996093-4 3.996093zm-8-8h4v-63.933593c-1.324219.132812-2.675781.132812-4 0zm0 0" fill="#3762cc"/><path d="m409.390625 224.191406h-73.171875c-2.207031 0-4-1.792968-4-4v-12c0-2.207031 1.792969-4 4-4h73.171875c1.332031 0 2.574219.664063 3.320313 1.765625.742187 1.105469.886718 2.503907.386718 3.738281-.582031 1.441407-.878906 2.957032-.878906 4.5 0 1.539063.296875 3.054688.878906 4.496094.5 1.234375.355469 2.632813-.386718 3.738282-.746094 1.101562-1.988282 1.761718-3.320313 1.761718zm-69.171875-8h64.097656c-.0625-.660156-.097656-1.328125-.097656-2s.035156-1.335937.097656-2h-64.097656zm0 0" fill="#3762cc"/><path d="m398.417969 166.457031h-62.199219c-2.207031 0-4-1.792969-4-4v-12c0-2.207031 1.792969-4 4-4h56.511719l15.320312-25.761719c.679688-1.140624 1.882813-1.875 3.210938-1.949218 1.363281-.082032 2.609375.519531 3.410156 1.574218 1.898437 2.496094 4.644531 4.128907 7.730469 4.597657 1.316406.199219 2.449218 1.042969 3.015625 2.246093.570312 1.203126.503906 2.609376-.179688 3.753907l-18.226562 30.652343c-1.789063 3.015626-5.082031 4.886719-8.59375 4.886719zm-58.199219-8h58.199219c.703125 0 1.359375-.371093 1.714843-.976562l15.636719-26.289063c-1.210937-.5625-2.363281-1.25-3.4375-2.046875l-13.890625 23.359375c-.71875 1.210938-2.027344 1.953125-3.4375 1.953125h-54.785156zm0 0" fill="#3762cc"/><path d="m409.390625 281.992188h-73.171875c-2.207031 0-4-1.789063-4-4v-12c0-2.207032 1.792969-4 4-4h73.171875c1.332031 0 2.574219.664062 3.320313 1.769531.742187 1.101562.886718 2.503906.386718 3.734375-.582031 1.445312-.878906 2.957031-.878906 4.5 0 1.542968.296875 3.054687.878906 4.496094.5 1.234374.355469 2.636718-.386718 3.738281-.746094 1.101562-1.988282 1.761719-3.320313 1.761719zm-69.171875-8h64.097656c-.0625-.660157-.097656-1.328126-.097656-2 0-.667969.035156-1.335938.097656-2h-64.097656zm0 0" fill="#3762cc"/><path d="m291.21875 111.832031h-12c-2.207031 0-4-1.792969-4-4v-62.03125c0-3.507812 1.875-6.800781 4.886719-8.59375l30.148437-17.929687c1.132813-.671875 2.527344-.746094 3.71875-.191406 1.199219.550781 2.042969 1.65625 2.265625 2.957031.527344 3.074219 2.210938 5.785156 4.75 7.640625 1.082031.792968 1.699219 2.078125 1.632813 3.417968-.0625 1.34375-.796875 2.5625-1.949219 3.25l-25.457031 15.136719v56.347657c.003906 2.207031-1.785156 3.996093-3.996094 3.996093zm-8-8h4v-54.621093c0-1.410157.742188-2.714844 1.957031-3.4375l22.96875-13.664063c-.808593-1.0625-1.511719-2.203125-2.09375-3.40625l-25.855469 15.375c-.601562.359375-.976562 1.019531-.976562 1.71875zm0 0" fill="#3762cc"/><path d="m233.167969 457.007812c-.507813 0-1.019531-.097656-1.503907-.292968-2.882812-1.167969-6.109374-1.167969-8.992187 0-1.234375.5-2.632813.351562-3.738281-.390625-1.105469-.746094-1.765625-1.988281-1.765625-3.316407v-73.175781c0-2.207031 1.792969-4 4-4h12c2.207031 0 4 1.792969 4 4v73.175781c0 1.328126-.660157 2.570313-1.765625 3.316407-.671875.453125-1.449219.683593-2.234375.683593zm-6-9.175781c.671875 0 1.339843.035157 2 .101563v-64.101563h-4v64.101563c.660156-.066406 1.328125-.101563 2-.101563zm0 0" fill="#3762cc"/><path d="m312.296875 469.117188c-.707031 0-1.414063-.1875-2.042969-.5625l-30.144531-17.925782c-3.015625-1.792968-4.890625-5.089844-4.890625-8.59375v-62.199218c0-2.210938 1.792969-4 4-4h12c2.210938 0 4 1.789062 4 4v56.511718l25.457031 15.136719c1.152344.6875 1.886719 1.90625 1.953125 3.25.0625 1.339844-.550781 2.625-1.636718 3.417969-2.535157 1.855468-4.21875 4.570312-4.746094 7.640625-.222656 1.300781-1.070313 2.40625-2.269532 2.960937-.535156.242188-1.109374.363282-1.679687.363282zm-29.078125-85.285157v58.199219c0 .703125.375 1.359375.976562 1.722656l25.855469 15.375c.582031-1.203125 1.285157-2.34375 2.097657-3.410156l-22.972657-13.664062c-1.214843-.71875-1.957031-2.027344-1.957031-3.4375v-54.789063h-4zm0 0" fill="#3762cc"/></svg>