<svg height="492pt" viewBox="-10 0 492 492" width="492pt" xmlns="http://www.w3.org/2000/svg" xmlns:xlink="http://www.w3.org/1999/xlink"><linearGradient id="lg1"><stop offset=".322" stop-color="#a163f5"/><stop offset=".466" stop-color="#b074ee"/><stop offset=".752" stop-color="#d8a1dd"/><stop offset=".898" stop-color="#efbad3"/></linearGradient><linearGradient id="linear0" gradientUnits="userSpaceOnUse" x1="219.578216" x2="219.578216" xlink:href="#lg1" y1="479.998001" y2="16.270001"/><linearGradient id="linear1" gradientUnits="userSpaceOnUse" x1="219.599216" x2="219.599216" xlink:href="#lg1" y1="479.998001" y2="16.270001"/><linearGradient id="linear3" gradientUnits="userSpaceOnUse" x1="415.145216" x2="415.145216" xlink:href="#lg1" y1="479.998001" y2="16.270001"/><linearGradient id="linear4" gradientUnits="userSpaceOnUse" x1="39.495216" x2="39.495216" xlink:href="#lg1" y1="479.998001" y2="16.270001"/><linearGradient id="linear5" gradientUnits="userSpaceOnUse" x1="62.004216" x2="62.004216" xlink:href="#lg1" y1="479.998001" y2="16.270001"/><linearGradient id="linear6" gradientUnits="userSpaceOnUse" x1="375.616216" x2="375.616216" xlink:href="#lg1" y1="479.998001" y2="16.270001"/><linearGradient id="linear7" gradientUnits="userSpaceOnUse" x1="61.999216" x2="61.999216" xlink:href="#lg1" y1="479.998001" y2="16.270001"/><linearGradient id="linear8" gradientUnits="userSpaceOnUse" x1="365.657216" x2="365.657216" xlink:href="#lg1" y1="479.998001" y2="16.270001"/><linearGradient id="linear10" gradientUnits="userSpaceOnUse" x1="208.327216" x2="208.327216" xlink:href="#lg1" y1="479.998001" y2="16.270001"/><linearGradient id="linear11" gradientUnits="userSpaceOnUse" x1="245.615216" x2="245.615216" xlink:href="#lg1" y1="479.998001" y2="16.270001"/><path d="m219.578125 98.40625c-72.234375 0-131 58.769531-131 131 0 72.234375 58.765625 131 131 131s131-58.765625 131-131c0-72.230469-58.761719-131-131-131zm0 250c-65.722656 0-119-53.277344-119-119 0-65.71875 53.277344-119 119-119s119 53.28125 119 119c-.074219 65.691406-53.308594 118.925781-119 119zm0 0" fill="url(#linear0)"/><path d="m225.613281 447.632812v-61.5625c0-3.3125-2.683593-6-6-6-3.3125 0-6 2.6875-6 6v61.5625c-9.898437 2.554688-16.761719 11.550782-16.605469 21.773438 0 12.480469 10.113282 22.59375 22.589844 22.59375 12.480469 0 22.59375-10.113281 22.59375-22.59375.167969-10.214844-6.683594-19.21875-16.578125-21.773438zm-6.035156 32.363282c-5.847656 0-10.589844-4.738282-10.589844-10.589844 0-5.847656 4.742188-10.589844 10.589844-10.589844s10.589844 4.742188 10.589844 10.589844c-.003907 5.847656-4.742188 10.585938-10.589844 10.589844zm0 0" fill="url(#linear1)"/><path d="m213.613281 44.363281v28.378907c0 3.316406 2.6875 6 6 6 3.316407 0 6-2.683594 6-6v-28.378907c9.894531-2.558593 16.746094-11.558593 16.574219-21.773437 0-12.476563-10.113281-22.589844-22.589844-22.589844-12.472656 0-22.585937 10.113281-22.585937 22.589844-.160157 10.21875 6.703125 19.21875 16.601562 21.773437zm5.964844-32.367187c5.847656 0 10.589844 4.742187 10.589844 10.59375 0 5.847656-4.742188 10.589844-10.589844 10.589844s-10.589844-4.742188-10.589844-10.589844c.003907-5.847656 4.742188-10.585938 10.589844-10.59375zm0 0" fill="url(#linear1)"/><path d="m448.515625 206.613281c-10.046875.144531-18.847656 6.769531-21.769531 16.382813h-61.5625c-3.316406 0-6 2.6875-6 6 0 3.316406 2.683594 6 6 6h61.5625c2.527344 9.941406 11.511718 16.875 21.769531 16.800781 12.476563 0 22.589844-10.113281 22.589844-22.589844 0-12.476562-10.113281-22.589843-22.589844-22.589843zm0 33.382813c-5.847656 0-10.589844-4.738282-10.589844-10.589844 0-5.847656 4.742188-10.589844 10.589844-10.589844s10.589844 4.742188 10.589844 10.589844c-.003907 5.847656-4.742188 10.585938-10.589844 10.589844zm0 0" fill="url(#linear3)"/><path d="m44.484375 234.996094h28.382813c3.316406 0 6-2.683594 6-6 0-3.3125-2.683594-6-6-6h-28.382813c-2.921875-9.613282-11.722656-16.238282-21.769531-16.382813-8.097656-.054687-15.601563 4.234375-19.667969 11.238281-4.0625 7.003907-4.0625 15.648438 0 22.652344 4.066406 7.003906 11.570313 11.292969 19.667969 11.238282 10.246094.09375 19.234375-6.816407 21.769531-16.746094zm-32.363281-5.589844c0-5.847656 4.742187-10.585938 10.589844-10.589844 5.847656 0 10.589843 4.742188 10.589843 10.589844.003907 5.847656-4.738281 10.589844-10.585937 10.589844s-10.585938-4.742188-10.59375-10.589844zm0 0" fill="url(#linear4)"/><path d="m13.796875 50.597656c7.1875 7.183594 18.289063 8.679688 27.117187 3.652344l65.664063 65.664062c1.507813 1.550782 3.734375 2.167969 5.828125 1.617188 2.089844-.550781 3.722656-2.183594 4.273438-4.277344.550781-2.089844-.066407-4.316406-1.617188-5.824218l-65.660156-65.65625c5.773437-10.167969 2.832031-23.058594-6.777344-29.714844s-22.710938-4.882813-30.203125 4.09375c-7.488281 8.972656-6.894531 22.183594 1.375 30.445312zm8.484375-23.460937c4.136719-4.136719 10.84375-4.136719 14.976562 0 4.136719 4.132812 4.136719 10.839843 0 14.976562-4.132812 4.132813-10.839843 4.132813-14.976562-.003906-4.128906-4.136719-4.128906-10.835937 0-14.972656zm0 0" fill="url(#linear5)"/><path d="m401.027344 352.921875c-7.183594-7.191406-18.289063-8.691406-27.121094-3.664063l-20.074219-20.074218c-2.34375-2.34375-6.144531-2.34375-8.488281 0s-2.34375 6.144531 0 8.488281l20.085938 20.082031c-5.765626 10.164063-2.820313 23.046875 6.785156 29.695313 9.605468 6.652343 22.703125 4.875 30.1875-4.09375 7.484375-8.972657 6.890625-22.175781-1.375-30.433594zm-8.484375 23.460937c-4.136719 4.132813-10.839844 4.132813-14.976563 0-4.136718-4.136718-4.136718-10.84375 0-14.976562 4.136719-4.136719 10.839844-4.136719 14.976563 0 4.136719 4.132812 4.136719 10.839844 0 14.976562zm0 0" fill="url(#linear6)"/><path d="m95.515625 338.902344-43.535156 43.535156c-10.167969-5.765625-23.054688-2.828125-29.710938 6.78125s-4.882812 22.707031 4.089844 30.199219c8.972656 7.488281 22.179687 6.894531 30.445313-1.371094 7.191406-7.183594 8.6875-18.289063 3.660156-27.121094l43.535156-43.535156c1.535156-1.511719 2.144531-3.734375 1.589844-5.816406-.550782-2.082031-2.179688-3.710938-4.261719-4.261719s-4.300781.054688-5.8125 1.589844zm-47.199219 70.65625c-3.574218 3.574218-9.167968 4.125-13.371094 1.320312-4.199218-2.804687-5.832031-8.1875-3.902343-12.855468 1.933593-4.667969 6.894531-7.320313 11.847656-6.335938s8.523437 5.332031 8.523437 10.382812c.007813 2.8125-1.105468 5.507813-3.097656 7.492188zm0 0" fill="url(#linear7)"/><path d="m339.636719 131.390625c1.589843 0 3.117187-.632813 4.242187-1.757813l20.074219-20.074218c9.832031 5.601562 22.292969 3.066406 29.160156-5.929688 6.867188-8.992187 6.027344-21.679687-1.96875-29.691406-7.996093-8.007812-20.679687-8.875-29.6875-2.023438-9.011719 6.851563-11.566406 19.304688-5.984375 29.148438l-20.082031 20.082031c-1.714844 1.71875-2.226563 4.296875-1.300781 6.539063.929687 2.242187 3.117187 3.707031 5.546875 3.707031zm27.976562-48.957031c4.136719-4.132813 10.84375-4.132813 14.980469 0 4.132812 4.136718 4.132812 10.84375 0 14.976562-4.136719 4.136719-10.84375 4.136719-14.980469 0-2-1.976562-3.128906-4.671875-3.128906-7.488281 0-2.8125 1.128906-5.507813 3.128906-7.488281zm0 0" fill="url(#linear8)"/><path d="m228.507812 138.851562c-50.011718-4.929687-94.550781 31.613282-99.484374 81.625-4.929688 50.015626 31.613281 94.554688 81.625 99.488282 3.023437.296875 6.023437.445312 9 .441406 48.480468-.070312 88.394531-38.136719 90.757812-86.5625 2.363281-48.421875-33.652344-90.195312-81.894531-94.992188zm69.683594 98.308594c-4.28125 43.417969-42.945312 75.144532-86.363281 70.863282s-75.144531-42.945313-70.863281-86.363282c4.28125-43.417968 42.949218-75.144531 86.367187-70.863281 43.382813 4.339844 75.078125 42.964844 70.859375 86.363281zm0 0" fill="url(#linear0)"/><path d="m215.84375 195.320312c-.8125-2.699218-4.140625-3.957031-7.5625-3.957031-3.328125 0-6.65625 1.257813-7.46875 3.957031l-17.371094 56.609376c-.085937.296874-.144531.597656-.179687.902343 0 2.878907 4.230469 4.859375 7.382812 4.859375 1.980469 0 3.507813-.820312 3.957031-2.53125l3.421876-12.164062h20.609374l3.417969 12.164062c.453125 1.707032 1.980469 2.433594 3.960938 2.433594 3.148437 0 7.378906-2.023438 7.378906-4.8125-.023437-.296875-.085937-.589844-.179687-.875zm-15.390625 38.675782 7.828125-27.628906 7.832031 27.628906zm0 0" fill="url(#linear10)"/><path d="m245.613281 191.902344c-2.96875 0-6 1.078125-6 3.601562v58.492188c0 2.433594 3.03125 3.691406 6 3.691406 2.882813 0 6-1.257812 6-3.691406v-58.5c0-2.515625-3.117187-3.59375-6-3.59375zm0 0" fill="url(#linear11)"/></svg>