<svg xmlns="http://www.w3.org/2000/svg" viewBox="0 0 64 64"><rect width="25" height="4" x="32" y="25" fill="#e6e7e8"/><rect width="17.14" height="4" x="32" y="35" fill="#e6e7e8"/><path fill="#e6e7e8" d="M48 18.5H32v-4H46V6h4V16.5A2 2 0 0 1 48 18.5zM50 57H46V48.5H32v-4H48a2 2 0 0 1 2 2z"/><path fill="#ee161f" d="M32,5.53V58.47A7,7,0,0,1,19.06,54.9a4.79,4.79,0,0,1,.1-1.07,6.63,6.63,0,0,1-1.1.08,10,10,0,0,1-10-10,9.73,9.73,0,0,1,1.18-4.68A6,6,0,0,1,12.09,28a9.94,9.94,0,0,1,7.66-15.91,6.69,6.69,0,0,1-.69-3A7,7,0,0,1,32,5.53Z"/><circle cx="48" cy="5" r="3" fill="#00459a"/><circle cx="47.5" cy="57.5" r="3.5" fill="#bedcff"/><circle cx="57.5" cy="26.5" r="3.5" fill="#4d9118"/><circle cx="49" cy="36" r="3" fill="#fbcb00"/></svg>