<svg xmlns="http://www.w3.org/2000/svg" enable-background="new 0 0 24 24" viewBox="0 0 24 24"><path fill="#FCC34A" d="M12 6.5c1.026 0 1.992.244 2.855.667C14.944 7.077 15 6.953 15 6.815V5.5C15 4.673 14.327 4 13.5 4h-3C9.673 4 9 4.673 9 5.5v1.315c0 .138.056.262.145.352C10.008 6.744 10.974 6.5 12 6.5zM6.164 9.871c.03.03.067.047.102.068C6.763 9.01 7.478 8.216 8.344 7.626 8.329 7.606 8.32 7.582 8.302 7.563l-.39-.39c-.592-.594-1.631-.594-2.223 0-.612.613-.612 1.61 0 2.223L6.164 9.871z"/><path fill="#110638" d="M12,18c-2.757,0-5-2.243-5-5s2.243-5,5-5s5,2.243,5,5S14.757,18,12,18z M12,9c-2.206,0-4,1.794-4,4s1.794,4,4,4s4-1.794,4-4S14.206,9,12,9z"/><path fill="#110638" d="M12,13.5c-0.078,0-0.157-0.019-0.229-0.056C11.604,13.358,11.5,13.187,11.5,13V8.5C11.5,8.224,11.724,8,12,8c0.115,0,2.825,0.026,3.941,2.307c0.107,0.22,0.04,0.486-0.16,0.628l-3.492,2.474C12.203,13.469,12.102,13.5,12,13.5z M12.5,9.052v2.981l2.329-1.65C14.188,9.464,13.125,9.156,12.5,9.052z"/><path fill="#110638" d="M21.5,24h-19C1.121,24,0,22.878,0,21.5v-19C0,1.122,1.121,0,2.5,0h19C22.879,0,24,1.122,24,2.5v19C24,22.878,22.879,24,21.5,24z M2.5,1C1.673,1,1,1.673,1,2.5v19C1,22.327,1.673,23,2.5,23h19c0.827,0,1.5-0.673,1.5-1.5v-19C23,1.673,22.327,1,21.5,1H2.5z"/><path fill="#110638" d="M12,20c-3.859,0-7-3.14-7-7s3.141-7,7-7s7,3.14,7,7S15.859,20,12,20z M12,7c-3.309,0-6,2.691-6,6s2.691,6,6,6s6-2.691,6-6S15.309,7,12,7z"/></svg>