<svg xmlns="http://www.w3.org/2000/svg" enable-background="new 0 0 28 28" viewBox="0 0 28 28"><path fill="#DEFF8F" d="M13.995,3.058c0,0-5.359,1.864-8.991,3.127s-1.52,9.969-1.125,13.285c0.395,3.316,10.116,6.03,10.116,6.03l7.624-4.012c0,0,3.044-10.653,3.328-12.642C25.231,6.856,13.995,3.058,13.995,3.058z M16.82,20.5l-2.104-3.769l-2.832,0.324l-2.023,3.883L6.788,20.5l7.143-15.83L20.5,20.938L16.82,20.5z"/><path d="M14,26c-0.08,0-0.16-0.019-0.233-0.058l-9.5-5c-0.142-0.075-0.239-0.213-0.262-0.372l-2-14C1.971,6.334,2.11,6.106,2.336,6.028l11.5-4c0.106-0.037,0.222-0.037,0.328,0l11.5,4c0.226,0.079,0.365,0.306,0.331,0.543l-2,14c-0.023,0.159-0.12,0.297-0.262,0.372l-9.5,5C14.16,25.981,14.08,26,14,26z M4.959,20.176L14,24.935l9.041-4.759l1.906-13.339L14,3.029L3.053,6.837L4.959,20.176z"/><path d="M20.5,21h-3c-0.208,0-0.395-0.129-0.468-0.324L15.653,17h-3.307l-1.378,3.676C10.895,20.871,10.708,21,10.5,21H7.53c-0.166,0-0.322-0.083-0.415-0.221c-0.093-0.138-0.111-0.312-0.049-0.467l6.47-16C13.613,4.124,13.796,4,14,4h0c0.204,0,0.387,0.123,0.463,0.312l6.5,16c0.062,0.154,0.044,0.329-0.049,0.467C20.822,20.917,20.667,21,20.5,21z M17.847,20h1.911L14.001,5.831L8.272,20h1.881l1.378-3.676C11.605,16.129,11.792,16,12,16h4c0.208,0,0.395,0.129,0.468,0.324L17.847,20z"/><path d="M15.541,15H12.5c-0.158,0-0.307-0.075-0.401-0.202c-0.094-0.126-0.123-0.291-0.078-0.442l1.5-5C13.584,9.146,13.778,9.001,13.998,9C13.999,9,14,9,14,9c0.219,0,0.413,0.143,0.478,0.353l1.541,5c0.046,0.152,0.019,0.317-0.076,0.444C15.849,14.925,15.7,15,15.541,15z M13.172,14h1.692l-0.857-2.781L13.172,14z"/></svg>