<svg xmlns="http://www.w3.org/2000/svg" data-name="Layer 1" viewBox="0 0 32 32"><defs><linearGradient id="a" x1="15.36" x2="15.34" y1="5.54" y2="28.54" gradientTransform="rotate(-.04 -1346.18 -773.963)" gradientUnits="userSpaceOnUse"><stop offset="0" stop-color="#fff" stop-opacity=".25"/><stop offset="1" stop-color="#f86c66" stop-opacity=".7"/></linearGradient></defs><path fill="url(#a)" d="M21.3,4.72a9,9,0,0,0-4.44.42,23,23,0,0,0-11.54,8,12.52,12.52,0,0,0-2.61,5.58,6.72,6.72,0,0,0,1.65,5.76A9.86,9.86,0,0,0,9.7,26.75a51.81,51.81,0,0,0,6.58.78,20.45,20.45,0,0,0,6.25-.41,9.16,9.16,0,0,0,5.19-3.32,9.19,9.19,0,0,0,1.21-7.26,16.35,16.35,0,0,0-1.54-4A20,20,0,0,1,25.7,9.43C25,7.2,23.78,5.25,21.3,4.72Z"/><path fill="#ff9d23" d="M13.29,3.09A.36.36,0,0,1,13,3a.35.35,0,0,1,0-.5l.8-.8a.35.35,0,0,1,.5,0l.72.71a.35.35,0,0,1,0,.5.36.36,0,0,1-.51,0l-.46-.46L13.54,3A.36.36,0,0,1,13.29,3.09Z"/><path fill="#9495fa" d="M30.13 23.75a.37.37 0 0 1-.26-.1.38.38 0 0 1 0-.51l.81-.8a.35.35 0 0 1 .5 0l.72.71a.36.36 0 0 1-.51.51l-.46-.47-.55.56A.35.35 0 0 1 30.13 23.75zM.36 14.83a.34.34 0 0 1-.25-.11.35.35 0 0 1 0-.5l1.07-1.08a.38.38 0 0 1 .51 0 .36.36 0 0 1 0 .51L.61 14.72A.36.36 0 0 1 .36 14.83z"/><path fill="#ff4b4d" d="M28.56,12a.35.35,0,0,1-.25-.1.36.36,0,0,1,0-.51l1.24-1.25a.36.36,0,1,1,.51.51l-1.25,1.25A.35.35,0,0,1,28.56,12Z"/><path fill="#0000db" d="M5.17,29.45a.38.38,0,0,1-.26-.11.35.35,0,0,1,0-.5l1.25-1.25a.36.36,0,0,1,.51,0,.35.35,0,0,1,0,.5L5.42,29.34A.36.36,0,0,1,5.17,29.45Z"/><path fill="#ff9d23" d="M21.58,30.43a.36.36,0,0,1-.25-.11.35.35,0,0,1,0-.5l1.25-1.25a.35.35,0,0,1,.5.5l-1.25,1.25A.36.36,0,0,1,21.58,30.43Z"/><path fill="#ff9d23" stroke="#0000db" stroke-linecap="round" stroke-linejoin="round" stroke-width=".66" d="M26.22,20.94a3,3,0,1,1-3-3A3,3,0,0,1,26.22,20.94Z"/><path fill="#fff" d="M23.19,23.19a2.25,2.25,0,1,1,2.25-2.25A2.26,2.26,0,0,1,23.19,23.19Z"/><circle cx="9.27" cy="20.94" r="3.03" fill="#ff9d23" stroke="#0000db" stroke-linecap="round" stroke-linejoin="round" stroke-width=".66"/><path fill="#fff" d="M9.27,23.19a2.25,2.25,0,1,1,2.25-2.25A2.25,2.25,0,0,1,9.27,23.19Z"/><path fill="#ff9d23" stroke="#0000db" stroke-linecap="round" stroke-linejoin="round" stroke-width=".66" d="M20.07,14a3.85,3.85,0,1,1-3.84-3.84A3.84,3.84,0,0,1,20.07,14Z"/><path fill="#fff" stroke="#0000db" stroke-linecap="round" stroke-linejoin="round" stroke-width=".66" d="M19,14a2.8,2.8,0,1,1-2.79-2.79A2.79,2.79,0,0,1,19,14Z"/><path fill="none" stroke="#0000db" stroke-linecap="round" stroke-linejoin="round" stroke-width=".5" d="M23.89,20.32a.74.74,0,0,0-1.32-.23.53.53,0,0,0,.21.77,1.31,1.31,0,0,0,.52.11.68.68,0,0,1,.53.36c.18.43-.25.8-.65.79a.67.67,0,0,1-.7-.61"/><line x1="23.19" x2="23.19" y1="22.44" y2="22.12" fill="none" stroke="#0000db" stroke-linecap="round" stroke-linejoin="round" stroke-width=".5"/><line x1="23.19" x2="23.19" y1="19.78" y2="19.45" fill="none" stroke="#0000db" stroke-linecap="round" stroke-linejoin="round" stroke-width=".5"/><line x1="19.93" x2="12.52" y1="7.12" y2="7.12" fill="none" stroke="#0000db" stroke-linecap="round" stroke-linejoin="round" stroke-width=".66"/><line x1="19.93" x2="12.52" y1="20.94" y2="20.94" fill="none" stroke="#0000db" stroke-linecap="round" stroke-linejoin="round" stroke-width=".66"/><line x1="9.27" x2="9.27" y1="17.69" y2="10.38" fill="none" stroke="#0000db" stroke-linecap="round" stroke-linejoin="round" stroke-width=".66"/><line x1="23.19" x2="23.19" y1="17.69" y2="10.38" fill="none" stroke="#0000db" stroke-linecap="round" stroke-linejoin="round" stroke-width=".66"/><line x1="20.87" x2="18.95" y1="18.65" y2="16.74" fill="none" stroke="#0000db" stroke-linecap="round" stroke-linejoin="round" stroke-width=".66"/><line x1="13.5" x2="11.58" y1="11.32" y2="9.41" fill="none" stroke="#0000db" stroke-linecap="round" stroke-linejoin="round" stroke-width=".66"/><line x1="20.87" x2="18.95" y1="9.41" y2="11.32" fill="none" stroke="#0000db" stroke-linecap="round" stroke-linejoin="round" stroke-width=".66"/><line x1="13.5" x2="11.58" y1="16.74" y2="18.65" fill="none" stroke="#0000db" stroke-linecap="round" stroke-linejoin="round" stroke-width=".66"/><path fill="#ff9d23" stroke="#0000db" stroke-linecap="round" stroke-linejoin="round" stroke-width=".66" d="M12.3,7.12a3,3,0,1,1-3-3A3,3,0,0,1,12.3,7.12Z"/><path fill="#fff" d="M9.27,9.37a2.25,2.25,0,1,1,2.25-2.25A2.25,2.25,0,0,1,9.27,9.37Z"/><polyline fill="none" stroke="#0000db" stroke-linecap="round" stroke-linejoin="round" stroke-width=".5" points="9.35 5.84 8.76 8.4 10.07 8.4"/><line x1="8.47" x2="9.71" y1="7.23" y2="6.49" fill="none" stroke="#0000db" stroke-linecap="round" stroke-linejoin="round" stroke-width=".5"/><path fill="#ff9d23" stroke="#0000db" stroke-linecap="round" stroke-linejoin="round" stroke-width=".66" d="M25.94,8.38a3,3,0,0,1-5.52,0H21.5V6.2l1.68,1.72,1.7-1.72V8.38Z"/><path fill="#fed3be" stroke="#0000db" stroke-linecap="round" stroke-linejoin="round" stroke-width=".66" d="M26.22,7.12a3,3,0,0,1-.28,1.26H24.88V6.2l-1.7,1.72L21.5,6.2V8.38H20.42a3.13,3.13,0,0,1-.27-1.26,3,3,0,0,1,6.07,0Z"/><polygon fill="#ff9d23" stroke="#0000db" stroke-linecap="round" stroke-linejoin="round" stroke-width=".5" points="10.05 21.36 9.27 21.13 8.49 21.36 9.27 19.47 10.05 21.36"/><polygon fill="#ff9d23" stroke="#0000db" stroke-linecap="round" stroke-linejoin="round" stroke-width=".5" points="10.05 21.36 9.27 22.41 8.49 21.36 9.27 21.13 10.05 21.36"/><line x1="16.1" x2="16.1" y1="12.77" y2="12.35" fill="none" stroke="#0000db" stroke-linecap="round" stroke-linejoin="round" stroke-width=".5"/><line x1="16.1" x2="16.1" y1="15.71" y2="15.29" fill="none" stroke="#0000db" stroke-linecap="round" stroke-linejoin="round" stroke-width=".5"/><path fill="none" stroke="#0000db" stroke-linecap="round" stroke-linejoin="round" stroke-width=".5" d="M15.45,12.82a3,3,0,0,1,.58-.05,1,1,0,0,1,.68.18.52.52,0,0,1,.21.44.58.58,0,0,1-.42.54h0a.64.64,0,0,1,.51.62.7.7,0,0,1-.21.5,1.28,1.28,0,0,1-.86.23,4.49,4.49,0,0,1-.49,0Z"/><line x1="16.5" x2="15.45" y1="13.93" y2="13.93" fill="none" stroke="#0000db" stroke-linecap="round" stroke-linejoin="round" stroke-width=".5"/></svg>