<svg xmlns="http://www.w3.org/2000/svg" enable-background="new -223 25 512 512" viewBox="-223 25 512 512"><g display="none" opacity=".82"><line x1="-637" x2="-189" y1="331" y2="331" fill="none" stroke="gray"/><rect width="512" height="512" x="-669" y="75" fill="none" stroke="#aedee4"/><rect width="448" height="448" x="-637" y="107" fill="none" stroke="#aedee4"/><rect width="384" height="384" x="-605" y="139" fill="none" stroke="#00afd7"/><rect width="320" height="384" x="-573" y="139" fill="none" stroke="#00afd7"/><rect width="384" height="320" x="-605" y="171" fill="none" stroke="#00afd7"/><line x1="-413" x2="-413" y1="555" y2="107" fill="none" stroke="gray"/><path fill="none" stroke="#221f1f" stroke-linecap="round" stroke-linejoin="round" d="M-413,331"/></g><circle cx="33" cy="281" r="209.3" fill="#e6e6e6"/><rect width="376" height="24" x="-145" y="447.1" fill="#a3fff8"/><rect width="92" height="58" x="-6.5" y="225.9" fill="#ff7f11"/><path fill="#080447" d="M73.5,221.9v50h-84v-50H73.5 M81.5,213.9h-100v66h100V213.9L81.5,213.9z"/><rect width="192" height="33" x="-54.5" y="302.9" fill="#a3fff8"/><path fill="#080447" d="M123.5,296.9v25h-184v-25H123.5 M131.5,288.9h-200v41h200V288.9L131.5,288.9z"/><path fill="#ff7f11" d="M39.5,179.9c-19.9,0-36-16.1-36-36s16.1-36,36-36c19.9,0,36,16.1,36,36S59.3,179.9,39.5,179.9z"/><path fill="#080447" d="M33.5,105.9c17.6,0,32,14.4,32,32s-14.4,32-32,32s-32-14.4-32-32S15.8,105.9,33.5,105.9 M33.5,97.9
			c-22.1,0-40,17.9-40,40s17.9,40,40,40c22.1,0,40-17.9,40-40S55.5,97.9,33.5,97.9L33.5,97.9z"/><path fill="#080447" d="M35.4 141H17v-4h14.4c0-6.3-.2-21.3-.2-21.4l4 0c0 .8.2 19.5.2 23.5L35.4 141zM-114.7 292.1l-3.7 1.5c.1.2.2.5.2.7 1.1 4.3.4 22.3-.6 37.8-3.6-10.6-9.5-20-19.2-24l-5.2-2.1 2.7 4.9c.2.3 16.4 30.6 15 64h-1c-11 0-20 9-20 20l8.3 38.1h-20.3v32h384v-32h-17.4l10-66.1H189v8h19.8l-8.8 58h-39.1l-8.8-58H174v-8h-31.2l10 66.1h-21.4V321.9v-33h-200v144.1h-20.3l8.3-38.1c0-11-9-20-20-20h-3.2c-1.4-33.5 14.8-63.7 15-64l2.7-4.9-5.2 2.1c-6.8 2.8-11.8 8.2-15.3 14.9M-60.5 296.9h184v25h-74V361H49v8h.5v29H49v8h.5v26.9h-110V296.9zM57.5 398v-29h66v29H57.5zM123.5 406v26.9h-66V406H123.5zM57.5 361v-31.1h66V361H57.5zM-95.2 315c-4.8 10.7-13.6 34.1-12.6 60h-3.9c-.2-7.1-.2-26 5-41.5l.1 0c.1-.3.1-.6.2-1C-103.9 325.4-100.4 319.1-95.2 315zM-115.6 343.1c.4-4.7 1.6-21 1.8-34.1 2.2 8.4 4.1 17.5 3.4 22.4-2.2 6.4-3.6 13.2-4.4 19.7-.3-2.6-.7-5.3-1.3-8L-115.6 343.1zM-134.1 315c16.6 13.2 16.8 49.5 16.4 59.9h-3.9C-120.4 349.1-129.3 325.6-134.1 315zM-138.5 394.2c.4-6.3 5.6-11.2 12-11.2h26c6.4 0 11.6 5 12 11.2l-8.4 38.8h-33.1L-138.5 394.2zM217.5 457.1h-368v-16h368V457.1z"/></svg>