<svg xmlns="http://www.w3.org/2000/svg" enable-background="new 0 0 24 24" viewBox="0 0 24 24"><path fill="#6766DB" d="M12,19c-0.076,0-0.151-0.017-0.221-0.052L7.646,16.91c-0.151-0.074-0.254-0.219-0.275-0.385l-0.376-2.962c-0.018-0.143,0.026-0.286,0.121-0.394S7.348,13,7.491,13h2.488c0.241,0,0.447,0.172,0.491,0.409l0.237,1.271l1.347,0.761l1.728-0.781L14.136,12H7.242c-0.245,0-0.454-0.177-0.493-0.419l-0.329-2C6.383,9.357,6.501,9.137,6.708,9.044L10.14,7.5H6.165c-0.227,0-0.425-0.152-0.483-0.372l-0.665-2.5c-0.04-0.15-0.008-0.31,0.087-0.433S5.345,4,5.5,4h13c0.149,0,0.292,0.067,0.387,0.183c0.095,0.116,0.133,0.268,0.104,0.415l-0.498,2.5c-0.031,0.158-0.138,0.292-0.284,0.358L14.79,9h2.656c0.145,0,0.282,0.063,0.377,0.172c0.095,0.109,0.139,0.254,0.118,0.397l-0.975,6.987c-0.023,0.17-0.133,0.316-0.29,0.387l-4.472,2.013C12.14,18.985,12.07,19,12,19z"/><path fill="#110638" d="M12,24c-0.06,0-0.119-0.011-0.176-0.032l-8-3c-0.178-0.067-0.303-0.229-0.321-0.418l-2-20C1.488,0.409,1.534,0.269,1.629,0.165C1.724,0.06,1.858,0,2,0h20c0.142,0,0.276,0.06,0.371,0.165c0.095,0.104,0.141,0.245,0.126,0.385l-2,20c-0.019,0.189-0.144,0.352-0.321,0.418l-8,3C12.119,23.989,12.06,24,12,24z M4.467,20.141L12,22.966l7.533-2.825L21.447,1H2.553L4.467,20.141z"/></svg>