<svg xmlns="http://www.w3.org/2000/svg" viewBox="0 0 512 512"><rect width="70.38" height="145.73" x="99.72" y="252.06" fill="#ffcd3e" rx="35.19"/><rect width="70.38" height="219.41" x="180.45" y="178.38" rx="35.19"/><rect width="70.38" height="183.19" x="261.17" y="214.6" fill="#ffcd3e" rx="35.19"/><rect width="70.38" height="283.58" x="341.9" y="114.21" rx="35.19"/><path fill="#fff" d="M127,360.4A9,9,0,0,1,120.57,345l99.48-99.47a9,9,0,0,1,12.76,0l45,45L378.59,189.67a9,9,0,1,1,12.77,12.77L284.16,309.63a9,9,0,0,1-12.76,0l-45-45-93.09,93.09A9,9,0,0,1,127,360.4Z"/><path fill="#fff" d="M391,254a9,9,0,0,1-9-9V199.45H335.63a9,9,0,0,1,0-18.06H391a9,9,0,0,1,9,9V245A9,9,0,0,1,391,254Z"/></svg>