<svg xmlns="http://www.w3.org/2000/svg" enable-background="new 0 0 24 24" viewBox="0 0 24 24"><path fill="#FF7A55" d="M12.029,19.123c-0.045,0-0.147-0.006-0.191-0.019l-5.012-1.402c-0.202-0.057-0.347-0.233-0.364-0.442l-0.304-3.892c-0.011-0.139,0.037-0.276,0.131-0.378c0.095-0.103,0.228-0.161,0.367-0.161h2.422c0.259,0,0.475,0.197,0.498,0.455l0.146,1.611l2.25,0.617l2.262-0.617l0.22-2.303H6.529c-0.259,0-0.476-0.198-0.498-0.457l-0.65-7.475C5.369,4.521,5.416,4.383,5.51,4.279s0.229-0.162,0.369-0.162h12.243c0.141,0,0.274,0.059,0.369,0.163c0.095,0.104,0.142,0.242,0.129,0.382l-0.223,2.449c-0.023,0.257-0.239,0.455-0.498,0.455h-8.79l0.126,1.537h8.456c0.141,0,0.274,0.059,0.369,0.163c0.095,0.104,0.142,0.243,0.129,0.382l-0.691,7.619c-0.019,0.207-0.164,0.381-0.364,0.437l-4.871,1.358C12.194,19.101,12.114,19.123,12.029,19.123z"/><path fill="#110638" d="M11.975,24c-0.054,0-0.108-0.009-0.16-0.026l-7.952-2.68c-0.188-0.063-0.321-0.232-0.338-0.43L1.752,0.543C1.74,0.404,1.787,0.266,1.881,0.162S2.11,0,2.25,0h19.5c0.14,0,0.274,0.059,0.369,0.162s0.142,0.242,0.129,0.381l-1.772,20.32c-0.017,0.198-0.15,0.368-0.339,0.431l-8.003,2.68C12.082,23.991,12.028,24,11.975,24z M4.492,20.451l7.483,2.522l7.533-2.523L21.205,1H2.796L4.492,20.451z M19.978,20.82h0.01H19.978z"/></svg>