<svg xmlns="http://www.w3.org/2000/svg" enable-background="new 0 0 32 32" viewBox="0 0 32 32"><path fill="#F5E6FE" d="M26,32H6c-3.314,0-6-2.686-6-6V6c0-3.314,2.686-6,6-6h20c3.314,0,6,2.686,6,6v20C32,29.314,29.314,32,26,32z"/><path fill="#D9A4FC" d="M24 10.614c-.106-.129-.243-.302-.379-.477l-.041-.056v-.007c-.167-.227-.287-.193-.42-.16-.133.033-3.18.58-3.367.6-.187.033-.127.133-.047.24l2.667 3.668L24 14.043V10.614zM8.013 17.884l2.887-.694c.233-.053.173-.08.06-.287l-2.947-5.089V17.884z"/><path fill="#BE63F9" d="M10.133,24h4.794c-0.627-1.02-2.333-4.102-3.22-5.709H11.7v-0.007L8,19.251v2.621C8.004,23.048,8.957,24,10.133,24z"/><polygon fill="#BE63F9" points="24 16.517 24 15.056 23.1 15.303 23.167 15.396"/><path fill="#BE63F9" d="M21.44,14.656l-3.02-4.282c-0.253-0.354,0-0.514,0.413-0.58c0.4-0.073,3.894-0.66,4.2-0.7c0.247-0.04,0.453-0.12,0.8,0.2C23.514,8.534,22.76,8,21.88,8H10.133c-0.001,0-0.002,0-0.003,0C9.098,8,8.238,8.738,8.046,9.727l4.26,7.116L21.44,14.656z"/><path fill="#D9A4FC" d="M24,18.084l-1.707-2.334c-0.107-0.167-0.167-0.2-0.427-0.113l-8.907,2.321c0,0,2.734,4.735,2.94,5.035c0.213,0.307,0.34,0.28,0.507,0.213c0.12-0.053,5.2-1.774,7.594-2.581V18.084z"/><path fill="#BE63F9" d="M23.994,22.039l-5.46,1.954h3.347C23,23.993,23.914,23.126,23.994,22.039z"/></svg>