<svg xmlns="http://www.w3.org/2000/svg" data-name="Layer 1" viewBox="0 0 168 168"><path fill="#0bceb2" d="M114.50023,61.0192h-58a2,2,0,1,0,0,4h58a2,2,0,0,0,0-4Z"/><path fill="#2d4356" d="M56.50023,75.0192h44a2,2,0,0,0,0-4h-44a2,2,0,1,0,0,4Z"/><path fill="#0bceb2" d="M114.50023,81.0192h-58a2,2,0,1,0,0,4h58a2,2,0,0,0,0-4Z"/><path fill="#2d4356" d="M56.50023,95.0192h44a2,2,0,0,0,0-4h-44a2,2,0,1,0,0,4Z"/><path fill="#0bceb2" d="M114.50023,101.0192h-58a2,2,0,1,0,0,4h58a2,2,0,0,0,0-4Z"/><path fill="#2d4356" d="M56.50023,115.0192h44a2,2,0,0,0,0-4h-44a2,2,0,1,0,0,4Z"/><path fill="#0bceb2" d="M114.50023,121.0192h-58a2,2,0,1,0,0,4h58a2,2,0,0,0,0-4Z"/><path fill="#2d4356" d="M100.50023,131.0192h-44a2,2,0,0,0,0,4h44a2,2,0,0,0,0-4Z"/><path fill="#0bceb2" d="M114.50023,41.0192h-58a2,2,0,1,0,0,4h58a2,2,0,0,0,0-4Z"/><path fill="#2d4356" d="M56.50023,55.0192h44a2,2,0,0,0,0-4h-44a2,2,0,1,0,0,4Z"/><circle cx="2" cy="150.019" r="2" fill="#2d4356"/><path fill="#2d4356" d="M11,148.0192H8a2,2,0,0,0,0,4h3a2,2,0,0,0,0-4Z"/><path fill="#0bceb2" d="M118.15387 156.0192h-8.30774a2.00641 2.00641 0 0 0 0 4h8.30774a2.00641 2.00641 0 0 0 0-4zM58.15387 156.0192H49.84613a2.00641 2.00641 0 0 0 0 4h8.30774a2.00641 2.00641 0 0 0 0-4zM104 156.0192H64a2 2 0 0 0 0 4H79.94v2H72a2 2 0 0 0 0 4H97a2 2 0 0 0 0-4H88.06v-2H104a2 2 0 0 0 0-4z"/><path fill="#2d4356" d="M160,148.0192h-3a2,2,0,0,0,0,4h3a2,2,0,0,0,0-4Z"/><circle cx="166" cy="150.019" r="2" fill="#2d4356"/><path fill="#2d4356" d="M150.72131 148.0192h-7.36047c-13.17047-15.50708-6.72369-57.52307-1.9895-88.3291 1.32129-8.59473 2.46289-16.01758 3.0498-21.98145a14.409 14.409 0 0 0-3.25586-10.98145 7.53132 7.53132 0 0 0-5.50293-2.708 1.32628 1.32628 0 0 1-.5293 0H35.86694a1.97105 1.97105 0 0 0-.22516.02271c-.12451-.00769-.24878-.02271-.37347-.02271-6.92871 0-11.76807 5.54883-11.76807 13.49316V84.37174A6.70243 6.70243 0 0 0 30.01245 91.235H32.616c-2.35321 22.311-2.51141 44.4657 5.37543 56.78418H17.27869a2.017 2.017 0 1 0 0 4H150.72131a2.017 2.017 0 1 0 0-4zM30.01245 87.235a2.70793 2.70793 0 0 1-2.51221-2.86328V37.51237c0-4.37891 2.03467-9.49316 7.76807-9.49316a3.64108 3.64108 0 0 1 2.53955 1.39551 10.43648 10.43648 0 0 1 2.23828 7.90137c-.57715 5.85547-1.71 13.22852-3.02246 21.7666-1.34717 8.7666-2.83105 18.418-3.96338 28.15234zM42.9353 148.0192c-13.1499-15.52148-6.69092-57.53613-1.958-88.3291 1.32129-8.59473 2.46191-16.01758 3.04932-21.98145a14.91179 14.91179 0 0 0-2.26184-9.68945h93.36829a1.32628 1.32628 0 0 1 .5293 0 3.64223 3.64223 0 0 1 2.53906 1.39453 10.43956 10.43956 0 0 1 2.23926 7.90234c-.57715 5.85645-1.71 13.22949-3.02246 21.7666-4.61816 30.04395-10.83594 70.502.96191 88.93652zM145.65767 8.13442a3 3 0 1 0-3-3A3.00344 3.00344 0 0 0 145.65767 8.13442zm0-4.5a1.5 1.5 0 1 1-1.5 1.5A1.50148 1.50148 0 0 1 145.65767 3.63442zM162 76.72428a2 2 0 1 0 2 2A2.00229 2.00229 0 0 0 162 76.72428zm0 3a1 1 0 1 1 1-1A1.001 1.001 0 0 1 162 79.72428zM6 6.0192a2 2 0 1 0 2 2A2.00229 2.00229 0 0 0 6 6.0192zm0 3a1 1 0 1 1 1-1A1.001 1.001 0 0 1 6 9.0192z"/><path fill="#2d4356" d="M147.65767 49.0192a2 2 0 1 0 2 2A2.00229 2.00229 0 0 0 147.65767 49.0192zm0 3a1 1 0 1 1 1-1A1.001 1.001 0 0 1 147.65767 52.0192zM36.14883 18.0192a2 2 0 1 0-2 2A2.00229 2.00229 0 0 0 36.14883 18.0192zm-3 0a1 1 0 1 1 1 1A1.001 1.001 0 0 1 33.14883 18.0192z"/><polygon fill="#0bceb2" points="10.888 69.03 12.375 67.075 11.436 66.543 10.481 68.733 10.45 68.733 9.48 66.558 8.525 67.106 9.996 69.015 9.996 69.046 7.695 68.749 7.695 69.813 10.011 69.516 10.011 69.547 8.525 71.455 9.416 72.019 10.434 69.813 10.465 69.813 11.404 72.003 12.39 71.44 10.888 69.562 10.888 69.531 13.25 69.813 13.25 68.749 10.888 69.062 10.888 69.03"/><polygon fill="#0bceb2" points="71.734 3.711 70.878 4.81 71.392 5.134 71.978 3.864 71.996 3.864 72.536 5.125 73.104 4.801 72.239 3.72 72.239 3.702 73.599 3.864 73.599 3.251 72.239 3.431 72.239 3.413 73.095 2.287 72.555 1.981 72.005 3.242 71.987 3.242 71.429 1.99 70.878 2.305 71.726 3.404 71.726 3.422 70.401 3.251 70.401 3.864 71.734 3.693 71.734 3.711"/><polygon fill="#0bceb2" points="164.724 28.579 164.724 27.536 162.407 27.842 162.407 27.812 163.866 25.894 162.945 25.372 162.009 27.52 161.977 27.52 161.027 25.387 160.089 25.924 161.533 27.797 161.533 27.827 159.276 27.536 159.276 28.579 161.548 28.288 161.548 28.318 160.089 30.19 160.964 30.743 161.963 28.579 161.992 28.579 162.913 30.728 163.881 30.175 162.407 28.333 162.407 28.303 164.724 28.579"/><polygon fill="#0bceb2" points="108.351 17.807 109.609 16.153 108.815 15.702 108.008 17.555 107.981 17.555 107.16 15.715 106.352 16.179 107.597 17.794 107.597 17.821 105.65 17.569 105.65 18.469 107.61 18.218 107.61 18.244 106.352 19.859 107.106 20.336 107.968 18.469 107.994 18.469 108.788 20.322 109.622 19.846 108.351 18.257 108.351 18.231 110.35 18.469 110.35 17.569 108.351 17.834 108.351 17.807"/></svg>