<svg xmlns="http://www.w3.org/2000/svg" enable-background="new 0 0 28 28" viewBox="0 0 28 28"><path fill="#DEFF8F" d="M10.747,20.798v-6.881c0-2.209,1.791-4,4-4h5.917c2.209,0,4,1.791,4,4v6.881c0,2.209-1.791,4-4,4h-5.917C12.538,24.798,10.747,23.007,10.747,20.798z"/><path d="M23.5 24c-.128 0-.256-.049-.354-.146l-21-21c-.195-.195-.195-.512 0-.707s.512-.195.707 0l21 21c.195.195.195.512 0 .707C23.756 23.951 23.628 24 23.5 24zM24.5 21c-.128 0-.256-.049-.354-.146l-15-15c-.195-.195-.195-.512 0-.707s.512-.195.707 0l15 15c.195.195.195.512 0 .707C24.756 20.951 24.628 21 24.5 21zM25.5 18c-.128 0-.256-.049-.354-.146l-11-11c-.195-.195-.195-.512 0-.707s.512-.195.707 0l11 11c.195.195.195.512 0 .707C25.756 17.951 25.628 18 25.5 18zM25 14c-.128 0-.256-.049-.354-.146l-4-4c-.195-.195-.195-.512 0-.707s.512-.195.707 0l4 4c.195.195.195.512 0 .707C25.256 13.951 25.128 14 25 14zM13.5 25.5c-.128 0-.256-.049-.354-.146l-4-4c-.195-.195-.195-.512 0-.707s.512-.195.707 0l4 4c.195.195.195.512 0 .707C13.756 25.451 13.628 25.5 13.5 25.5zM17.469 26.031c-.128 0-.256-.049-.354-.146l-11-11c-.195-.195-.195-.512 0-.707s.512-.195.707 0l11 11c.195.195.195.512 0 .707C17.725 25.982 17.597 26.031 17.469 26.031zM20.509 24.991c-.128 0-.256-.049-.354-.146l-15-15c-.195-.195-.195-.512 0-.707s.512-.195.707 0l15 15c.195.195.195.512 0 .707C20.765 24.942 20.637 24.991 20.509 24.991z"/></svg>