<svg xmlns="http://www.w3.org/2000/svg" enable-background="new 0 0 24 24" viewBox="0 0 24 24"><polygon points="1.77 22.43 1.768 22.428 1.763 22.424"/><path fill="#3A57F5" d="M6.169,23.415h11.777h0.006c1.52-0.032,2.889-0.683,3.866-1.712c1.065-1.094,1.598-2.273,1.598-3.548V6.007V6.003c-0.02-1.481-0.664-2.811-1.684-3.744c-1.122-1.103-2.34-1.674-3.643-1.674H6.102H6.098c-1.505,0.022-2.861,0.659-3.83,1.674H2.27L2.264,2.264C1.235,3.171,0.585,4.501,0.585,5.981c0,0.019,0,0.038,0,0.054v11.796c0.095,1.806,0.656,3.156,1.682,4.088C3.309,22.838,4.672,23.4,6.169,23.415z"/><path fill="#FFF" d="M5.161,10.931V6.784c0.068-0.556,0.222-0.966,0.462-1.222s0.59-0.427,1.069-0.513h1.906l6.822,8.729v-8.72h1.838h0.005c0.356,0.028,0.679,0.176,0.927,0.402c0.265,0.231,0.445,0.539,0.547,0.915v4.035c0.068,0.718,0.573,1.248,1.513,1.59c-0.94,0.179-1.445,0.684-1.513,1.496v4.223c-0.12,0.376-0.291,0.658-0.547,0.855c-0.248,0.197-0.581,0.316-1,0.368h-1.813l-6.779-8.6L8.58,18.839H6.563c-0.342,0.026-0.658-0.12-0.94-0.427c-0.291-0.316-0.445-0.701-0.462-1.171v-4.078c-0.214-0.641-0.684-1.026-1.411-1.163C4.391,11.871,4.861,11.52,5.161,10.931z"/><path d="M6.375,24c-0.003,0-0.005,0-0.008,0c-1.63-0.017-3.199-0.618-4.419-1.694c-1.189-1.082-1.842-2.641-1.947-4.642L0,6.241c0-1.702,0.709-3.272,1.945-4.362C3.061,0.706,4.619,0.024,6.294,0h11.59c1.5,0,2.912,0.64,4.195,1.901C23.288,3.008,23.978,4.54,24,6.198V17.95c0,1.477-0.613,2.855-1.823,4.099c-1.158,1.22-2.729,1.915-4.416,1.951H6.375z M6.379,22.5h11.36c1.273-0.026,2.47-0.557,3.356-1.491c0.947-0.973,1.404-1.971,1.404-3.059V6.213c-0.017-1.234-0.533-2.381-1.453-3.224C20.034,1.995,18.977,1.5,17.884,1.5H6.309C5.047,1.519,3.866,2.035,2.989,2.954C2.023,3.81,1.5,4.969,1.5,6.187v11.438c0.084,1.575,0.559,2.753,1.449,3.563C3.89,22.018,5.11,22.486,6.379,22.5z"/><path d="M15.377,20c-0.235,0-0.457-0.11-0.599-0.298l-5.436-7.197l-0.013,6.64c-0.001,0.413-0.336,0.748-0.75,0.748H6.562c-0.338,0.029-0.944-0.063-1.504-0.701c-0.406-0.463-0.624-1.031-0.648-1.689v-4.155c-0.137-0.34-0.383-0.523-0.805-0.605C3.256,12.672,3.002,12.366,3,12.01s0.247-0.666,0.596-0.739c0.369-0.077,0.625-0.255,0.814-0.569v-4.14c0.095-0.837,0.307-1.389,0.652-1.776c0.354-0.395,0.855-0.654,1.492-0.772C6.6,4.004,6.646,4,6.691,4h1.906c0.236,0,0.459,0.111,0.601,0.301l5.472,7.307V4.759c0-0.414,0.336-0.75,0.75-0.75h1.838c0.58,0.045,1.07,0.267,1.449,0.627c0.354,0.32,0.613,0.765,0.755,1.308c0.017,0.062,0.024,0.126,0.024,0.189v4.212c0.014,0.111,0.057,0.589,1.03,0.959c0.312,0.119,0.509,0.431,0.48,0.764c-0.027,0.334-0.273,0.608-0.602,0.673c-0.75,0.149-0.882,0.515-0.911,0.887l0.002,4.347c0,0.074-0.011,0.147-0.032,0.218c-0.169,0.555-0.429,0.968-0.797,1.261c-0.344,0.284-0.809,0.47-1.372,0.542L15.377,20z M15.75,18.5h1.439c0.183-0.029,0.391-0.103,0.522-0.212c0.079-0.063,0.18-0.168,0.274-0.434v-4.288c0.054-0.687,0.305-1.235,0.729-1.633c-0.51-0.499-0.685-1.062-0.727-1.521l-0.003-4.176c-0.067-0.217-0.166-0.382-0.3-0.502c-0.107-0.102-0.264-0.211-0.485-0.229L16.17,5.508v8.353c0,0.323-0.207,0.609-0.513,0.712c-0.307,0.101-0.645-0.004-0.838-0.263L8.223,5.5H6.766C6.495,5.558,6.299,5.653,6.182,5.785C6.121,5.853,5.975,6.071,5.905,6.65l0.005,4.238c0,0.113-0.025,0.226-0.075,0.327c-0.145,0.299-0.326,0.559-0.541,0.777c0.26,0.269,0.455,0.603,0.581,0.997c0.023,0.073,0.035,0.15,0.035,0.228v4.257C5.921,17.761,6.009,18,6.186,18.201c0.181,0.206,0.285,0.203,0.317,0.193l1.329-0.001l0.016-8.122C7.849,9.95,8.055,9.664,8.36,9.562C8.668,9.46,9.003,9.564,9.196,9.821L15.75,18.5z M5.16,10.889h0.01H5.16z"/></svg>