<svg xmlns="http://www.w3.org/2000/svg" width="16" height="16" viewBox="0 0 16 16"><g transform="translate(2 -1036.362)"><path fill="#249fe6" style="line-height:normal;text-indent:0;text-align:start;text-decoration-line:none;text-decoration-style:solid;text-decoration-color:#000;text-transform:none;block-progression:tb;isolation:auto;mix-blend-mode:normal" d="M 11.820312 1 C 11.201723 1 10.583101 1.2352281 10.113281 1.7050781 L 7.9570312 3.8613281 C 7.1064023 4.7120124 7.035137 6.0452901 7.7246094 6.9882812 L 6.9980469 7.7285156 C 6.054613 7.0327785 4.7143317 7.1039786 3.8613281 7.9570312 L 1.7050781 10.115234 C 0.76543226 11.054934 0.76543926 12.589697 1.7050781 13.529297 L 2.4707031 14.294922 C 3.410342 15.234522 4.9451197 15.234522 5.8847656 14.294922 L 8.0429688 12.138672 C 8.9708896 11.210698 8.9789753 9.7040775 8.0742188 8.7617188 L 8.7558594 8.0664062 C 9.6978338 8.9771816 11.208741 8.9710072 12.138672 8.0410156 L 14.294922 5.8847656 C 15.234568 4.9450656 15.23456 3.4103031 14.294922 2.4707031 L 13.527344 1.7050781 C 13.057524 1.2352281 12.438903 1 11.820312 1 z M 11.820312 1.9921875 C 12.180226 1.9921875 12.540249 2.1320594 12.820312 2.4121094 L 13.587891 3.1777344 C 14.148018 3.7378344 14.148025 4.6175344 13.587891 5.1777344 L 11.431641 7.3339844 C 10.879241 7.8863567 10.018003 7.8906458 9.4570312 7.3535156 L 9.6640625 7.1425781 L 9.3144531 6.7988281 L 9.3164062 6.796875 L 8.6035156 6.0957031 L 8.4375 6.2636719 C 8.1251257 5.7227176 8.1967737 5.0357028 8.6640625 4.5683594 L 10.820312 2.4121094 C 11.100381 2.1320594 11.4604 1.9921875 11.820312 1.9921875 z M 5.5683594 8.2441406 C 5.817836 8.2441406 6.0661778 8.3165934 6.2890625 8.4511719 L 6.0996094 8.6425781 L 6.4492188 8.9882812 L 6.4472656 8.9902344 L 7.1601562 9.6914062 L 7.3730469 9.4746094 C 7.8925385 10.035882 7.8823009 10.883259 7.3359375 11.429688 L 5.1777344 13.587891 C 4.6175927 14.147991 3.737862 14.147991 3.1777344 13.587891 L 2.4121094 12.822266 C 1.8519747 12.262166 1.8519677 11.382466 2.4121094 10.822266 L 4.5683594 8.6640625 C 4.8484267 8.3839625 5.2084456 8.2441406 5.5683594 8.2441406 z " color="#000" font-family="sans-serif" font-weight="400" overflow="visible" transform="translate(-2 1036.362)"/><path fill="#c2e4f8" d="m 11.820312,1.9921875 c 0.359914,0 0.719937,0.1398719 1,0.4199219 l 0.767579,0.765625 c 0.560127,0.5601 0.560134,1.4398 0,2 l -2.15625,2.15625 c -0.5524,0.5523723 -1.413638,0.5566614 -1.9746098,0.019531 L 9.6640625,7.1425781 9.3144531,6.7988281 9.3164062,6.796875 8.6035156,6.0957031 8.4375,6.2636719 C 8.1251257,5.7227176 8.1967737,5.0357028 8.6640625,4.5683594 l 2.1562495,-2.15625 c 0.280069,-0.28005 0.640088,-0.4199219 1,-0.4199219 z M 5.5683594,8.2441406 c 0.2494766,0 0.4978184,0.072453 0.7207031,0.2070313 l -0.1894531,0.1914062 0.3496094,0.3457031 -0.00195,0.00195 0.7128906,0.7011718 0.2128907,-0.2167968 c 0.5194916,0.5612726 0.509254,1.4086496 -0.037109,1.9550786 l -2.1582031,2.158203 c -0.5601417,0.5601 -1.4398724,0.5601 -2,0 l -0.765625,-0.765625 c -0.5601347,-0.5601 -0.5601417,-1.4398 0,-2 l 2.15625,-2.1582035 c 0.2800673,-0.2801 0.6400862,-0.4199219 1,-0.4199219 z" color="#000" font-family="sans-serif" font-weight="400" overflow="visible" transform="translate(-2 1036.362)" style="line-height:normal;text-indent:0;text-align:start;text-decoration-line:none;text-decoration-style:solid;text-decoration-color:#000;text-transform:none;block-progression:tb;isolation:auto;mix-blend-mode:normal"/></g></svg>