<svg xmlns="http://www.w3.org/2000/svg" enable-background="new 0 0 28 28" viewBox="0 0 28 28"><path fill="#DEFF8F" d="M19.33,3.657c6.943,4.016,8.404,12.748,4.755,16.983s-7.755,9.214-15.099,3.633C2.664,19.468-1.453,8.927,5.214,5.756S15.966,1.711,19.33,3.657z"/><path d="M14.024,26.501c-0.536,0-1.076-0.034-1.616-0.104C5.574,25.519,0.726,19.244,1.603,12.409C2.479,5.574,8.758,0.736,15.591,1.603c0,0,0,0,0,0c6.836,0.879,11.684,7.153,10.806,13.988c-0.424,3.311-2.112,6.259-4.755,8.3C19.431,25.599,16.773,26.501,14.024,26.501z M13.993,2.5C8.297,2.5,3.338,6.742,2.595,12.536c-0.807,6.288,3.653,12.062,9.941,12.869c3.048,0.392,6.064-0.429,8.495-2.306c2.431-1.878,3.984-4.59,4.374-7.636c0.808-6.288-3.652-12.062-9.941-12.869C14.97,2.531,14.478,2.5,13.993,2.5z"/><path d="M10.05 21c-.002 0-.005 0-.008 0l-2.061-.019c-.06-.001-.118-.012-.173-.032-.255-.043-.419-.172-.516-.283C7.084 20.429 7 20.207 7 19.976c0-.035.004-.077.011-.111l.039-.184c.007-.033.018-.066.032-.098.045-.101.093-.17.133-.219.02-.035.044-.068.074-.099l.952-.973c.004-.005.007-.009.009-.011l2.574-2.629c-.21-.052-.429-.156-.548-.353-.239-.393-.117-.878.363-1.438.275-.333 3.384-3.354 4.118-3.925C15.506 9.363 16.109 9.007 16.806 9l0 0c.666-.036 1.217.252 1.625.726.429.499.643 1.218.545 1.831-.157.986-.763 1.842-1.334 2.549-.679.828-1.54 1.686-2.37 2.489-.035.033-.069.061-.103.083-.021.026-.045.054-.075.08-1.276 1.147-2.517 2.021-3.993 2.813l-.017.393c-.001.021-.003.043-.007.064-.017.224-.107.428-.258.582l-.106.109C10.538 20.898 10.297 21 10.05 21zM8.114 19.982L10.051 20l.048-.078-.013-.001.029-.68c.008-.179.11-.34.269-.422 1.512-.787 2.758-1.651 4.042-2.804.047-.069.095-.121.17-.159.791-.763 1.627-1.596 2.272-2.383.69-.854 1.027-1.475 1.123-2.074.042-.266-.039-.699-.316-1.021C17.457 10.127 17.172 10 16.827 10c-.004 0-.008 0-.012 0l0 0c-.366.003-.758.201-1.447.729-.7.543-3.719 3.49-3.941 3.75-.076.09-.131.16-.17.217.21-.024.811-.128.811-.128.228-.039.456.086.545.303.089.216.016.466-.176.601-.012.008-.119.085-.229.198l-3.226 3.295c-.006.008-.013.015-.02.021L8.087 19.88c-.018.032-.04.062-.066.09C8.053 19.971 8.083 19.976 8.114 19.982zM20 10c-1.103 0-2-.897-2-2s.897-2 2-2 2 .897 2 2S21.103 10 20 10zM20 7c-.551 0-1 .448-1 1s.449 1 1 1 1-.448 1-1S20.551 7 20 7z"/><path d="M20.82 9.755c-.118 0-.237-.042-.333-.126l-1.095-.974c-.102-.091-.162-.22-.167-.356s.046-.269.142-.367l1.322-1.354c.193-.196.51-.202.707-.008.198.192.202.509.009.707l-.956.979.704.625c.206.184.225.5.041.706C21.095 9.698 20.958 9.755 20.82 9.755zM12.15 15.562c-.238 0-.448-.17-.492-.412-.049-.271.132-.531.404-.58l1.059-.189 4.543-4.699c.192-.198.509-.203.707-.012s.204.509.012.707l-4.656 4.815c-.073.075-.168.126-.271.145l-1.218.218C12.208 15.559 12.179 15.562 12.15 15.562zM10.614 19.763c-.128 0-.256-.049-.354-.146l-1.326-1.325c-.195-.195-.195-.512 0-.707s.512-.195.707 0l1.326 1.325c.195.195.195.512 0 .707C10.87 19.714 10.742 19.763 10.614 19.763z"/></svg>