<svg xmlns="http://www.w3.org/2000/svg" enable-background="new 0 0 32 32" viewBox="0 0 32 32"><path fill="#F5E6FE" d="M26,32H6c-3.314,0-6-2.686-6-6V6c0-3.314,2.686-6,6-6h20c3.314,0,6,2.686,6,6v20C32,29.314,29.314,32,26,32z"/><path fill="#BE63F9" d="M14.593,20.464v1.705h2.729v-1.694c0.669-0.075,1.311-0.204,1.911-0.383l1.105,2.076h3.084l-1.856-3.131C23.067,18.062,24,16.699,24,15.19H24c0-2.96-3.583-5.359-8-5.359c-4.417,0-8,2.399-8,5.359C8,17.829,10.844,20.02,14.593,20.464z M17.319,19.249V18.64h0.733c0.297,0,0.521,0.322,0.661,0.529C18.269,19.221,17.803,19.246,17.319,19.249z M17.344,16.645L17.344,16.645v-1.532c1.592,0,2.418-0.187,2.418,0.752C19.762,16.87,18.71,16.645,17.344,16.645z M11.145,15.59c0-2.024,2.724-3.662,6.081-3.662s5.836,1.121,5.836,3.662c0,1.379-0.73,2.341-1.936,2.93c-0.066-0.044-0.129-0.08-0.176-0.102c-0.281-0.143-0.766-0.289-0.766-0.289s2.385-0.176,2.385-2.553c0-2.376-2.495-2.42-2.495-2.42h-5.48v5.736c-2.04-0.592-3.448-1.848-3.448-3.302V15.59z"/></svg>