<svg xmlns="http://www.w3.org/2000/svg" enable-background="new 0 0 32 32" viewBox="0 0 32 32"><path fill="#FFE6E2" d="M26,32H6c-3.314,0-6-2.686-6-6V6c0-3.314,2.686-6,6-6h20c3.314,0,6,2.686,6,6v20C32,29.314,29.314,32,26,32z"/><polygon fill="#FC573B" points="12.244 15.656 12.244 15.655 12.244 15.655"/><path fill="#FC573B" d="M11.779 16.569c-.053.16-.089.319-.121.474l.327.275c.016-.168.045-.336.085-.504L11.779 16.569zM11.597 18.138c.008.229.028.414.049.543l.485.185c-.037-.168-.073-.358-.097-.561L11.597 18.138 11.597 18.138z"/><path fill="#FC573B" d="M8.312 18.788c-.022.133-.03.21-.03.21l.001.001h3.193c0 0-.61-2.969 1.41-4.172.441-.229 1.843-1.082 4.139.728.073-.064.141-.117.141-.117s-2.102-2.237-4.442-1.987c-1.18.112-2.627 1.254-3.476 2.763C8.603 17.36 8.382 18.368 8.312 18.788zM9.887 14.995L9.6 14.728c-.105.108-.206.215-.299.323l.311.284C9.697 15.219 9.791 15.103 9.887 14.995L9.887 14.995z"/><path fill="#FC573B" d="M12.676 15.66l-.182-.293c-.093.09-.178.19-.25.289l.194.31C12.506 15.858 12.587 15.758 12.676 15.66zM13.097 13.263L13.016 13c-.125 0-.255.009-.388.026l.077.254c.117-.013.235-.017.352-.017H13.097zM11.233 13.418c-.101.056-.206.117-.315.185l.186.302c.105-.069.206-.133.311-.19L11.233 13.418zM8.666 16.922l-.465-.181C8.125 16.926 8.04 17.142 8 17.258l.465.181C8.517 17.292 8.602 17.081 8.666 16.922z"/><path fill="#FD907E" d="M13.153,19h0.776v-0.742L14.6,19h1.148l-0.902-0.97V18.03c0,0,0.707-0.064,0.707-1.039c0-0.974-0.857-1.065-0.857-1.065h-1.544V19z M13.929,16.698h0.622c0,0,0.174,0.069,0.174,0.349c0,0.28-0.178,0.353-0.178,0.353h-0.618V16.698z"/><polygon fill="#FD907E" points="19.736 15.948 19.736 18.999 21.656 18.999 21.656 18.211 20.553 18.211 20.553 15.948"/><polygon fill="#FC573B" points="11.415 13.715 11.414 13.715 11.415 13.715"/><rect width=".82" height="3.051" x="18.581" y="15.948" fill="#FD907E"/><path fill="#FC573B" d="M14.951,13.405c-0.037-0.021-0.137-0.073-0.392-0.151l-0.016,0.284c0.133,0.048,0.263,0.099,0.392,0.155v0.001L14.951,13.405z"/><polygon fill="#FC573B" points="13.25 14.85 13.25 14.85 13.25 14.849"/><path fill="#FC573B" d="M14.951,14.663c-0.137-0.03-0.271-0.048-0.4-0.056v0.001l-0.016,0.272c0.133,0.004,0.267,0.021,0.4,0.052L14.951,14.663z"/><path fill="#FD907E" d="M17.469 15.948h-.788c-.562 0-.752.543-.752.802V19h.788v-.539h.74V19h.764v-2.25C18.221 16.095 17.663 15.948 17.469 15.948zM16.714 17.59v-.746c0 0 0-.168.247-.168h.271c.218 0 .222.168.222.168v.746H16.714zM22.994 17.838C23.021 17.838 23.035 17.838 22.994 17.838L22.994 17.838zM23.896 16.732v-.784h-1.253c-.323 0-.756.284-.756.815v.271c0 .53.428.802.756.802.211.001.31.001.351.002-.063 0-.183-.002.271-.002v.38l-1.338.004V19h1.322c.271 0 .736-.211.752-.802v-.302c0-.504-.388-.802-.752-.802H22.59v-.362H23.896z"/><path fill="#FC573B" d="M13.694,14.996l-0.089-0.284c-0.137,0.043-0.255,0.091-0.355,0.138l0.092,0.297C13.46,15.087,13.577,15.035,13.694,14.996z"/></svg>