<svg xmlns="http://www.w3.org/2000/svg" enable-background="new 0 0 24 24" viewBox="0 0 24 24"><path fill="#110638" d="M5.5 24C3.57 24 2 22.43 2 20.5V4.03c0-.276.224-.5.5-.5S3 3.754 3 4.03V20.5C3 21.879 4.121 23 5.5 23S8 21.879 8 20.5v-4C8 16.224 8.224 16 8.5 16S9 16.224 9 16.5v4C9 22.43 7.43 24 5.5 24zM8 12c-.276 0-.5-.224-.5-.5V6.86c0-.276.224-.5.5-.5s.5.224.5.5v4.64C8.5 11.776 8.276 12 8 12z"/><path fill="#110638" d="M11.61 17H8.5C8.224 17 8 16.776 8 16.5S8.224 16 8.5 16h3.11c.276 0 .5.224.5.5S11.887 17 11.61 17zM18.34 15.54c-.153 0-.304-.07-.402-.203-.164-.222-.117-.535.105-.699C19.922 13.25 21 11.013 21 8.5 21 4.225 17.939 1 13.88 1H6C5.724 1 5.5.776 5.5.5S5.724 0 6 0h7.88C18.434 0 22 3.733 22 8.5c0 2.792-1.257 5.387-3.363 6.942C18.548 15.508 18.443 15.54 18.34 15.54zM10.39 15H7c-.276 0-.5-.224-.5-.5S6.724 14 7 14h3.39c.276 0 .5.224.5.5S10.666 15 10.39 15z"/><path fill="#110638" d="M17.24 13.73c-.148 0-.296-.066-.395-.192-.17-.218-.131-.532.087-.702C18.246 11.813 19 10.231 19 8.5 19 5.364 16.627 3 13.48 3H9.15c-.276 0-.5-.224-.5-.5S8.874 2 9.15 2h4.33C17.137 2 20 4.855 20 8.5c0 2.042-.894 3.91-2.452 5.125C17.456 13.696 17.348 13.73 17.24 13.73zM4 15c-.276 0-.5-.224-.5-.5V6.86c0-.276.224-.5.5-.5s.5.224.5.5v7.64C4.5 14.776 4.276 15 4 15zM9.89 13.5H6c-.276 0-.5-.224-.5-.5V7.5C5.5 7.224 5.724 7 6 7s.5.224.5.5v5h3.39c.276 0 .5.224.5.5S10.166 13.5 9.89 13.5z"/><path fill="#110638" d="M16.27 12.15c-.125 0-.25-.047-.347-.14-.199-.191-.205-.508-.014-.707C16.612 10.573 17 9.577 17 8.5c0-2.28-1.681-4-3.91-4H9.5C9.224 4.5 9 4.276 9 4s.224-.5.5-.5h3.59c2.753 0 4.91 2.196 4.91 5 0 1.337-.486 2.579-1.37 3.497C16.531 12.099 16.4 12.15 16.27 12.15zM10.2 12H8c-.276 0-.5-.224-.5-.5V6.86c0-.276.224-.5.5-.5s.5.224.5.5V11h1.7c.276 0 .5.224.5.5S10.477 12 10.2 12z"/><path fill="#110638" d="M15.34,10.85c-0.112,0-0.225-0.037-0.318-0.114c-0.213-0.176-0.243-0.49-0.067-0.704C15.312,9.598,15.5,9.068,15.5,8.5c0-1.425-1.165-2.5-2.71-2.5H9.15c-0.276,0-0.5-0.224-0.5-0.5S8.874,5,9.15,5h3.64c2.08,0,3.71,1.537,3.71,3.5c0,0.803-0.268,1.553-0.774,2.168C15.627,10.787,15.483,10.85,15.34,10.85z"/><path fill="#110638" d="M11.73 10.5H10c-.276 0-.5-.224-.5-.5V7c0-.276.224-.5.5-.5h2.39c1.184 0 2.11.879 2.11 2 0 .548-.22 1.055-.619 1.426-.203.188-.519.176-.707-.025-.188-.203-.177-.52.025-.707C13.396 9.011 13.5 8.771 13.5 8.5c0-.57-.478-1-1.11-1H10.5v2h1.23c.276 0 .5.224.5.5S12.007 10.5 11.73 10.5zM5.5 22.02c-1.103 0-2-.897-2-2V6.86c0-.276.224-.5.5-.5s.5.224.5.5V20.02c0 .552.448 1 1 1s1-.448 1-1V14.5C6.5 14.224 6.724 14 7 14s.5.224.5.5v5.52C7.5 21.122 6.603 22.02 5.5 22.02z"/><path fill="#6766DB" d="M6 8C3.794 8 2 6.206 2 4s1.794-4 4-4 4 1.794 4 4S8.206 8 6 8zM17.579 24.001c-.276 0-.555-.033-.83-.1-.909-.22-1.678-.781-2.164-1.58l-4.687-7.683c-.487-.798-.634-1.738-.414-2.646s.781-1.677 1.579-2.164l.427-.261c1.648-1.004 3.806-.482 4.811 1.165l4.687 7.684c1.005 1.648.482 3.807-1.165 4.812h-.001l-.427.26C18.839 23.827 18.214 24.001 17.579 24.001zM19.562 22.801h.01H19.562z"/></svg>