<svg xmlns="http://www.w3.org/2000/svg" enable-background="new 0 0 32 32" viewBox="0 0 32 32"><path fill="#FFF9DD" d="M26,32H6c-3.314,0-6-2.686-6-6V6c0-3.314,2.686-6,6-6h20c3.314,0,6,2.686,6,6v20C32,29.314,29.314,32,26,32z"/><path fill="#FFD200" d="M23.99,11.206c0.043-1.457-0.531-2.848-2.553-3.2L21.44,8L19,9.369l4.222,3.463l0.41,0.342l-5.88,0.382l0.66,2.616l0.931,3.643l-6.17-1.983l-0.011,0.02l0.02-0.005l-1.87,6.134l-2.215-5.204L8,20.789c0.1,3.079,2.289,3.169,3.271,3.211l11.82-0.816L24,11.185L23.99,11.206z"/><path fill="#FFE777" d="M9.01,17.896c1.174,1.192,4.201-0.285,6.576-2.654c2.379-2.368,3.623-5.272,2.449-6.464c-1.177-1.195-4.241,0.206-6.615,2.576l-0.002,0.002C9.04,13.726,7.832,16.704,9.01,17.896z"/></svg>