<svg xmlns="http://www.w3.org/2000/svg" enable-background="new 0 0 25 25" viewBox="0 0 25 25"><path fill="#583689" d="M5.702,25c-0.015,0-0.03,0-0.044-0.001C4.301,24.941,0.174,24.768,0,19.416c-0.006-0.178,0.036-0.354,0.122-0.511l1.577-2.893c0.184-0.337,0.541-0.555,0.926-0.521c0.383,0.019,0.722,0.255,0.872,0.607l2.108,4.953l1.822-5.977c0.009-0.128,0.043-0.255,0.104-0.373c0.224-0.434,0.743-0.671,1.209-0.522l7.146,2.297l-1.839-7.248c-0.073-0.287-0.014-0.593,0.162-0.833c0.175-0.24,0.447-0.39,0.744-0.409l5.934-0.385l-4.708-3.861c-0.255-0.21-0.391-0.532-0.362-0.861s0.219-0.622,0.507-0.784l3.506-1.968c0.25-0.142,0.543-0.164,0.808-0.076c2.828,0.548,4.365,2.449,4.352,5.378C25,5.503,25.003,5.578,24.997,5.654l-1.308,17.248c-0.038,0.496-0.433,0.889-0.928,0.923l-16.99,1.173C5.748,24.999,5.725,25,5.702,25z M9.114,16.401l-1.981,6.497l14.627-1.01l0.94-12.399l-6.419,0.416l1.992,7.831c0.09,0.353-0.019,0.726-0.284,0.976c-0.265,0.249-0.644,0.334-0.991,0.224L9.114,16.401z M2.012,19.616c0.135,2.079,1.028,2.868,2.161,3.181l-1.708-4.013L2.012,19.616z M18.579,3.123l4.335,3.556l0.075-0.992c-0.002-0.034-0.003-0.07-0.002-0.106c0.058-1.98-0.744-3.106-2.515-3.519L18.579,3.123z"/><path fill="#DE002A" d="M4.1,16.831c-0.006,0-0.012,0-0.019,0c-0.953-0.004-1.763-0.316-2.341-0.903l0,0C-0.638,13.52,1.751,8.56,5.208,5.116c2.816-2.812,6.149-4.623,8.502-4.623c0.006,0,0.013,0,0.019,0c0.985,0.005,1.818,0.323,2.409,0.923c2.347,2.383,0.002,7.188-3.527,10.703C9.738,14.983,6.4,16.831,4.1,16.831z M13.708,2.493c-1.792,0-4.703,1.657-7.085,4.036c-3.276,3.265-4.527,6.912-3.459,7.994c0,0,0,0,0.001,0c0.202,0.205,0.505,0.306,0.926,0.308c0.004,0,0.008,0,0.012,0c1.741,0,4.657-1.695,7.097-4.129c3.355-3.342,4.544-6.836,3.514-7.882c-0.211-0.215-0.545-0.325-0.992-0.327C13.716,2.493,13.712,2.493,13.708,2.493z"/></svg>