<svg xmlns="http://www.w3.org/2000/svg" enable-background="new 0 0 64 64" viewBox="0 0 64 64"><path fill="#322e63" d="M32,0C14.4,0,0,14.4,0,32s14.4,32,32,32s32-14.4,32-32S49.6,0,32,0z M32,62.1C15.4,62.1,1.9,48.6,1.9,32
			S15.4,1.9,32,1.9S62.1,15.4,62.1,32S48.6,62.1,32,62.1z"/><path fill="#ffdc7b" d="M32,1.9C15.4,1.9,1.9,15.4,1.9,32S15.4,62.1,32,62.1S62.1,48.6,62.1,32S48.6,1.9,32,1.9z M22.4,24.3
			c-1.3,0-2.4-1.1-2.4-2.4c0-1.3,1.1-2.4,2.4-2.4s2.4,1.1,2.4,2.4C24.8,23.2,23.7,24.3,22.4,24.3z M24.6,14.6L15.3,19
			c-0.1,0.1-0.3,0.1-0.4,0.1c-0.4,0-0.7-0.2-0.9-0.6c-0.2-0.5,0-1.1,0.5-1.3l9.3-4.4c0.5-0.2,1.1,0,1.3,0.5
			C25.3,13.8,25.1,14.4,24.6,14.6z M45.8,37.8L35.3,48.3c-0.2,0.2-0.4,0.3-0.7,0.3c-0.2,0-0.5-0.1-0.7-0.3c-0.4-0.4-0.4-1,0-1.4
			l10.5-10.6c0.4-0.4,1-0.4,1.4,0C46.2,36.8,46.2,37.4,45.8,37.8z M39.2,21.9c0-1.3,1.1-2.4,2.4-2.4c1.3,0,2.4,1.1,2.4,2.4
			c0,1.3-1.1,2.4-2.4,2.4C40.3,24.3,39.2,23.2,39.2,21.9z M50,18.5c-0.2,0.3-0.5,0.6-0.9,0.6c-0.1,0-0.3,0-0.4-0.1l-9.3-4.4
			c-0.5-0.2-0.7-0.8-0.5-1.3c0.2-0.5,0.8-0.7,1.3-0.5l9.3,4.4C50,17.4,50.2,18,50,18.5z"/><path fill="#edc45f" d="M62.1,32c0,16.6-13.5,30.1-30.1,30.1c-9.7,0-18.4-4.7-23.9-11.8c5.1,3.9,11.4,6.2,18.2,6.2
			c16.6,0,30.1-13.5,30.1-30.1c0-6.8-2.3-13.2-6.2-18.2C57.4,13.6,62.1,22.3,62.1,32z"/><path fill="#322e63" d="M24.8 21.9c0 1.3-1.1 2.4-2.4 2.4s-2.4-1.1-2.4-2.4c0-1.3 1.1-2.4 2.4-2.4S24.8 20.6 24.8 21.9zM24.6 14.6L15.3 19c-.1.1-.3.1-.4.1-.4 0-.7-.2-.9-.6-.2-.5 0-1.1.5-1.3l9.3-4.4c.5-.2 1.1 0 1.3.5C25.3 13.8 25.1 14.4 24.6 14.6zM44.1 21.9c0 1.3-1.1 2.4-2.4 2.4-1.3 0-2.4-1.1-2.4-2.4 0-1.3 1.1-2.4 2.4-2.4C43 19.5 44.1 20.6 44.1 21.9zM50 18.5c-.2.3-.5.6-.9.6-.1 0-.3 0-.4-.1l-9.3-4.4c-.5-.2-.7-.8-.5-1.3.2-.5.8-.7 1.3-.5l9.3 4.4C50 17.4 50.2 18 50 18.5z"/><g><path fill="#322e63" d="M45.8,37.8L35.3,48.3c-0.2,0.2-0.4,0.3-0.7,0.3c-0.2,0-0.5-0.1-0.7-0.3c-0.4-0.4-0.4-1,0-1.4l10.5-10.6
			c0.4-0.4,1-0.4,1.4,0C46.2,36.8,46.2,37.4,45.8,37.8z"/></g></svg>