<svg xmlns="http://www.w3.org/2000/svg" width="100" height="100" viewBox="0 0 100 100"><g transform="translate(-1343.004 -1312.362)"><g transform="translate(-4 183)"><path fill="#8fb6d7" d="m 1393,1192.3622 3.5,0 33,0 c 1.385,0 2.5,-1.115 2.5,-2.5 0,-1.385 -1.115,-2.5 -2.5,-2.5 l -1.5,0 -0.5,0 c -1.385,0 -2.5,-1.115 -2.5,-2.5 0,-1.385 1.115,-2.5 2.5,-2.5 l 0.5,0 5.5,0 c 1.385,0 2.5,-1.115 2.5,-2.5 0,-1.385 -1.115,-2.5 -2.5,-2.5 l -5.5,0 -3.5,0 c -1.385,0 -2.5,-1.115 -2.5,-2.5 0,-1.385 1.115,-2.5 2.5,-2.5 l 3.5,0 0,-0.051 c 1.1441,-0.2302 2,-1.2354 2,-2.4493 0,-1.2138 -0.8559,-2.219 -2,-2.4492 l 0,-0.051 -35,0 z m 48.5,-15 c -1.385,0 -2.5,1.115 -2.5,2.5 0,1.385 1.115,2.5 2.5,2.5 l 1,0 c 1.385,0 2.5,-1.115 2.5,-2.5 0,-1.385 -1.115,-2.5 -2.5,-2.5 z"/><path fill="#ee7581" d="m 1358.5,1167.3622 c -1.385,0 -2.5,1.115 -2.5,2.5 0,1.385 1.115,2.5 2.5,2.5 l 2,0 0.5,0 0,0.051 c 1.1441,0.2302 2,1.2353 2,2.4492 0,1.2138 -0.8559,2.219 -2,2.4492 l 0,0.051 -0.5,0 -10,0 c -1.385,0 -2.5,1.115 -2.5,2.5 0,1.385 1.115,2.5 2.5,2.5 l 14.5,0 1.5,0 c 1.385,0 2.5,1.115 2.5,2.5 0,1.385 -1.115,2.5 -2.5,2.5 l -1.5,0 -1.5,0 c -1.385,0 -2.5,1.115 -2.5,2.5 0,1.385 1.115,2.5 2.5,2.5 l 29.5,0 0,-25 -32,0 z m -4,20 c -1.385,0 -2.5,1.115 -2.5,2.5 0,1.385 1.115,2.5 2.5,2.5 l 1,0 c 1.385,0 2.5,-1.115 2.5,-2.5 0,-1.385 -1.115,-2.5 -2.5,-2.5 z"/><path fill="none" stroke="#105286" stroke-linecap="round" stroke-linejoin="round" d="M1350 1194.8621l11.4375 0M1368.138 1194.8621l77.362 0M1364.4648 1194.8621l1.1407 0"/></g><g transform="translate(586.667 135)"><path fill="#f0f4f7" fill-rule="evenodd" stroke="#0c5286" d="m 785.1664,1240.1857 0,-26.5279 c 0,-0.9949 0.79907,-1.7956 1.79164,-1.7956 l 39.41672,0 c 0.99257,0 1.79164,0.8007 1.79164,1.7956 l 0,26.5279 z"/><path fill="#406b95" stroke="#0c5286" stroke-linejoin="round" d="m 831.16694,1237.8907 c 0,2.7546 -2.21799,4.9715 -4.97307,4.9715 l -39.0544,0 c -2.75508,0 -4.97307,-2.2169 -4.97307,-4.9715 z"/><path fill="#8fb6d7" stroke="#0c5286" d="m 802.16667,1237.8907 9,0 c 0,0 0,0.5919 0,1.3271 0,0.7354 -0.57342,1.3273 -1.28571,1.3273 l -6.42858,0 c -0.71228,0 -1.28571,-0.5919 -1.28571,-1.3273 z"/><path fill="#d2dce9" stroke="#0c5286" stroke-linejoin="round" stroke-width=".5" d="m 816.60405,1235.1128 -19.31265,0 -9.375,0 0,-20.5051 37.5,0 0,20.5051 -3.43735,0"/><path fill="#ee7581" d="m 782.55662,1245.113 -1.5558,2.6947 -0.97398,1.6868 -0.82642,1.4314 -0.70131,1.2146 -1.34673,2.3325 c -0.48739,0.8442 -0.20015,1.9161 0.64403,2.4035 0.84418,0.4873 1.91616,0.2001 2.40355,-0.644 l 5.40424,-9.36"/><rect width="5.038" height="5.61" x="-1304.563" y="681.94" fill="#2dbca4" stroke="#0c5286" stroke-linejoin="round" transform="matrix(-.86604 -.49998 -.50002 .86602 0 0)"/><ellipse cx="-1302.044" cy="673.977" fill="#2dbca4" stroke="#0c5286" stroke-linejoin="round" rx="9.552" ry="9.551" transform="matrix(-.86604 -.49998 -.50002 .86602 0 0)"/><circle cx="-1302.044" cy="673.977" r="7.792" fill="#f0f4f7" transform="matrix(-.86604 -.49998 -.50002 .86602 0 0)"/><path fill="none" stroke="#0c5286" stroke-linejoin="round" stroke-width=".5" d="m -1294.2516,673.97699 a 7.7920713,7.7918911 0 0 1 -6.8213,7.73118 7.7920713,7.7918911 0 0 1 -8.521,-5.8047 7.7920713,7.7918911 0 0 1 4.698,-9.17761 7.7920713,7.7918911 0 0 1 9.6916,3.51778" transform="matrix(-.86604 -.49998 -.50002 .86602 0 0)"/><path fill="none" stroke="#0c5286" stroke-linejoin="round" stroke-width=".5" d="m 782.55662,1245.113 -1.5558,2.6947 m -0.97398,1.6868 -0.30452,0.5274 m -0.34369,0.5953 -0.17821,0.3087 -0.70131,1.2146 -1.34673,2.3325 c -0.48739,0.8442 -0.20015,1.9161 0.64403,2.4035 0.84418,0.4873 1.91616,0.2001 2.40355,-0.644 l 5.40424,-9.36"/><rect width="41.167" height="5.378" x="791.917" y="1216.734" fill="#fff" stroke="#496078" stroke-linejoin="round" stroke-width=".5"/><rect width="8.651" height="5.378" x="824.432" y="1216.734" fill="#406b95"/><rect width="41.167" height="5.378" x="791.917" y="1216.734" fill="none" stroke="#0c5286" stroke-linejoin="round" stroke-width=".5"/><ellipse cx="828.012" cy="1218.826" fill="none" stroke="#fff" stroke-linejoin="round" stroke-width=".5" rx=".895" ry=".896"/><path fill="none" stroke="#fff" stroke-linecap="round" stroke-linejoin="round" stroke-width=".5" d="m 828.66479,1219.4793 1.43245,1.4346"/><path fill="#0c5286" d="m 793.40822,1218.2281 29.83091,0 0,2.3902 -29.83091,0 z"/><path fill="#f0f4f7" stroke="#0c5286" stroke-linecap="round" stroke-linejoin="round" stroke-width=".5" d="m 811.90339,1197.6121 c -0.49579,0 -0.89493,0.3998 -0.89493,0.8964 l 0,10.7561 c 0,0.4966 0.39914,0.8964 0.89493,0.8964 l 3.57971,0 0,6.2743 5.90791,-6.2743 8.41093,0 c 0.49579,0 0.89492,-0.3998 0.89492,-0.8964 l 0,-10.7561 c 0,-0.4966 -0.39913,-0.8964 -0.89492,-0.8964 l -17.89855,0 z"/><rect width="15.512" height="1.195" x="813.097" y="1199.698" fill="#406b95"/><rect width="11.932" height="1.195" x="813.097" y="1202.088" fill="#406b95"/><rect width="15.512" height="1.195" x="813.097" y="1204.478" fill="#406b95"/><rect width="11.932" height="1.195" x="813.097" y="1206.868" fill="#406b95"/><path fill="none" stroke="#2dbca4" stroke-linecap="round" stroke-linejoin="round" d="m 805.16672,1232.857 3.5,-3.5 1,1 2,-2 1,1 4,-4"/><path fill="none" stroke="#2dbca4" stroke-linecap="round" stroke-linejoin="round" d="m 815.17379,1224.8622 2,0 0,2"/><path fill="none" stroke="#0c5286" stroke-linecap="round" stroke-linejoin="round" d="m 805.16672,1224.8621 0,8 3.99288,0 8,0"/></g></g></svg>