<svg xmlns="http://www.w3.org/2000/svg" data-name="Layer 1" viewBox="0 0 48 48"><circle cx="18" cy="33" r="9" fill="#fb6a63"/><path fill="none" stroke="#231f20" stroke-linecap="round" stroke-linejoin="round" stroke-width="2" d="M42,23.5A8.51,8.51,0,0,1,34,32a10,10,0,0,0-7.11-9.56,9.93,9.93,0,0,0-5.78,0A10,10,0,0,0,14,32h-.5A7.49,7.49,0,0,1,13,17v0a11,11,0,0,1,21.83-1.89A8.5,8.5,0,0,1,42,23.5Z"/><path fill="none" stroke="#231f20" stroke-linecap="round" stroke-linejoin="round" stroke-width="2" d="M34,32h0a9.4,9.4,0,0,1-.16,1.77c0,.25-.1.49-.16.73a9.41,9.41,0,0,1-.79,2.07,10.37,10.37,0,0,1-.73,1.2L32,38c-.13.18-.27.35-.4.51A10.18,10.18,0,0,1,30,40a9.94,9.94,0,0,1-6,2,9.84,9.84,0,0,1-4.07-.87A10,10,0,0,1,18,40a9,9,0,0,1-1.59-1.49A6.4,6.4,0,0,1,16,38a10.11,10.11,0,0,1-.9-1.43,9.41,9.41,0,0,1-.79-2.07A9.85,9.85,0,0,1,14,32a8.32,8.32,0,0,1,.07-1.12A9.87,9.87,0,0,1,16,26c.13-.17.26-.33.4-.49A9.34,9.34,0,0,1,18,24a9.55,9.55,0,0,1,3.11-1.59l.73-.2a10.26,10.26,0,0,1,4.32,0l.73.2A9.75,9.75,0,0,1,30,24a8.87,8.87,0,0,1,1.59,1.47A6.4,6.4,0,0,1,32,26,10,10,0,0,1,34,32Z"/><path fill="none" stroke="#231f20" stroke-linecap="round" stroke-linejoin="round" stroke-width="2" d="M19 32a3.52 3.52 0 0 1 0-.56A4.91 4.91 0 0 1 20 29a2.51 2.51 0 0 1 .19-.24A5.16 5.16 0 0 1 21 28a4.67 4.67 0 0 1 1.55-.8l.37-.1A5.49 5.49 0 0 1 24 27M29 32h0a4.24 4.24 0 0 1-.08.88c0 .13-.05.25-.08.37a5.42 5.42 0 0 1-.39 1c-.12.2-.24.41-.37.59L28 35l-.2.26A5 5 0 0 1 27 36a4.94 4.94 0 0 1-3 1M24 27a3.43 3.43 0 0 1 .56 0 4.88 4.88 0 0 1 2.21.81M21.23 36.15c.15.11.32.2.48.3a5.42 5.42 0 0 0 1 .39l.37.08A4.24 4.24 0 0 0 24 37h0"/><polygon fill="none" stroke="#231f20" stroke-linecap="round" stroke-linejoin="round" stroke-width="2" points="29 30 28 31 30 31 29 30"/><polygon fill="none" stroke="#231f20" stroke-linecap="round" stroke-linejoin="round" stroke-width="2" points="19 34 20 33 18 33 19 34"/></svg>