<svg xmlns="http://www.w3.org/2000/svg" width="64" height="64" viewBox="0 0 64 64"><g transform="translate(0 -988.362)"><path fill="#fff" fill-rule="evenodd" stroke="#496078" d="m 12.50122,1033.1857 0,-26.5279 c 0,-0.9949 0.79907,-1.7956 1.79164,-1.7956 l 39.41672,0 c 0.99257,0 1.79164,0.8007 1.79164,1.7956 l 0,26.5279 z"/><path fill="#7d9ec7" stroke="#496078" stroke-linejoin="round" d="m 58.50176,1030.8907 c 0,2.7546 -2.21799,4.9715 -4.97307,4.9715 l -39.0544,0 c -2.75508,0 -4.97307,-2.2169 -4.97307,-4.9715 z"/><path fill="#e6dfd2" stroke="#496078" d="m 29.50149,1030.8907 9,0 c 0,0 0,0.5919 0,1.3271 0,0.7354 -0.57342,1.3273 -1.28571,1.3273 l -6.42858,0 c -0.71228,0 -1.28571,-0.5919 -1.28571,-1.3273 z"/><path fill="#e6dfd2" stroke="#496078" stroke-linejoin="round" stroke-width=".5" d="m 43.93887,1028.1128 -19.31265,0 -9.375,0 0,-20.5051 37.5,0 0,20.5051 -3.43735,0"/><path fill="#eb8e68" d="m 9.8914441,1038.113 -1.5558009,2.6947 -0.9739779,1.6868 -0.8264245,1.4314 -0.7013086,1.2146 -1.3467287,2.3325 c -0.487387,0.8442 -0.2001499,1.9161 0.6440287,2.4035 0.8441795,0.4873 1.9161627,0.2001 2.4035498,-0.644 l 5.404241,-9.36"/><path fill="#70979c" stroke="#496078" stroke-linejoin="round" d="m -531.91913,888.99011 5.03791,0 0,5.60973 -5.03791,0 z" transform="matrix(-.86604 -.49998 -.50002 .86602 0 0)"/><path fill="#b4cec5" stroke="#496078" stroke-linejoin="round" d="m -519.84858,881.02686 a 9.5515709,9.5513496 0 0 1 -9.55157,9.55135 9.5515709,9.5513496 0 0 1 -9.55157,-9.55135 9.5515709,9.5513496 0 0 1 9.55157,-9.55135 9.5515709,9.5513496 0 0 1 9.55157,9.55135 z" transform="matrix(-.86604 -.49998 -.50002 .86602 0 0)"/><path fill="#fff" d="m -521.60808,881.02686 a 7.7920713,7.7918911 0 0 1 -7.79207,7.79189 7.7920713,7.7918911 0 0 1 -7.79207,-7.79189 7.7920713,7.7918911 0 0 1 7.79207,-7.7919 7.7920713,7.7918911 0 0 1 7.79207,7.7919 z" transform="matrix(-.86604 -.49998 -.50002 .86602 0 0)"/><path fill="none" stroke="#496078" stroke-linejoin="round" stroke-width=".5" d="m -521.60808,881.02686 a 7.7920713,7.7918911 0 0 1 -6.82124,7.73117 7.7920713,7.7918911 0 0 1 -8.52098,-5.80469 7.7920713,7.7918911 0 0 1 4.69795,-9.17761 7.7920713,7.7918911 0 0 1 9.69164,3.51778" transform="matrix(-.86604 -.49998 -.50002 .86602 0 0)"/><path fill="none" stroke="#496078" stroke-linejoin="round" stroke-width=".5" d="m 9.8914441,1038.113 -1.5558009,2.6947 m -0.9739779,1.6868 -0.3045217,0.5275 m -0.3436946,0.5952 -0.1782082,0.3087 -0.7013086,1.2146 -1.3467287,2.3325 c -0.487387,0.8442 -0.2001499,1.9161 0.6440287,2.4035 0.8441795,0.4873 1.9161627,0.2001 2.4035498,-0.644 l 5.404241,-9.36"/><path fill="#fff" stroke="#496078" stroke-linejoin="round" stroke-width=".5" d="m 19.251492,1009.7341 41.16666,0 0,5.378 -41.16666,0 z"/><path fill="#7d9ec7" d="m 51.767185,1009.7341 8.650965,0 0,5.378 -8.650965,0 z"/><path fill="none" stroke="#496078" stroke-linejoin="round" stroke-width=".5" d="m 19.251492,1009.7341 41.16666,0 0,5.378 -41.16666,0 z"/><path fill="none" stroke="#fff" stroke-linejoin="round" stroke-width=".5" d="m 56.241828,1011.8255 a 0.89492738,0.89634126 0 0 1 -0.894927,0.8963 0.89492738,0.89634126 0 0 1 -0.894927,-0.8963 0.89492738,0.89634126 0 0 1 0.894927,-0.8963 0.89492738,0.89634126 0 0 1 0.894927,0.8963 z"/><path fill="none" stroke="#fff" stroke-linecap="round" stroke-linejoin="round" stroke-width=".5" d="m 55.999602,1012.4793 1.432451,1.4346"/><path fill="#496078" d="m 20.743044,1011.2281 29.830912,0 0,2.3902 -29.830912,0 z"/><path fill="#fff" stroke="#496078" stroke-linecap="round" stroke-linejoin="round" stroke-width=".5" d="m 39.238209,990.61214 c -0.495789,0 -0.894927,0.39976 -0.894927,0.89634 l 0,10.75612 c 0,0.4966 0.399138,0.8964 0.894927,0.8964 l 3.57971,0 0,6.2743 5.907917,-6.2743 8.410921,0 c 0.49579,0 0.894927,-0.3998 0.894927,-0.8964 l 0,-10.75612 c 0,-0.49658 -0.399137,-0.89634 -0.894927,-0.89634 l -17.898548,0 z"/><path fill="#7d9ec7" d="M40.431438 992.69781l15.512075 0 0 1.19513-15.512075 0zM40.431438 995.08807l11.932366 0 0 1.19513-11.932366 0zM40.431438 997.47815l15.512075 0 0 1.19512-15.512075 0zM40.431438 999.86841l11.932366 0 0 1.19509-11.932366 0z"/><path fill="none" stroke="#70979c" stroke-linecap="round" stroke-linejoin="round" d="m 32.501541,1025.857 3.5,-3.5 1,1 2,-2 1,1 4,-4"/><path fill="none" stroke="#70979c" stroke-linecap="round" stroke-linejoin="round" d="m 42.508611,1017.8622 2,0 0,2"/><path fill="none" stroke="#496078" stroke-linecap="round" stroke-linejoin="round" d="m 32.501541,1017.8621 0,8 3.99288,0 8,0"/></g></svg>