<svg xmlns="http://www.w3.org/2000/svg" enable-background="new 0 0 24 24" viewBox="0 0 24 24"><path fill="#110638" d="M1.5 18.25c-.177 0-.348-.094-.438-.26-.133-.242-.044-.546.198-.679l4-2.19c.24-.133.546-.045.679.198.133.242.044.546-.198.679l-4 2.19C1.664 18.23 1.582 18.25 1.5 18.25zM22.5 18.25c-.082 0-.164-.02-.24-.062l-4-2.19c-.242-.133-.331-.437-.198-.679.133-.243.438-.331.679-.198l4 2.19c.242.133.331.437.198.679C22.848 18.156 22.677 18.25 22.5 18.25zM12 5c-.276 0-.5-.224-.5-.5v-4C11.5.224 11.724 0 12 0s.5.224.5.5v4C12.5 4.776 12.276 5 12 5z"/><path fill="#FF7A55" d="M12,20c-0.086,0-0.173-0.022-0.25-0.067l-6.5-3.75C5.096,16.094,5,15.929,5,15.75v-7.5c0-0.179,0.096-0.344,0.25-0.433l6.5-3.75c0.154-0.09,0.346-0.09,0.5,0l6.5,3.75C18.904,7.906,19,8.071,19,8.25v7.5c0,0.179-0.096,0.344-0.25,0.433l-6.5,3.75C12.173,19.978,12.086,20,12,20z M18.5,15.75h0.01H18.5z"/><path fill="#110638" d="M12,24c-0.083,0-0.165-0.021-0.24-0.062l-10.5-5.75C1.1,18.101,1,17.933,1,17.75V6.25c0-0.183,0.1-0.351,0.26-0.438l10.5-5.75c0.15-0.082,0.33-0.082,0.48,0l10.5,5.75C22.9,5.899,23,6.067,23,6.25v11.5c0,0.183-0.1,0.351-0.26,0.438l-10.5,5.75C12.165,23.979,12.083,24,12,24z M2,17.454l10,5.476l10-5.476V6.546L12,1.07L2,6.546V17.454z M22.5,17.75h0.01H22.5z"/><path fill="#110638" d="M12,12.5c-0.177,0-0.348-0.094-0.438-0.26c-0.133-0.242-0.044-0.546,0.198-0.679l10.5-5.75c0.24-0.132,0.546-0.045,0.679,0.198c0.133,0.242,0.044,0.546-0.198,0.679l-10.5,5.75C12.164,12.48,12.082,12.5,12,12.5z"/><path fill="#110638" d="M12,12.5c-0.082,0-0.164-0.02-0.24-0.062l-10.5-5.75C1.018,6.556,0.929,6.252,1.062,6.01C1.194,5.767,1.499,5.68,1.74,5.812l10.5,5.75c0.242,0.133,0.331,0.437,0.198,0.679C12.348,12.406,12.177,12.5,12,12.5z"/><path fill="#110638" d="M12,24c-0.276,0-0.5-0.224-0.5-0.5V12c0-0.276,0.224-0.5,0.5-0.5s0.5,0.224,0.5,0.5v11.5C12.5,23.776,12.276,24,12,24z"/></svg>