<svg xmlns="http://www.w3.org/2000/svg" enable-background="new 0 0 28 28" viewBox="0 0 28 28"><ellipse cx="15.083" cy="14.974" fill="#FFAB66" rx="10.5" ry="10.899"/><path d="M14,26c-0.083,0-0.165-0.021-0.24-0.062l-10.5-5.75C3.1,20.101,3,19.933,3,19.75V8.25c0-0.183,0.1-0.351,0.26-0.438l10.5-5.75c0.15-0.082,0.33-0.082,0.48,0l10.5,5.75C24.9,7.899,25,8.067,25,8.25v11.5c0,0.183-0.1,0.351-0.26,0.438l-10.5,5.75C14.165,25.979,14.083,26,14,26z M4,19.454l10,5.476l10-5.476V8.546L14,3.07L4,8.546V19.454z M24.5,19.75h0.01H24.5z"/><path d="M3.5 20.25c-.177 0-.348-.094-.438-.26-.133-.242-.044-.546.198-.679l4-2.19c.24-.133.546-.044.679.198s.044.546-.198.679l-4 2.19C3.664 20.23 3.582 20.25 3.5 20.25zM14 14.5c-.177 0-.348-.094-.438-.26-.133-.242-.044-.546.198-.679l10.5-5.75c.24-.133.546-.045.679.198.133.242.044.546-.198.679l-10.5 5.75C14.164 14.48 14.082 14.5 14 14.5z"/><path d="M14,22c-0.086,0-0.173-0.022-0.25-0.067l-6.5-3.75C7.096,18.094,7,17.929,7,17.75v-7.5c0-0.179,0.096-0.344,0.25-0.433l6.5-3.75c0.154-0.09,0.346-0.09,0.5,0l6.5,3.75C20.904,9.906,21,10.071,21,10.25v7.5c0,0.179-0.096,0.344-0.25,0.433l-6.5,3.75C14.173,21.978,14.086,22,14,22z M8,17.461l6,3.462l6-3.462v-6.922l-6-3.462l-6,3.462V17.461z M20.5,17.75h0.01H20.5z"/><path d="M14 14.5c-.082 0-.164-.02-.24-.062l-10.5-5.75C3.018 8.556 2.929 8.252 3.062 8.01 3.194 7.767 3.499 7.679 3.74 7.812l10.5 5.75c.242.133.331.437.198.679C14.348 14.406 14.177 14.5 14 14.5zM24.5 20.25c-.082 0-.164-.02-.24-.062l-4-2.19c-.242-.133-.331-.437-.198-.679s.438-.331.679-.198l4 2.19c.242.133.331.437.198.679C24.848 20.156 24.677 20.25 24.5 20.25z"/><path d="M14 26c-.276 0-.5-.224-.5-.5V14c0-.276.224-.5.5-.5s.5.224.5.5v11.5C14.5 25.776 14.276 26 14 26zM14 7c-.276 0-.5-.224-.5-.5v-4C13.5 2.224 13.724 2 14 2s.5.224.5.5v4C14.5 6.776 14.276 7 14 7z"/></svg>