<svg xmlns="http://www.w3.org/2000/svg" viewBox="0 0 24 24"><g data-name="layout 47"><rect width="7" height="7" x="14" y="14" fill="#55abff" rx="2"/><rect width="7" height="7" x="3" y="3" fill="#55abff" rx="2"/><path fill="#0078ee" d="M8 2H5A3 3 0 0 0 2 5V8a3 3 0 0 0 3 3H8a3 3 0 0 0 3-3V5A3 3 0 0 0 8 2zM9 8A1 1 0 0 1 8 9H5A1 1 0 0 1 4 8V5A1 1 0 0 1 5 4H8A1 1 0 0 1 9 5zM19 13H16a3 3 0 0 0-3 3v3a3 3 0 0 0 3 3h3a3 3 0 0 0 3-3V16A3 3 0 0 0 19 13zm1 6a1 1 0 0 1-1 1H16a1 1 0 0 1-1-1V16a1 1 0 0 1 1-1h3a1 1 0 0 1 1 1zM14 5h7a1 1 0 0 0 0-2H14a1 1 0 0 0 0 2zM21 8H14a1 1 0 0 0 0 2h7a1 1 0 0 0 0-2zM10 14H3a1 1 0 0 0 0 2h7a1 1 0 0 0 0-2zM10 19H3a1 1 0 0 0 0 2h7a1 1 0 0 0 0-2z"/></g></svg>