<svg xmlns="http://www.w3.org/2000/svg" viewBox="0 0 32 32"><defs><clipPath id="a"><circle cx="17.46" cy="17.46" r="10.54" fill="none"/></clipPath></defs><g clip-path="url(#a)"><polygon fill="#fdd835" points="23.55 28.01 28.01 20.29 28.01 28.01 23.55 28.01"/><polygon fill="#fdd835" points="23.36 28.01 28.01 19.96 28.01 20.29 23.55 28.01 23.36 28.01"/><polygon fill="#fdd836" points="23.17 28.01 28.01 19.63 28.01 19.96 23.36 28.01 23.17 28.01"/><polygon fill="#fdd837" points="22.98 28.01 28.01 19.29 28.01 19.63 23.17 28.01 22.98 28.01"/><polygon fill="#fdd938" points="22.78 28.01 28.01 18.96 28.01 19.29 22.98 28.01 22.78 28.01"/><polygon fill="#fdd939" points="22.59 28.01 28.01 18.63 28.01 18.96 22.78 28.01 22.59 28.01"/><polygon fill="#fdd93a" points="22.4 28.01 28.01 18.3 28.01 18.63 22.59 28.01 22.4 28.01"/><polygon fill="#fdd93b" points="22.21 28.01 28.01 17.96 28.01 18.3 22.4 28.01 22.21 28.01"/><polygon fill="#fdd93c" points="22.02 28.01 28.01 17.63 28.01 17.96 22.21 28.01 22.02 28.01"/><polygon fill="#fdda3d" points="21.82 28.01 28.01 17.3 28.01 17.63 22.02 28.01 21.82 28.01"/><polygon fill="#fdda3e" points="21.63 28.01 28.01 16.97 28.01 17.3 21.82 28.01 21.63 28.01"/><polygon fill="#fdda3f" points="21.44 28.01 28.01 16.64 28.01 16.97 21.63 28.01 21.44 28.01"/><polygon fill="#fdda40" points="21.25 28.01 28.01 16.3 28.01 16.64 21.44 28.01 21.25 28.01"/><polygon fill="#fdda41" points="21.06 28.01 28.01 15.97 28.01 16.3 21.25 28.01 21.06 28.01"/><polygon fill="#fdda42" points="20.87 28.01 28.01 15.64 28.01 15.97 21.06 28.01 20.87 28.01"/><polygon fill="#fddb43" points="20.68 28.01 28.01 15.31 28.01 15.64 20.87 28.01 20.68 28.01"/><polygon fill="#fddb44" points="20.48 28.01 28.01 14.98 28.01 15.31 20.68 28.01 20.48 28.01"/><polygon fill="#fddb45" points="20.29 28.01 28.01 14.64 28.01 14.98 20.48 28.01 20.29 28.01"/><polygon fill="#fddb46" points="20.1 28.01 28.01 14.31 28.01 14.64 20.29 28.01 20.1 28.01"/><polygon fill="#fddb47" points="19.91 28.01 28.01 13.98 28.01 14.31 20.1 28.01 19.91 28.01"/><polygon fill="#fddc48" points="19.72 28.01 28.01 13.65 28.01 13.98 19.91 28.01 19.72 28.01"/><polygon fill="#fddc49" points="19.52 28.01 28.01 13.31 28.01 13.65 19.72 28.01 19.52 28.01"/><polygon fill="#fddc4a" points="19.33 28.01 28.01 12.98 28.01 13.31 19.52 28.01 19.33 28.01"/><polygon fill="#fddc4b" points="19.14 28.01 28.01 12.65 28.01 12.98 19.33 28.01 19.14 28.01"/><polygon fill="#fddc4c" points="18.95 28.01 28.01 12.32 28.01 12.65 19.14 28.01 18.95 28.01"/><polygon fill="#fddd4d" points="18.76 28.01 28.01 11.99 28.01 12.32 18.95 28.01 18.76 28.01"/><polygon fill="#fddd4e" points="18.57 28.01 28.01 11.65 28.01 11.99 18.76 28.01 18.57 28.01"/><polygon fill="#fddd4f" points="18.37 28.01 28.01 11.32 28.01 11.65 18.57 28.01 18.37 28.01"/><polygon fill="#fddd50" points="18.18 28.01 28.01 10.99 28.01 11.32 18.37 28.01 18.18 28.01"/><polygon fill="#fddd51" points="17.99 28.01 28.01 10.66 28.01 10.99 18.18 28.01 17.99 28.01"/><polygon fill="#fdde52" points="17.8 28.01 28.01 10.32 28.01 10.66 17.99 28.01 17.8 28.01"/><polygon fill="#fdde53" points="17.61 28.01 28.01 9.99 28.01 10.32 17.8 28.01 17.61 28.01"/><polygon fill="#fdde54" points="17.41 28.01 28.01 9.66 28.01 9.99 17.61 28.01 17.41 28.01"/><polygon fill="#fdde55" points="17.22 28.01 28.01 9.33 28.01 9.66 17.41 28.01 17.22 28.01"/><polygon fill="#fdde56" points="17.03 28.01 28.01 9 28.01 9.33 17.22 28.01 17.03 28.01"/><polygon fill="#fdde57" points="16.84 28.01 28.01 8.66 28.01 9 17.03 28.01 16.84 28.01"/><polygon fill="#fddf58" points="16.65 28.01 28.01 8.33 28.01 8.66 16.84 28.01 16.65 28.01"/><polygon fill="#fddf59" points="16.45 28.01 28.01 8 28.01 8.33 16.65 28.01 16.45 28.01"/><polygon fill="#fddf5a" points="16.26 28.01 28.01 7.67 28.01 8 16.45 28.01 16.26 28.01"/><polygon fill="#fddf5b" points="16.07 28.01 28.01 7.34 28.01 7.67 16.26 28.01 16.07 28.01"/><polygon fill="#fddf5c" points="15.88 28.01 27.86 7.25 28.01 7.33 28.01 7.34 16.07 28.01 15.88 28.01"/><polygon fill="#fde05d" points="15.69 28.01 27.72 7.17 27.86 7.25 15.88 28.01 15.69 28.01"/><polygon fill="#fde05e" points="15.5 28.01 27.58 7.08 27.72 7.17 15.69 28.01 15.5 28.01"/><polygon fill="#fde05f" points="15.3 28.01 27.43 7 27.58 7.08 15.5 28.01 15.3 28.01"/><polygon fill="#fde060" points="15.11 28.01 27.29 6.92 27.43 7 15.3 28.01 15.11 28.01"/><polygon fill="#fde061" points="14.92 28.01 27.1 6.92 27.29 6.92 27.29 6.92 15.11 28.01 14.92 28.01"/><polygon fill="#fde162" points="14.73 28.01 26.91 6.92 27.1 6.92 14.92 28.01 14.73 28.01"/><polygon fill="#fde163" points="14.54 28.01 26.71 6.92 26.91 6.92 14.73 28.01 14.54 28.01"/><polygon fill="#fde164" points="14.35 28.01 26.52 6.92 26.71 6.92 14.54 28.01 14.35 28.01"/><polygon fill="#fde165" points="14.15 28.01 26.33 6.92 26.52 6.92 14.35 28.01 14.15 28.01"/><polygon fill="#fde166" points="13.96 28.01 26.14 6.92 26.33 6.92 14.15 28.01 13.96 28.01"/><polygon fill="#fde267" points="13.77 28.01 25.95 6.92 26.14 6.92 13.96 28.01 13.77 28.01"/><polygon fill="#fde268" points="13.58 28.01 25.75 6.92 25.95 6.92 13.77 28.01 13.58 28.01"/><polygon fill="#fde269" points="13.39 28.01 25.56 6.92 25.75 6.92 13.58 28.01 13.39 28.01"/><polygon fill="#fde26a" points="13.2 28.01 25.37 6.92 25.56 6.92 13.39 28.01 13.2 28.01"/><polygon fill="#fde26b" points="13 28.01 25.18 6.92 25.37 6.92 13.2 28.01 13 28.01"/><polygon fill="#fde26c" points="12.81 28.01 24.99 6.92 25.18 6.92 13 28.01 12.81 28.01"/><polygon fill="#fde36d" points="12.62 28.01 24.8 6.92 24.99 6.92 12.81 28.01 12.62 28.01"/><polygon fill="#fde36e" points="12.43 28.01 24.6 6.92 24.8 6.92 12.62 28.01 12.43 28.01"/><polygon fill="#fde36f" points="12.24 28.01 24.41 6.92 24.6 6.92 12.43 28.01 12.24 28.01"/><polygon fill="#fde370" points="12.04 28.01 24.22 6.92 24.41 6.92 12.24 28.01 12.04 28.01"/><polygon fill="#fde371" points="11.85 28.01 24.03 6.92 24.22 6.92 12.04 28.01 11.85 28.01"/><polygon fill="#fde472" points="11.66 28.01 23.84 6.92 24.03 6.92 11.85 28.01 11.66 28.01"/><polygon fill="#fde473" points="11.47 28.01 23.64 6.92 23.84 6.92 11.66 28.01 11.47 28.01"/><polygon fill="#fde475" points="11.28 28.01 23.45 6.92 23.64 6.92 11.47 28.01 11.28 28.01"/><polygon fill="#fde476" points="11.09 28.01 23.26 6.92 23.45 6.92 11.28 28.01 11.09 28.01"/><polygon fill="#fde477" points="10.89 28.01 23.07 6.92 23.26 6.92 11.09 28.01 10.89 28.01"/><polygon fill="#fde578" points="10.7 28.01 22.88 6.92 23.07 6.92 10.89 28.01 10.7 28.01"/><polygon fill="#fde579" points="10.51 28.01 22.69 6.92 22.88 6.92 10.7 28.01 10.51 28.01"/><polygon fill="#fde57a" points="10.32 28.01 22.49 6.92 22.69 6.92 10.51 28.01 10.32 28.01"/><polygon fill="#fde57b" points="10.13 28.01 22.3 6.92 22.49 6.92 10.32 28.01 10.13 28.01"/><polygon fill="#fde57c" points="9.94 28.01 22.11 6.92 22.3 6.92 10.13 28.01 9.94 28.01"/><polygon fill="#fde67d" points="9.74 28.01 21.92 6.92 22.11 6.92 9.94 28.01 9.74 28.01"/><polygon fill="#fde67e" points="9.55 28.01 21.73 6.92 21.92 6.92 9.74 28.01 9.55 28.01"/><polygon fill="#fde67f" points="9.36 28.01 21.54 6.92 21.73 6.92 9.55 28.01 9.36 28.01"/><polygon fill="#fde680" points="9.17 28.01 21.34 6.92 21.54 6.92 9.36 28.01 9.17 28.01"/><polygon fill="#fde681" points="8.98 28.01 21.15 6.92 21.34 6.92 9.17 28.01 8.98 28.01"/><polygon fill="#fde682" points="8.78 28.01 20.96 6.92 21.15 6.92 8.98 28.01 8.78 28.01"/><polygon fill="#fde783" points="8.59 28.01 20.77 6.92 20.96 6.92 8.78 28.01 8.59 28.01"/><polygon fill="#fde784" points="8.4 28.01 20.58 6.92 20.77 6.92 8.59 28.01 8.4 28.01"/><polygon fill="#fde785" points="8.21 28.01 20.39 6.92 20.58 6.92 8.4 28.01 8.21 28.01"/><polygon fill="#fde786" points="8.02 28.01 20.19 6.92 20.39 6.92 8.21 28.01 8.02 28.01"/><polygon fill="#fde787" points="7.83 28.01 20 6.92 20.19 6.92 8.02 28.01 7.83 28.01"/><polygon fill="#fde888" points="7.64 28.01 7.63 28 19.81 6.92 20 6.92 7.83 28.01 7.64 28.01"/><polygon fill="#fde889" points="7.63 28 7.49 27.92 19.62 6.92 19.81 6.92 7.63 28"/><polygon fill="#fde88a" points="7.49 27.92 7.35 27.84 19.43 6.92 19.62 6.92 7.49 27.92"/><polygon fill="#fde88b" points="7.35 27.84 7.2 27.75 19.23 6.92 19.43 6.92 7.35 27.84"/><polygon fill="#fde88c" points="7.2 27.75 7.06 27.67 19.04 6.92 19.23 6.92 7.2 27.75"/><polygon fill="#fde98d" points="7.06 27.67 6.92 27.59 6.92 27.59 18.85 6.92 19.04 6.92 7.06 27.67"/><polygon fill="#fde98e" points="6.92 27.25 18.66 6.92 18.85 6.92 6.92 27.59 6.92 27.25"/><polygon fill="#fde98f" points="6.92 26.92 18.47 6.92 18.66 6.92 6.92 27.25 6.92 26.92"/><polygon fill="#fde990" points="6.92 26.59 18.27 6.92 18.47 6.92 6.92 26.92 6.92 26.59"/><polygon fill="#fde991" points="6.92 26.26 18.08 6.92 18.27 6.92 6.92 26.59 6.92 26.26"/><polygon fill="#fdea92" points="6.92 25.93 17.89 6.92 18.08 6.92 6.92 26.26 6.92 25.93"/><polygon fill="#fdea93" points="6.92 25.59 17.7 6.92 17.89 6.92 6.92 25.93 6.92 25.59"/><polygon fill="#fdea94" points="6.92 25.26 17.51 6.92 17.7 6.92 6.92 25.59 6.92 25.26"/><polygon fill="#fdea95" points="6.92 24.93 17.32 6.92 17.51 6.92 6.92 25.26 6.92 24.93"/><polygon fill="#fdea96" points="6.92 24.6 17.13 6.92 17.32 6.92 6.92 24.93 6.92 24.6"/><polygon fill="#fdea97" points="6.92 24.27 16.93 6.92 17.13 6.92 6.92 24.6 6.92 24.27"/><polygon fill="#fdeb98" points="6.92 23.93 16.74 6.92 16.93 6.92 6.92 24.27 6.92 23.93"/><polygon fill="#fdeb99" points="6.92 23.6 16.55 6.92 16.74 6.92 6.92 23.93 6.92 23.6"/><polygon fill="#fdeb9a" points="6.92 23.27 16.36 6.92 16.55 6.92 6.92 23.6 6.92 23.27"/><polygon fill="#fdeb9b" points="6.92 22.94 16.17 6.92 16.36 6.92 6.92 23.27 6.92 22.94"/><polygon fill="#fdeb9c" points="6.92 22.6 15.97 6.92 16.17 6.92 6.92 22.94 6.92 22.6"/><polygon fill="#fdec9d" points="6.92 22.27 15.78 6.92 15.97 6.92 6.92 22.6 6.92 22.27"/><polygon fill="#fdec9e" points="6.92 21.94 15.59 6.92 15.78 6.92 6.92 22.27 6.92 21.94"/><polygon fill="#fdec9f" points="6.92 21.61 15.4 6.92 15.59 6.92 6.92 21.94 6.92 21.61"/><polygon fill="#fdeca0" points="6.92 21.28 15.21 6.92 15.4 6.92 6.92 21.61 6.92 21.28"/><polygon fill="#fdeca1" points="6.92 20.94 15.02 6.92 15.21 6.92 6.92 21.28 6.92 20.94"/><polygon fill="#fdeda2" points="6.92 20.61 14.82 6.92 15.02 6.92 6.92 20.94 6.92 20.61"/><polygon fill="#fdeda3" points="6.92 20.28 14.63 6.92 14.82 6.92 6.92 20.61 6.92 20.28"/><polygon fill="#fdeda4" points="6.92 19.95 14.44 6.92 14.63 6.92 6.92 20.28 6.92 19.95"/><polygon fill="#fdeda5" points="6.92 19.61 14.25 6.92 14.44 6.92 6.92 19.95 6.92 19.61"/><polygon fill="#fdeda6" points="6.92 19.28 14.06 6.92 14.25 6.92 6.92 19.61 6.92 19.28"/><polygon fill="#fdeea7" points="6.92 18.95 13.86 6.92 14.06 6.92 6.92 19.28 6.92 18.95"/><polygon fill="#fdeea8" points="6.92 18.62 13.67 6.92 13.86 6.92 6.92 18.95 6.92 18.62"/><polygon fill="#fdeea9" points="6.92 18.29 13.48 6.92 13.67 6.92 6.92 18.62 6.92 18.29"/><polygon fill="#fdeeaa" points="6.92 17.95 13.29 6.92 13.48 6.92 6.92 18.29 6.92 17.95"/><polygon fill="#fdeeab" points="6.92 17.62 13.1 6.92 13.29 6.92 6.92 17.95 6.92 17.62"/><polygon fill="#fdeeac" points="6.92 17.29 12.9 6.92 13.1 6.92 6.92 17.62 6.92 17.29"/><polygon fill="#fdefad" points="6.92 16.96 12.71 6.92 12.9 6.92 6.92 17.29 6.92 16.96"/><polygon fill="#fdefae" points="6.92 16.63 12.52 6.92 12.71 6.92 6.92 16.96 6.92 16.63"/><polygon fill="#fdefaf" points="6.92 16.29 12.33 6.92 12.52 6.92 6.92 16.63 6.92 16.29"/><polygon fill="#fdefb0" points="6.92 15.96 12.14 6.92 12.33 6.92 6.92 16.29 6.92 15.96"/><polygon fill="#fdefb1" points="6.92 15.63 11.95 6.92 12.14 6.92 6.92 15.96 6.92 15.63"/><polygon fill="#fdf0b2" points="6.92 15.3 11.76 6.92 11.95 6.92 6.92 15.63 6.92 15.3"/><polygon fill="#fdf0b3" points="6.92 14.96 11.56 6.92 11.76 6.92 6.92 15.3 6.92 14.96"/><polygon fill="#fdf0b4" points="6.92 14.63 11.37 6.92 11.56 6.92 6.92 14.96 6.92 14.63"/><polygon fill="#fdf0b4" points="11.37 6.92 6.92 14.63 6.92 6.92 11.37 6.92"/></g><path fill="#0d1935" d="M29,24.5H25.5V16.72a.5.5,0,0,0-1,0V24.5h-5v-10a.5.5,0,0,0-1,0v10h-5V20.36a.5.5,0,0,0-1,0V24.5h-5V14.66a.5.5,0,0,0-1,0V24.5h-3V14.85l2.56-2a1.62,1.62,0,0,0,.94.3,1.51,1.51,0,0,0,.79-.22l3.73,3.54a1.6,1.6,0,0,0-.18.72,1.66,1.66,0,1,0,3.32,0,1.64,1.64,0,0,0-.18-.73l3.74-3.64A1.6,1.6,0,0,0,19,13a1.68,1.68,0,0,0,1.31-.65l3,1.1s0,0,0,.07a1.68,1.68,0,1,0,.35-1l-3-1.11s0,0,0-.07a1.66,1.66,0,1,0-3.14.74l-3.74,3.63a1.59,1.59,0,0,0-.78-.2,1.6,1.6,0,0,0-.79.21L8.48,12.22a1.6,1.6,0,0,0,.18-.72,1.66,1.66,0,0,0-3.32,0,1.8,1.8,0,0,0,.11.57L3.5,13.59V7a.5.5,0,0,0-1,0V25a.5.5,0,0,0,.5.5H29a.5.5,0,0,0,0-1ZM25,12.91a.66.66,0,0,1,.66.65.66.66,0,1,1-1.32,0A.66.66,0,0,1,25,12.91Zm-6-2.19a.66.66,0,1,1-.66.66A.67.67,0,0,1,19,10.72ZM13.66,17.2a.66.66,0,1,1-1.32,0,.66.66,0,0,1,1.32,0ZM7,10.84a.66.66,0,1,1-.66.66A.67.67,0,0,1,7,10.84Z"/></svg>