<svg xmlns="http://www.w3.org/2000/svg" width="32" height="32" viewBox="0 0 32 32"><g transform="translate(459.661 -952.088)"><path fill="#ff5a67" stroke="#373449" d="m -442.60803,962.01505 1.50094,-2.085 c 0.26456,-0.3676 0.77345,-0.4505 1.14102,-0.1859 l 1.98172,1.4264 c 0.36756,0.2646 0.45046,0.7735 0.18589,1.1411 l -1.50093,2.085"/><path fill="#00d1b6" stroke="#373449" d="m -442.58977,962.02875 -7.16411,9.9012 -0.72857,4.5073 4.04295,-2.1215 7.15727,-9.9432 z"/><path fill="none" stroke="#373449" d="M-449.67155 971.49575l3.56713 2.5678M-452.99817 959.58985c-.67063 0-2.16486-.055-2.16486.9868 0 1.9318 0 3.6353 0 5.0009 0 .5955-1.40005 1.6537-1.40005 1.9856 0 .3319 1.42184 1.1411 1.42184 2.0133 0 .8721 0 4.4511 0 5.0297 0 1.104 1.79658.9789 2.14307.9789M-435.12799 959.58985c.67063 0 2.16486-.055 2.16486.9868 0 1.9318 0 3.6353 0 5.0009 0 .5955 1.40005 1.6537 1.40005 1.9856 0 .3319-1.42184 1.1411-1.42184 2.0133 0 .8721 0 4.4511 0 5.0297 0 1.104-1.79658.9789-2.14307.9789"/></g></svg>