<svg xmlns="http://www.w3.org/2000/svg" width="655.359" height="655.359" fill-rule="evenodd" clip-rule="evenodd" image-rendering="optimizeQuality" shape-rendering="geometricPrecision" text-rendering="geometricPrecision" viewBox="0 0 6.827 6.827"><path fill="#373435" d="M2.03217 2.16969l.866811 0 0 .707177c0 .115232-.045878.22472-.127287.306126-.0814055.0814055-.19089.127283-.306114.127283-.115232 0-.224717-.0458701-.306126-.127283-.0814094-.0814055-.127283-.190894-.127283-.306126l0-.707177zm.78663.0801772l-.706453 0 0 .627c0 .0939331.037437.183083.103791.249437.0663543.0663543.155508.103787.249441.103787.0939252 0 .183075-.037437.249429-.103787.0663543-.0663543.103791-.1555.103791-.249437l0-.627zM2.75925 2.12835l-.587346 0 0-.142043c0-.0780709.0310709-.15228.0862283-.207437.0551654-.0551654.129366-.0862323.207445-.0862323.0780709 0 .15228.0310709.207437.0862323.0551614.0551575.0862362.129362.0862362.207437l0 .142043zm-.507169-.080185l.426992 0 0-.0618583c0-.0567756-.0226496-.110646-.062752-.150752-.0401024-.0400984-.0939724-.0627402-.150744-.0627402-.0567756 0-.110642.0226378-.150748.0627441-.0401063.0400984-.062748.0939724-.062748.150748l0 .0618583z"/><path fill="#373435" d="M2.59881 1.7874c.00872047-.061122.0359252-.134295.0658228-.187504.0668071-.11889.170173-.192669.309051-.198854.0220591-.000980315.0407953.0162165.0417441.0382717.000948819.0220354-.0162087.0407283-.0382362.0417087-.111803.00497638-.191972.0658543-.244748.161441-.0247008.0447441-.0468543.105386-.0543504.156524-.00320472.0218819-.0235591.0370394-.045437.0338346-.0218898-.00320079-.0370709-.0235709-.0338465-.0454213zM2.25972 1.79174c-.0073622-.0508898-.0297874-.112016-.0543465-.1565-.0527677-.0955866-.132937-.156465-.244736-.161421-.0220354-.000980315-.0391969-.0196732-.0382441-.0417165.000952756-.0220472.0196811-.039248.0417362-.0382677.13885.00615748.242201.0798976.309012.198748.0298701.0531417.0571929.126524.0658701.187634.00318898.0218819-.0119646.0422047-.0338504.0454055-.0218937.00319685-.0422717-.0119803-.0454409-.0338819zM3.11163 2.19787l.0730945-.313969c.00499606-.0214449.0266575-.0349213.0481024-.0299291.0214488.00499606.0349252.0266535.0299331.0480984l-.0773819.332425c-.00135039.00578346-.00379528.0111732-.00720079.0158189l.00213386.00483465-.0167362.00738189c-.00042126.000208661-.000846457.000405512-.00127953.000594488l-.0180472.00796457-.000011811-.000023622-.269193.11876c-.0201535.00888976-.0439488-.000366142-.0528189-.0205236-.00886614-.0201496.000370079-.0439134.0205118-.0527992l.268894-.118634zM3.11265 2.91594l-.269583-.115807c-.0202362-.00869291-.0296929-.0324055-.0209921-.0526417.00870079-.0202323.0323976-.029685.0526299-.0209921l.287228.123362c.0118898.00511024.019815.0155039.023189.0277638l.139299.505283c.00586614.0212677-.00665354.0433543-.0279173.0492323-.0212677.00587795-.043378-.00665354-.0492441-.0279291l-.13461-.488272zM1.78722 2.27107l-.000011811.000023622-.0180472-.00796457c-.000429134-.000188976-.000858268-.000385827-.00127953-.000590551l-.0167323-.00738583.00212992-.00483465c-.00340551-.00464961-.00584646-.0100354-.00719291-.0158189l-.0773858-.332425c-.00499213-.0214449.00848425-.0431024.0299331-.0480984.0214488-.00499213.0431102.00848425.0481063.0299291l.0730827.313969.268902.118634c.0201339.00888583.029378.0326496.0205157.0527992-.00887795.0201575-.0326732.0294134-.0528268.0205236l-.269193-.11876zM1.81881 2.91594l-.134614.488272c-.00586614.0212756-.0279646.0338071-.0492402.0279291-.0212638-.00587795-.0337835-.0279646-.0279173-.0492323l.139295-.505283c.00337795-.0122598.011311-.0226339.0231969-.0277441l.287217-.123382c.0202362-.00869291.043937.000759843.0526339.0209921.00870472.0202362-.000748031.0439488-.0209882.0526417l-.269583.115807z"/><polygon fill="#373435" fill-rule="nonzero" points=".91 .853 4.166 .853 4.219 .853 4.219 .906 4.219 4.047 4.114 4.152 4.114 .959 .963 .959 .963 4.936 4.114 4.936 4.114 4.456 4.219 4.562 4.219 4.988 4.219 5.041 4.166 5.041 .91 5.041 .857 5.041 .857 4.988 .857 .906 .857 .853"/><path fill="#373435" fill-rule="nonzero" d="M1.45139 1.4553l1.5748e-005 -1.5748e-005c0.280102,-0.280094 0.64722,-0.42015 1.01432,-0.42015 0.367102,0 0.734224,0.140055 1.01432,0.42015l1.5748e-005 1.5748e-005 7.87402e-006 7.87402e-006c0.280098,0.280102 0.420154,0.647224 0.420154,1.01433 0,0.367106 -0.140055,0.734224 -0.420154,1.01433l-7.87402e-006 7.87402e-006 -7.87402e-006 7.87402e-006c-0.280098,0.280098 -0.64722,0.420154 -1.01433,0.420154 -0.367106,0 -0.734224,-0.140055 -1.01433,-0.420154l-7.87402e-006 -7.87402e-006 -1.5748e-005 -1.5748e-005c-0.280094,-0.280098 -0.42015,-0.647213 -0.42015,-1.01432 0,-0.367102 0.140055,-0.734224 0.42015,-1.01432l1.5748e-005 -1.5748e-005zm0.0744331 0.0744016l-1.5748e-005 1.5748e-005 -1.5748e-005 1.5748e-005c-0.259535,0.259543 -0.389311,0.599728 -0.389311,0.939906 0,0.340181 0.129776,0.680362 0.389311,0.939902l1.5748e-005 1.5748e-005 7.87402e-006 7.87402e-006c0.259547,0.259539 0.599732,0.389315 0.939913,0.389315 0.340181,0 0.68037,-0.129776 0.939909,-0.389315l7.87402e-006 -7.87402e-006 7.87402e-006 -7.87402e-006c0.259543,-0.259543 0.389319,-0.599728 0.389319,-0.939909 0,-0.340181 -0.129776,-0.680366 -0.389319,-0.939913l-7.87402e-006 -7.87402e-006 -1.5748e-005 -1.5748e-005c-0.259535,-0.259539 -0.599724,-0.389311 -0.939902,-0.389311 -0.340177,0 -0.680362,0.129772 -0.939906,0.389311z"/><polygon fill="#373435" fill-rule="nonzero" points="3.48 3.41 4.225 4.154 4.15 4.228 3.406 3.484"/><path fill="#373435" fill-rule="nonzero" d="M3.96867 4.27968l0.307102 -0.307098 0.0372087 -0.0372126 0.0372047 0.0372126 1.58202 1.58202 0.0372047 0.0372087 -0.0372047 0.0372087 -0.307102 0.307098 -0.0372126 0.0372087 -0.0372008 -0.0372087 -1.58202 -1.58202 -0.0372087 -0.0372126 0.0372087 -0.0372047zm0.344311 -0.195472l-0.232685 0.232681 1.5076 1.50761 0.232685 -0.232681 -1.5076 -1.50761z"/><path fill="#86ccd6" d="M0.9625 0.958587l0 3.97721 3.15119 0 0 -0.436685 -0.145016 -0.145016 -0.0372087 -0.0372126 0.0372087 -0.0372047 0.116343 -0.116343 -0.642827 -0.642823c-0.562547,0.523402 -1.44304,0.51122 -1.99081,-0.0365551 -0.560205,-0.560209 -0.560197,-1.46844 1.5748e-005,-2.02866 0.560217,-0.560217 1.46845,-0.560224 2.02868,7.87402e-006 0.547744,0.547748 0.559933,1.42822 0.0365315,1.99079l0.597083 0.597079 0 -3.08459 -3.15119 0z"/><polygon fill="#81868c" points="4.08 4.317 5.588 5.824 5.821 5.592 4.313 4.084"/><path fill="#edeae3" d="M1.52583 1.5297c-0.519122,0.519122 -0.519122,1.36076 -7.87402e-006,1.87986 0.519094,0.519087 1.36073,0.519091 1.87984,-1.5748e-005 0.519094,-0.519094 0.519098,-1.36072 -2.3622e-005,-1.87985 -0.519079,-0.519083 -1.36072,-0.519079 -1.87981,0zm1.61841 0.741362l0 0zm-1.35701 0l0 0zm0.244949 0.108063l-0.244961 -0.108039 -0.0180472 -0.00796457 -0.00127953 -0.000590551 -0.0167323 -0.00738583 0.00212992 -0.00483465c-0.00340551,-0.00464961 -0.00584646,-0.0100354 -0.00719291,-0.0158189l-0.0773858 -0.332425c-0.00499213,-0.0214449 0.00848425,-0.0431024 0.0299331,-0.0480984 0.0214488,-0.00499213 0.0431102,0.00848425 0.0481063,0.0299291l0.0730827 0.313969 0.212346 0.0936811 0 -0.121862 0.866811 0 0 0.122 0.212646 -0.0938189 0.0730945 -0.313969c0.00499606,-0.0214449 0.0266575,-0.0349213 0.0481024,-0.0299291 0.0214488,0.00499606 0.0349252,0.0266535 0.0299331,0.0480984l-0.0773819 0.332425c-0.00135039,0.00578346 -0.00379528,0.0111732 -0.00720079,0.0158189l0.00213386 0.00483465 -0.0167362 0.00738189 -0.00127953 0.000594488 -0.0180591 0.00794094 -0.245252 0.108197 0 0.357665 0.262953 0.112937c0.0118898,0.00511024 0.019815,0.0155039 0.023189,0.0277638l0.139299 0.505283c0.00586614,0.0212677 -0.00665354,0.0433543 -0.0279173,0.0492323 -0.0212677,0.00587795 -0.043378,-0.00665354 -0.0492441,-0.0279291l-0.13461 -0.488272 -0.213669 -0.0917874 0 0.0527087c0,0.115232 -0.045878,0.22472 -0.127287,0.306126 -0.0814055,0.0814055 -0.19089,0.127283 -0.306114,0.127283 -0.115232,0 -0.224717,-0.0458701 -0.306126,-0.127283 -0.0814094,-0.0814055 -0.127283,-0.190894 -0.127283,-0.306126l0 -0.0525787 -0.213362 0.0916575 -0.134614 0.488272c-0.00586614,0.0212756 -0.0279646,0.0338071 -0.0492402,0.0279291 -0.0212638,-0.00587795 -0.0337835,-0.0279646 -0.0279173,-0.0492323l0.139295 -0.505283c0.00337795,-0.0122598 0.011311,-0.0226339 0.0231969,-0.0277441l0.262642 -0.112827 0 -0.357929zm0.225504 -0.599799c-0.00891732,-0.0481654 -0.0297047,-0.103165 -0.0522953,-0.144087 -0.0527677,-0.0955866 -0.132937,-0.156465 -0.244736,-0.161421 -0.0220354,-0.000980315 -0.0391969,-0.0196732 -0.0382441,-0.0417165 0.000952756,-0.0220472 0.0196811,-0.039248 0.0417362,-0.0382677 0.13885,0.00615748 0.242201,0.0798976 0.309012,0.198748 0.0215709,0.038374 0.041811,0.0873071 0.0546654,0.134547 0.0419724,-0.022437 0.0891142,-0.0344961 0.137764,-0.0344961 0.0515709,0 0.101461,0.0135591 0.145283,0.0386614 0.0128661,-0.0462402 0.0326457,-0.0938031 0.0537717,-0.131402 0.0668071,-0.11889 0.170173,-0.192669 0.309051,-0.198854 0.0220591,-0.000980315 0.0407953,0.0162165 0.0417441,0.0382717 0.000948819,0.0220354 -0.0162087,0.0407283 -0.0382362,0.0417087 -0.111803,0.00497638 -0.191972,0.0658543 -0.244748,0.161441 -0.022689,0.0410984 -0.0432283,0.0956142 -0.0522323,0.143854 0.0506614,0.0542992 0.0790394,0.125374 0.0790394,0.199988l0 0.142043 -0.587346 0 0 -0.142043c0,-0.0778543 0.0308976,-0.151866 0.0857717,-0.206976z"/><path fill="#e7945e" d="M2.11235 2.35785l0 0.400713c0.000366142,0.00311024 0.000358268,0.00622441 0,0.00928346l0 0.109016c0,0.0939331 0.037437,0.183083 0.103791,0.249437 0.0663543,0.0663543 0.155508,0.103787 0.249441,0.103787 0.0939252,0 0.183075,-0.037437 0.249429,-0.103787 0.0663543,-0.0663543 0.103791,-0.1555 0.103791,-0.249437l0 -0.627 -0.706453 0 0 0.098874c0.000346457,0.00300394 0.000350394,0.00605906 0,0.00911417z"/><path fill="#c17f53" d="M2.11235 2.35785l0 0.400713c0.000366142,0.00311024 0.000358268,0.00622441 0,0.00928346l0 0.109016c0,0.0939331 0.037437,0.183083 0.103791,0.249437 0.0634646,0.0634646 0.147787,0.100469 0.237197,0.103571l0 -0.980008 -0.340988 0 0 0.098874c0.000346457,0.00300394 0.000350394,0.00605906 0,0.00911417z"/><path fill="#a77c59" d="M2.31483 1.83556c-0.0401063,0.0400984 -0.062748,0.0939724 -0.062748,0.150748l0 0.0618583 0.426992 0 0 -0.0618583c0,-0.0567756 -0.0226496,-0.110646 -0.062752,-0.150752 -0.0401024,-0.0400984 -0.0939724,-0.0627402 -0.150744,-0.0627402 -0.0567756,0 -0.110642,0.0226378 -0.150748,0.0627441z"/><path fill="#8e6b4e" d="M2.31483 1.83556c-0.0401063,0.0400984 -0.062748,0.0939724 -0.062748,0.150748l0 0.0618583 0.201256 0 0 -0.274996c-0.0522362,0.00300787 -0.101295,0.0251772 -0.138508,0.0623898z"/><circle cx="2.349" cy="1.908" r=".034" fill="#fffffe"/><path fill="#373435" fill-rule="nonzero" d="M2.34946 1.86714c0.0111575,0 0.0212913,0.00454331 0.0286378,0.0118858l1.1811e-005 -1.1811e-005c0.00733071,0.00733071 0.011874,0.0174646 0.011874,0.0286496 0,0.0111811 -0.00454331,0.0213189 -0.011874,0.0286496 -0.00733071,0.00733071 -0.0174685,0.011874 -0.0286496,0.011874 -0.011185,0 -0.0213189,-0.00454331 -0.0286496,-0.011874l1.1811e-005 -1.1811e-005c-0.00734252,-0.00734646 -0.0118858,-0.0174803 -0.0118858,-0.0286378 0,-0.0111535 0.00453937,-0.0212795 0.011874,-0.028626l1.1811e-005 -1.1811e-005 1.1811e-005 -1.1811e-005c0.00734646,-0.00733465 0.0174724,-0.011874 0.028626,-0.011874zm0.0192244 0.0212756c-0.00489764,-0.00490157 -0.0117008,-0.00793701 -0.0192244,-0.00793701 -0.00752756,0 -0.0143268,0.00303543 -0.0192244,0.00793701l-2.3622e-005 2.3622e-005c-0.00490157,0.00489764 -0.00793701,0.0116969 -0.00793701,0.0192244 0,0.00752362 0.00303543,0.0143268 0.00793701,0.0192244l2.3622e-005 0c0.00491339,0.00491339 0.0117126,0.00796063 0.0192244,0.00796063 0.00750787,0 0.014311,-0.00304724 0.0192244,-0.00796063 0.00491339,-0.00491339 0.00796063,-0.0117165 0.00796063,-0.0192244 0,-0.00751181 -0.00304724,-0.014311 -0.00796063,-0.0192244l0 -2.3622e-005z"/><circle cx="2.586" cy="1.908" r=".034" fill="#fffffe"/><path fill="#373435" fill-rule="nonzero" d="M2.58635 1.86714c0.0111575,0 0.0212913,0.00454331 0.0286378,0.0118858l1.1811e-005 -1.1811e-005c0.00733071,0.00733071 0.011874,0.0174646 0.011874,0.0286496 0,0.0111811 -0.00454331,0.0213189 -0.011874,0.0286496 -0.00733071,0.00733071 -0.0174685,0.011874 -0.0286496,0.011874 -0.011185,0 -0.0213189,-0.00454331 -0.0286496,-0.011874l1.1811e-005 -1.1811e-005c-0.00734252,-0.00734646 -0.0118858,-0.0174803 -0.0118858,-0.0286378 0,-0.0111535 0.00453937,-0.0212795 0.011874,-0.028626l1.1811e-005 -1.1811e-005 1.1811e-005 -1.1811e-005c0.00734646,-0.00733465 0.0174724,-0.011874 0.028626,-0.011874zm0.0192244 0.0212756c-0.00489764,-0.00490157 -0.0117008,-0.00793701 -0.0192244,-0.00793701 -0.00752756,0 -0.0143268,0.00303543 -0.0192244,0.00793701l-2.3622e-005 2.3622e-005c-0.00490157,0.00489764 -0.00793701,0.0116969 -0.00793701,0.0192244 0,0.00752362 0.00303543,0.0143268 0.00793701,0.0192244l2.3622e-005 0c0.00491339,0.00491339 0.0117126,0.00796063 0.0192244,0.00796063 0.00750787,0 0.014311,-0.00304724 0.0192244,-0.00796063 0.00491339,-0.00491339 0.00796063,-0.0117165 0.00796063,-0.0192244 0,-0.00751181 -0.00304724,-0.014311 -0.00796063,-0.0192244l0 -2.3622e-005z"/><rect width="6.827" height="6.827" fill="none"/></svg>