<svg height="504pt" viewBox="0 -11 504 503" width="504pt" xmlns="http://www.w3.org/2000/svg"><path d="m252 21.960938-230.539062 167.496093 88.058593 271.011719h284.960938l88.058593-271.011719zm0 0" fill="#f4efed"/><path d="m452.808594 199.203125-78.328125 261.265625h20l88.058593-271.011719zm0 0" fill="#d6d1cf"/><path d="m51.191406 199.203125 78.328125 261.265625h-20l-88.058593-271.011719zm0 0" fill="#fff"/><path d="m252 269.015625c-.421875 0-.839844-.066406-1.246094-.199219l-230.539062-75.558594c-2.097656-.691406-3.242188-2.949218-2.554688-5.046874.691406-2.101563 2.949219-3.246094 5.046875-2.554688l229.292969 75.152344 229.292969-75.152344c2.101562-.6875 4.359375.457031 5.046875 2.554688.6875 2.097656-.457032 4.359374-2.554688 5.046874l-230.539062 75.558594c-.40625.132813-.824219.199219-1.246094.199219zm0 0" fill="#690589"/><path d="m394.484375 464.46875c-1.234375 0-2.453125-.570312-3.238281-1.644531l-139.246094-191.019531-139.246094 191.019531c-1.304687 1.789062-3.804687 2.179687-5.589844.878906-1.785156-1.304687-2.175781-3.804687-.875-5.589844l142.480469-195.453125c.75-1.035156 1.953125-1.644531 3.230469-1.644531s2.480469.609375 3.230469 1.644531l142.480469 195.453125c1.300781 1.785157.910156 4.289063-.875 5.589844-.710938.519531-1.535157.765625-2.351563.765625zm0 0" fill="#690589"/><path d="m252 269.015625c-2.207031 0-4-1.792969-4-4v-243.054687c0-2.207032 1.792969-4 4-4s4 1.792968 4 4v243.054687c0 2.210937-1.792969 4-4 4zm0 0" fill="#690589"/><path d="m394.480469 464.46875h-284.960938c-1.734375 0-3.265625-1.113281-3.804687-2.761719l-88.058594-271.011719c-.535156-1.648437.054688-3.457031 1.457031-4.472656l230.535157-167.496094c1.402343-1.019531 3.300781-1.019531 4.707031 0l230.535156 167.496094c1.402344 1.015625 1.988281 2.824219 1.457031 4.472656l-88.058594 271.011719c-.539062 1.648438-2.074218 2.761719-3.808593 2.761719zm-282.054688-8h279.148438l86.261719-265.484375-225.835938-164.078125-225.835938 164.078125zm0 0" fill="#690589"/><path d="m334.21875 226.34375c0-46.476562-38.558594-83.945312-85.429688-82.160156-42.417968 1.613281-77.0625 36.042968-78.925781 78.449218-1.460937 33.21875 16.808594 62.308594 44.0625 76.578126v48.625c0 21.027343 17.042969 38.074218 38.074219 38.074218 21.027344 0 38.074219-17.042968 38.074219-38.074218v-48.625c26.234375-13.738282 44.144531-41.203126 44.144531-72.867188zm0 0" fill="#fcc24c"/><path d="m248.789062 144.183594c-1.316406.050781-2.628906.132812-3.929687.246094 42.195313 3.488281 75.359375 38.816406 75.359375 81.914062 0 31.664062-17.910156 59.128906-44.144531 72.867188v48.625c0 18.632812-13.390625 34.113281-31.070313 37.402343 2.269532.421875 4.605469.671875 7 .671875 21.027344 0 38.070313-17.046875 38.070313-38.074218v-48.628907c26.234375-13.734375 44.144531-41.199219 44.144531-72.867187 0-46.472656-38.558594-83.941406-85.429688-82.15625zm0 0" fill="#dea42e"/><path d="m255.210938 144.183594c1.316406.050781 2.628906.132812 3.929687.246094-42.195313 3.488281-75.359375 38.816406-75.359375 81.914062 0 31.664062 17.910156 59.128906 44.144531 72.867188v48.625c0 18.632812 13.390625 34.113281 31.074219 37.402343-2.273438.421875-4.605469.671875-7 .671875-21.027344 0-38.074219-17.046875-38.074219-38.074218v-48.628907c-26.234375-13.734375-44.144531-41.199219-44.144531-72.867187 0-46.472656 38.558594-83.941406 85.429688-82.15625zm0 0" fill="#fce06a"/><path d="m213.925781 347.835938c0 21.027343 17.042969 38.074218 38.074219 38.074218 21.027344 0 38.074219-17.042968 38.074219-38.074218v-48.625h-76.148438zm0 0" fill="#ff4397"/><path d="m276.074219 299.210938v48.625c0 18.632812-13.390625 34.113281-31.070313 37.402343 1.125.210938 2.273438.378907 3.429688.492188 1.109375.105469 2.230468.164062 3.363281.167969.070313 0 .136719.011718.203125.011718 21.027344 0 38.074219-17.046875 38.074219-38.074218v-48.628907h-14zm0 0" fill="#e12579"/><path d="m227.925781 299.210938v48.625c0 18.632812 13.390625 34.113281 31.074219 37.402343-1.128906.210938-2.273438.378907-3.433594.492188-1.109375.105469-2.226562.164062-3.363281.167969-.066406 0-.132813.011718-.199219.011718-21.03125 0-38.078125-17.046875-38.078125-38.074218v-48.628907h14zm0 0" fill="#ff61b5"/><path d="m38.925781 189.457031c0 9.644531-7.820312 17.460938-17.464843 17.460938-9.644532 0-17.460938-7.816407-17.460938-17.460938s7.816406-17.464843 17.460938-17.464843c9.644531 0 17.464843 7.820312 17.464843 17.464843zm0 0" fill="#7bac51"/><path d="m112.3125 443.226562c-9.519531-1.546874-18.488281 4.914063-20.039062 14.433594-1.546876 9.515625 4.914062 18.488282 14.429687 20.039063 9.519531 1.546875 18.492187-4.914063 20.039063-14.433594 1.550781-9.515625-4.910157-18.488281-14.429688-20.039063zm0 0" fill="#7bac51"/><path d="m397.269531 443.234375c-9.519531-1.550781-18.492187 4.910156-20.039062 14.429687-1.550781 9.519532 4.910156 18.492188 14.429687 20.039063 9.519532 1.550781 18.488282-4.910156 20.039063-14.429687 1.546875-9.519532-4.910157-18.492188-14.429688-20.039063zm0 0" fill="#7bac51"/><path d="m500 189.457031c0 9.644531-7.816406 17.460938-17.460938 17.460938-9.644531 0-17.464843-7.816407-17.464843-17.460938s7.820312-17.464843 17.464843-17.464843c9.644532 0 17.460938 7.820312 17.460938 17.464843zm0 0" fill="#7bac51"/><path d="m268.140625 15.277344c-3.691406-8.910156-13.90625-13.144532-22.816406-9.453125-8.910157 3.691406-13.140625 13.90625-9.453125 22.816406 3.691406 8.910156 13.90625 13.140625 22.816406 9.449219 8.910156-3.6875 13.140625-13.902344 9.453125-22.8125zm0 0" fill="#7bac51"/><path d="m264.703125 231.410156c0 7.019532-5.6875 12.707032-12.703125 12.707032s-12.703125-5.6875-12.703125-12.707032c0-7.015625 5.6875-12.703125 12.703125-12.703125s12.703125 5.6875 12.703125 12.703125zm0 0" fill="#7bac51"/><path d="m296.191406 256.820312c0 7.015626-5.6875 12.703126-12.703125 12.703126s-12.703125-5.6875-12.703125-12.703126c0-7.015624 5.6875-12.703124 12.703125-12.703124s12.703125 5.6875 12.703125 12.703124zm0 0" fill="#7bac51"/><path d="m233.214844 256.820312c0 7.015626-5.6875 12.703126-12.703125 12.703126s-12.703125-5.6875-12.703125-12.703126c0-7.015624 5.6875-12.703124 12.703125-12.703124s12.703125 5.6875 12.703125 12.703124zm0 0" fill="#7bac51"/><g fill="#690589"><path d="m252 303.210938c-2.207031 0-4-1.792969-4-4v-53.234376c0-2.207031 1.792969-4 4-4s4 1.792969 4 4v53.234376c0 2.210937-1.792969 4-4 4zm0 0"/><path d="m252 248.117188c-9.210938 0-16.703125-7.496094-16.703125-16.707032 0-9.207031 7.492187-16.703125 16.703125-16.703125s16.703125 7.496094 16.703125 16.703125c0 9.214844-7.492187 16.707032-16.703125 16.707032zm0-25.40625c-4.800781 0-8.703125 3.902343-8.703125 8.703124 0 4.800782 3.902344 8.703126 8.703125 8.703126 4.796875 0 8.703125-3.902344 8.703125-8.703126 0-4.800781-3.90625-8.703124-8.703125-8.703124zm0 0"/><path d="m283.488281 273.523438c-9.210937 0-16.703125-7.492188-16.703125-16.703126 0-9.210937 7.492188-16.703124 16.703125-16.703124 9.210938 0 16.703125 7.492187 16.703125 16.703124 0 9.210938-7.492187 16.703126-16.703125 16.703126zm0-25.40625c-4.800781 0-8.703125 3.902343-8.703125 8.703124 0 4.800782 3.902344 8.703126 8.703125 8.703126 4.796875 0 8.703125-3.902344 8.703125-8.703126 0-4.800781-3.90625-8.703124-8.703125-8.703124zm0 0"/><path d="m220.511719 273.523438c-9.210938 0-16.703125-7.492188-16.703125-16.703126 0-9.210937 7.492187-16.703124 16.703125-16.703124 9.210937 0 16.703125 7.492187 16.703125 16.703124 0 9.210938-7.492188 16.703126-16.703125 16.703126zm0-25.40625c-4.796875 0-8.703125 3.902343-8.703125 8.703124 0 4.800782 3.902344 8.703126 8.703125 8.703126s8.703125-3.902344 8.703125-8.703126c0-4.800781-3.902344-8.703124-8.703125-8.703124zm0 0"/><path d="m274.191406 287.71875h-44.382812c-7.332032 0-13.292969-5.964844-13.292969-13.296875v-3.039063c0-2.207031 1.789063-4 4-4 2.207031 0 4 1.792969 4 4v3.039063c0 2.921875 2.375 5.296875 5.292969 5.296875h44.382812c2.921875 0 5.296875-2.375 5.296875-5.296875v-3.039063c0-2.207031 1.792969-4 4-4s4 1.792969 4 4v3.039063c0 7.332031-5.964843 13.296875-13.296875 13.296875zm0 0"/><path d="m21.460938 210.921875c-11.832032 0-21.460938-9.628906-21.460938-21.464844 0-11.832031 9.628906-21.460937 21.460938-21.460937 11.835937 0 21.464843 9.628906 21.464843 21.460937 0 11.835938-9.628906 21.464844-21.464843 21.464844zm0-34.925781c-7.421876 0-13.460938 6.039062-13.460938 13.460937 0 7.425781 6.039062 13.464844 13.460938 13.464844 7.421874 0 13.464843-6.042969 13.464843-13.464844s-6.042969-13.460937-13.464843-13.460937zm0 0"/><path d="m109.519531 481.933594c-11.832031 0-21.460937-9.628906-21.460937-21.464844 0-11.832031 9.628906-21.460938 21.460937-21.460938 11.835938 0 21.460938 9.628907 21.460938 21.460938 0 11.835938-9.625 21.464844-21.460938 21.464844zm0-34.925782c-7.421875 0-13.460937 6.039063-13.460937 13.460938s6.039062 13.464844 13.460937 13.464844 13.460938-6.042969 13.460938-13.464844-6.039063-13.460938-13.460938-13.460938zm0 0"/><path d="m394.480469 481.933594c-11.835938 0-21.460938-9.628906-21.460938-21.464844 0-11.832031 9.625-21.460938 21.460938-21.460938 11.832031 0 21.460937 9.628907 21.460937 21.460938 0 11.835938-9.628906 21.464844-21.460937 21.464844zm0-34.925782c-7.421875 0-13.460938 6.039063-13.460938 13.460938s6.039063 13.464844 13.460938 13.464844 13.460937-6.042969 13.460937-13.464844-6.039062-13.460938-13.460937-13.460938zm0 0"/><path d="m482.539062 210.921875c-11.835937 0-21.464843-9.628906-21.464843-21.464844 0-11.832031 9.628906-21.460937 21.464843-21.460937 11.832032 0 21.460938 9.628906 21.460938 21.460937 0 11.835938-9.628906 21.464844-21.460938 21.464844zm0-34.925781c-7.421874 0-13.464843 6.039062-13.464843 13.460937s6.042969 13.464844 13.464843 13.464844c7.421876 0 13.460938-6.042969 13.460938-13.464844s-6.039062-13.460937-13.460938-13.460937zm0 0"/><path d="m252 43.425781c-11.835938 0-21.460938-9.628906-21.460938-21.464843 0-11.832032 9.625-21.460938 21.460938-21.460938s21.460938 9.628906 21.460938 21.460938c0 11.835937-9.625 21.464843-21.460938 21.464843zm0-34.925781c-7.421875 0-13.460938 6.039062-13.460938 13.460938 0 7.421874 6.039063 13.464843 13.460938 13.464843s13.460938-6.042969 13.460938-13.464843c0-7.421876-6.039063-13.460938-13.460938-13.460938zm0 0"/><path d="m252 389.910156c-23.199219 0-42.074219-18.875-42.074219-42.074218v-46.246094c-28.265625-15.84375-45.488281-46.632813-44.058593-79.132813 1.953124-44.441406 38.3125-80.578125 82.769531-82.269531 23.691406-.894531 46.117187 7.632812 63.152343 24.03125 17.046876 16.410156 26.429688 38.472656 26.429688 62.125 0 31.367188-16.847656 59.976562-44.144531 75.25v46.242188c0 23.199218-18.875 42.074218-42.074219 42.074218zm.027344-241.785156c-1.023438 0-2.050782.019531-3.082032.058594-40.332031 1.535156-73.3125 34.3125-75.085937 74.625-1.328125 30.226562 15.125 58.824218 41.921875 72.855468 1.320312.691407 2.144531 2.058594 2.144531 3.546876v48.625c0 18.789062 15.285157 34.074218 34.078125 34.074218 18.789063 0 34.074219-15.285156 34.074219-34.074218v-48.625c0-1.488282.824219-2.855469 2.144531-3.546876 25.90625-13.5625 42-40.125 42-69.320312 0-21.460938-8.515625-41.472656-23.980468-56.359375-14.714844-14.164063-33.867188-21.859375-54.214844-21.859375zm0 0"/><path d="m185.796875 227.339844c-.0625 0-.121094 0-.179687-.003906-2.207032-.097657-3.914063-1.964844-3.820313-4.175782.386719-8.804687 2.394531-17.363281 5.964844-25.441406.890625-2.019531 3.257812-2.933594 5.277343-2.039062 2.019532.890624 2.933594 3.253906 2.039063 5.273437-3.164063 7.164063-4.945313 14.753906-5.289063 22.558594-.09375 2.148437-1.863281 3.828125-3.992187 3.828125zm0 0"/><path d="m252 389.910156c-23.199219 0-42.074219-18.875-42.074219-42.074218v-48.625c0-2.207032 1.789063-4 4-4h76.148438c2.207031 0 4 1.792968 4 4v48.625c0 23.199218-18.875 42.074218-42.074219 42.074218zm-34.074219-86.699218v44.625c0 18.789062 15.285157 34.074218 34.074219 34.074218s34.074219-15.285156 34.074219-34.074218v-44.625zm0 0"/><path d="m288.453125 328.820312h-72.90625c-2.207031 0-4-1.789062-4-4 0-2.207031 1.792969-4 4-4h72.90625c2.207031 0 4 1.792969 4 4 0 2.210938-1.792969 4-4 4zm0 0"/><path d="m288.453125 356.703125h-72.90625c-2.207031 0-4-1.792969-4-4 0-2.210937 1.792969-4 4-4h72.90625c2.207031 0 4 1.789063 4 4 0 2.207031-1.792969 4-4 4zm0 0"/></g></svg>