<svg xmlns="http://www.w3.org/2000/svg" width="64" height="64" enable-background="new 0 0 64 64" viewBox="0 0 64 64"><path fill="#F6BB42" d="M62.499,8.001H33.093c-0.553,0-1-0.447-1-1s0.447-1,1-1h29.406c0.553,0,1,0.447,1,1
			S63.052,8.001,62.499,8.001z"/><path fill="#F6BB42" d="M62.499,10.998c-0.553,0-1-0.447-1-1V7.001c0-0.553,0.447-1,1-1s1,0.447,1,1v2.997
			C63.499,10.551,63.052,10.998,62.499,10.998z"/><path fill="#FFCE54" d="M35.501,28v-2c0-0.55-0.45-1-1-1h-17.01V10V5h14l1.6,2l2.4,3h27.01v33.01h-26.94h-0.06V38
		c0-0.55-0.45-1-1-1c0.55,0,1-0.45,1-1v-5V28z"/><polygon fill="#F6BB42" points="62.501 7 62.501 10 35.491 10 33.091 7"/><path fill="#FFCE54" d="M17.494 25.998c-.553 0-1-.447-1-1v-15c0-.553.447-1 1-1s1 .447 1 1v15C18.494 25.551 18.047 25.998 17.494 25.998zM62.499 44.008H35.564c-.553 0-1-.447-1-1s.447-1 1-1h25.935V9.998c0-.553.447-1 1-1s1 .447 1 1v33.01C63.499 43.561 63.052 44.008 62.499 44.008z"/><path fill="#FFCE54" d="M17.494,10.998c-0.553,0-1-0.447-1-1V5.001c0-0.553,0.447-1,1-1s1,0.447,1,1v4.997
			C18.494,10.551,18.047,10.998,17.494,10.998z"/><path fill="#FFCE54" d="M31.492,6.001H17.494c-0.553,0-1-0.447-1-1s0.447-1,1-1h13.998c0.553,0,1,0.447,1,1
			S32.045,6.001,31.492,6.001z"/><path fill="#FFCE54" d="M35.492,10.998c-0.294,0-0.584-0.128-0.781-0.375l-4-4.997c-0.345-0.432-0.274-1.061,0.156-1.406
			c0.433-0.346,1.062-0.275,1.406,0.156l3.998,4.997c0.346,0.432,0.275,1.061-0.155,1.406
			C35.932,10.927,35.711,10.998,35.492,10.998z"/><path fill="#F6BB42" d="M53.499 26.006H34.503c-.553 0-1-.447-1-1s.447-1 1-1h18.996c.553 0 1 .447 1 1S54.052 26.006 53.499 26.006zM53.499 29.005H35.503c-.553 0-1-.447-1-1s.447-1 1-1h17.996c.553 0 1 .447 1 1S54.052 29.005 53.499 29.005zM47.499 32.004H35.497c-.553 0-1-.447-1-1s.447-1 1-1h12.002c.553 0 1 .447 1 1S48.052 32.004 47.499 32.004z"/><path fill="#FFCE54" d="M62.499,10.998H35.491c-0.553,0-1-0.447-1-1s0.447-1,1-1h27.008c0.553,0,1,0.447,1,1
			S63.052,10.998,62.499,10.998z"/><path fill="#CCD1D9" d="M45.505,59.997c-0.553,0-1-0.447-1-1V46.999c0-0.553,0.447-1,1-1s1,0.447,1,1v11.998
			C46.505,59.55,46.058,59.997,45.505,59.997z"/><path fill="#CCD1D9" d="M45.505,59.997c-0.256,0-0.512-0.098-0.707-0.293c-0.391-0.391-0.391-1.023,0-1.414l1.999-1.999
			c0.391-0.391,1.023-0.391,1.414,0s0.391,1.023,0,1.414l-1.999,1.999C46.017,59.899,45.761,59.997,45.505,59.997z"/><path fill="#CCD1D9" d="M45.505 59.997c-.256 0-.512-.098-.707-.293l-1.999-1.999c-.391-.391-.391-1.023 0-1.414s1.023-.391 1.414 0l1.999 1.999c.391.391.391 1.023 0 1.414C46.017 59.899 45.761 59.997 45.505 59.997zM53.505 59.997c-.553 0-1-.447-1-1V46.999c0-.553.447-1 1-1s1 .447 1 1v11.998C54.505 59.55 54.058 59.997 53.505 59.997z"/><path fill="#CCD1D9" d="M51.506,49.998c-0.256,0-0.512-0.098-0.707-0.293c-0.391-0.391-0.391-1.023,0-1.414l1.999-1.999
			c0.391-0.391,1.023-0.391,1.414,0s0.391,1.023,0,1.414l-1.999,1.999C52.018,49.9,51.762,49.998,51.506,49.998z"/><path fill="#CCD1D9" d="M55.504,49.998c-0.256,0-0.512-0.098-0.707-0.293l-1.999-1.999c-0.391-0.391-0.391-1.023,0-1.414
			s1.023-0.391,1.414,0l1.999,1.999c0.391,0.391,0.391,1.023,0,1.414C56.016,49.9,55.76,49.998,55.504,49.998z"/><path fill="#545C66" d="M35.501,42.009v4.99c0,0.55-0.45,1-1,1h-33c-0.55,0-1-0.45-1-1v-10c0-0.55,0.45-1,1-1h33
			c0.55,0,1,0.45,1,1V42.009z"/><path fill="#656D78" d="M35.501 48.999v10c0 .55-.45 1-1 1h-33c-.55 0-1-.45-1-1v-10c0-.55.45-1 1-1h33C35.051 47.999 35.501 48.449 35.501 48.999zM35.501 24.999v2 3 5c0 .55-.45 1-1 1h-33c-.55 0-1-.45-1-1v-10c0-.55.45-1 1-1h15.99 17.01C35.051 23.999 35.501 24.449 35.501 24.999z"/><path fill="#5D9CEC" d="M8.501 41.999c0-1.11-.9-2-2-2s-2 .89-2 2c0 1.1.9 2 2 2S8.501 43.099 8.501 41.999zM6.501 27.999c1.1 0 2 .89 2 2 0 1.1-.9 2-2 2s-2-.9-2-2C4.501 28.889 5.401 27.999 6.501 27.999zM6.501 51.999c1.1 0 2 .89 2 2 0 1.1-.9 2-2 2s-2-.9-2-2C4.501 52.889 5.401 51.999 6.501 51.999z"/><path fill="#545C66" d="M22.502 31.998c-.15 0-.303-.034-.446-.105-.494-.247-.694-.848-.447-1.342l1-2c.248-.494.848-.693 1.342-.447.494.247.694.848.447 1.342l-1 2C23.222 31.796 22.869 31.998 22.502 31.998zM26.502 31.998c-.15 0-.303-.034-.446-.105-.494-.247-.694-.848-.447-1.342l1-2c.248-.494.849-.693 1.342-.447.494.247.694.848.447 1.342l-1 2C27.222 31.796 26.869 31.998 26.502 31.998zM30.502 31.998c-.15 0-.303-.034-.446-.105-.494-.247-.694-.848-.447-1.342l1-2c.248-.494.848-.693 1.342-.447.494.247.694.848.447 1.342l-1 2C31.222 31.796 30.869 31.998 30.502 31.998z"/><path fill="#434A54" d="M22.502 43.998c-.15 0-.303-.034-.446-.105-.494-.247-.694-.848-.447-1.342l1-2c.248-.495.848-.693 1.342-.447.494.247.694.848.447 1.342l-1 2C23.222 43.796 22.869 43.998 22.502 43.998zM26.502 43.998c-.15 0-.303-.034-.446-.105-.494-.247-.694-.848-.447-1.342l1-2c.248-.495.849-.693 1.342-.447.494.247.694.848.447 1.342l-1 2C27.222 43.796 26.869 43.998 26.502 43.998zM30.502 43.998c-.15 0-.303-.034-.446-.105-.494-.247-.694-.848-.447-1.342l1-2c.248-.495.848-.693 1.342-.447.494.247.694.848.447 1.342l-1 2C31.222 43.796 30.869 43.998 30.502 43.998z"/><path fill="#545C66" d="M22.502 55.998c-.15 0-.303-.034-.446-.105-.494-.247-.694-.848-.447-1.342l1-2c.248-.494.848-.692 1.342-.447.494.247.694.848.447 1.342l-1 2C23.222 55.796 22.869 55.998 22.502 55.998zM26.502 55.998c-.15 0-.303-.034-.446-.105-.494-.247-.694-.848-.447-1.342l1-2c.248-.494.849-.692 1.342-.447.494.247.694.848.447 1.342l-1 2C27.222 55.796 26.869 55.998 26.502 55.998zM30.502 55.998c-.15 0-.303-.034-.446-.105-.494-.247-.694-.848-.447-1.342l1-2c.248-.494.848-.692 1.342-.447.494.247.694.848.447 1.342l-1 2C31.222 55.796 30.869 55.998 30.502 55.998z"/></svg>