<svg id="line" height="512" viewBox="0 0 64 64" width="512" xmlns="http://www.w3.org/2000/svg"><path d="m62.63 21.156a1 1 0 0 0 -1.673-.45l-2.582 2.582a4 4 0 0 1 -5.657-5.657l2.582-2.582a1 1 0 0 0 -.45-1.673 10.988 10.988 0 0 0 -13.736 12.1l-15.636 15.638a10.988 10.988 0 0 0 -12.1 13.736 1 1 0 0 0 1.673.45l2.582-2.582a4 4 0 0 1 5.657 5.657l-2.582 2.582a1 1 0 0 0 .45 1.673 10.989 10.989 0 0 0 13.736-12.1l15.634-15.638a10.989 10.989 0 0 0 12.1-13.736z" fill="#c4a2fc"/><path d="m44 11h-10v-2h3a1 1 0 0 0 1-1v-4a3 3 0 0 0 -3-3h-20a3 3 0 0 0 -3 3v4a1 1 0 0 0 1 1h3v2h-10a5.006 5.006 0 0 0 -5 5v28a3 3 0 0 0 3 3h42a3 3 0 0 0 3-3v-28a5.006 5.006 0 0 0 -5-5zm-36 34h-4a1 1 0 0 1 -1-1v-24h5zm0-27h-5v-2a3 3 0 0 1 3-3h2zm6 27h-4v-32h4zm0-38v-3a1 1 0 0 1 1-1h20a1 1 0 0 1 1 1v3zm18 2v2h-14v-2zm2 36h-18v-25h18zm0-27h-18v-5h18zm6 27h-4v-32h4zm7-1a1 1 0 0 1 -1 1h-4v-25h5zm0-26h-5v-5h2a3 3 0 0 1 3 3z" fill="#151a6a"/></svg>