<?xml version="1.0" encoding="UTF-8"?>
<svg xmlns="http://www.w3.org/2000/svg" id="line" width="512" height="512" viewBox="0 0 64 64"><path d="M59,45a1,1,0,0,0,0-2H56V37h3a1,1,0,0,0,0-2H56V32a3.0033,3.0033,0,0,0-3-3H50V26a1,1,0,0,0-2,0v3H42V26a1,1,0,0,0-2,0v3H34V26a1,1,0,0,0-2,0v3H29a3.0033,3.0033,0,0,0-3,3v3H23a1,1,0,0,0,0,2h3v6H23a1,1,0,0,0,0,2h3v6H23a1,1,0,0,0,0,2h3v3a3.0033,3.0033,0,0,0,3,3h3v3a1,1,0,0,0,2,0V59h6v3a1,1,0,0,0,2,0V59h6v3a1,1,0,0,0,2,0V59h3a3.0033,3.0033,0,0,0,3-3V53h3a1,1,0,0,0,0-2H56V45Zm-7,9a1,1,0,0,1-1,1H31a1,1,0,0,1-1-1V34a1,1,0,0,1,1-1H51a1,1,0,0,1,1,1Z" style="fill:#c4a2fc"/><rect x="32" y="35" width="18" height="18" style="fill:#c4a2fc"/><path d="M36.9493,27.3779a24.1261,24.1261,0,0,0,4.0273-12.3095A1.9374,1.9374,0,0,0,39.9418,13.26a8.0232,8.0232,0,0,0-5.1795-6.763A4.9928,4.9928,0,0,0,30,3a4.3858,4.3858,0,0,0-.6661.0518,7.9591,7.9591,0,0,0-10.6679,0A4.3855,4.3855,0,0,0,18,3a4.9927,4.9927,0,0,0-4.7622,3.4971,8.0224,8.0224,0,0,0-5.1838,6.8158,1.9819,1.9819,0,0,0-.45.3707,2.0286,2.0286,0,0,0-.479,1.6094c.0381.2773.083.5547.1352.8271a14.7819,14.7819,0,0,1-1.1562,9.4365L4.1055,29.5527A1,1,0,0,0,4.4,30.8l3.5136,2.6357-.5117,3.0713A3,3,0,0,0,10.3609,40h5.4585l-.8057,4.8359A1,1,0,0,0,16,46H36a1,1,0,0,0,.9912-1.1318L35.4957,33.6523A9.1354,9.1354,0,0,1,36.9493,27.3779ZM13.0754,8.7866A4.8756,4.8756,0,0,0,13.67,10.502,1,1,0,0,0,15.4009,9.5a3.0005,3.0005,0,0,1,4.7207-3.6211,1,1,0,1,0,1.4141-1.4141,4.6581,4.6581,0,0,0-.6863-.5559,5.9163,5.9163,0,0,1,6.2962-.0036,4.9277,4.9277,0,0,0-.6812.56,1,1,0,0,0,1.4141,1.4141,3.0009,3.0009,0,0,1,4.72,3.6231,1,1,0,0,0,1.73,1.0019,4.9491,4.9491,0,0,0,.5971-1.7164A6.0242,6.0242,0,0,1,37.9151,13H10.085A6.0256,6.0256,0,0,1,13.0754,8.7866ZM33.5132,33.916,34.858,44H17.1807l.8057-4.8359A1,1,0,0,0,17,38H10.3609a.999.999,0,0,1-.9863-1.165l.6118-3.6709A.9986.9986,0,0,0,9.6,32.2l-3.3326-2.499,1.625-3.25A16.7619,16.7619,0,0,0,9.2247,15.748c-.0454-.24-.0855-.4824-.1172-.748L15,15.001v1.1622a3.5,3.5,0,1,0,2,0V15.0013l6,.001v7.1609a3.5,3.5,0,1,0,2,0V15.0026l6,.001v1.16a3.5,3.5,0,1,0,2,0V15.0039l5.9775.001a22.1134,22.1134,0,0,1-3.6924,11.2637A11.1318,11.1318,0,0,0,33.5132,33.916ZM16,18a1.5,1.5,0,1,1-1.5,1.5A1.5017,1.5017,0,0,1,16,18Zm8,6a1.5,1.5,0,1,1-1.5,1.5A1.5017,1.5017,0,0,1,24,24Zm8-6a1.5,1.5,0,1,1-1.5,1.5A1.5017,1.5017,0,0,1,32,18Z" style="fill:#151a6a"/></svg>
