<svg xmlns="http://www.w3.org/2000/svg" width="2381.1" height="2381.101"><path fill="#485EFF" d="M128.659 1513.636s9.701 330.875 2132.907 330.875l-2132.907 26.765v-357.64zm0-1386.619s-8.295 1301.447 2132.907 1301.447H120.364l8.295-1301.447z" opacity=".3"/><path fill="#284172" d="M2235.885 41.855H154.344C95.165 41.855 46.99 92.1 46.99 153.748v1664.03c0 61.645 48.175 111.898 107.354 111.898h754.809l-48.523 329.127H729.514c-22.522 0-40.813 19.066-40.813 42.506 0 23.523 18.291 42.59 40.813 42.59h931.196c22.522 0 40.813-19.063 40.813-42.59 0-23.439-18.29-42.506-40.813-42.506h-132.375l-48.523-329.127h756.073c59.179 0 107.321-50.254 107.321-111.898V153.749c.001-61.648-48.142-111.894-107.321-111.894zM943.278 2258.804l48.529-329.127h405.313l48.636 329.127H943.278zm1318.288-414.293H128.659v-330.875h2132.907v330.875zm0-416.047H128.659V127.017h2132.907v1301.447z"/><path fill="#5C77FF" d="M1195.131 1629.267c-35.461 0-64.331 28.867-64.331 64.322 0 35.461 28.866 64.332 64.331 64.332 35.456 0 64.295-28.865 64.295-64.332 0-35.455-28.838-64.322-64.295-64.322zm897.632-454.995h-379.022V669.685c0-21.83-17.7-39.53-39.53-39.53s-39.529 17.7-39.529 39.53v504.588h-423.203V376.698c0-21.83-17.701-39.53-39.53-39.53-21.83 0-39.53 17.7-39.53 39.53v797.575H709.215V837.105c0-21.83-17.7-39.53-39.53-39.53-21.829 0-39.53 17.7-39.53 39.53v337.167H292.987c-21.83 0-39.53 17.702-39.53 39.53 0 21.83 17.7 39.531 39.53 39.531h1799.776c21.83 0 39.53-17.701 39.53-39.531.001-21.828-17.699-39.53-39.53-39.53z"/></svg>