<svg xmlns="http://www.w3.org/2000/svg" enable-background="new 0 0 24 24" viewBox="0 0 24 24"><path fill="#FF7A55" d="M18.054 22.127c-2.166 0-3.781-1.144-4.373-2.496-.103-.234-.012-.507.209-.634l1.754-1.007c.23-.132.521-.062.667.158.447.677.78.936 1.373 1.067.505.061.996-.037 1.198-.256.038-.042.153-.166.091-.49-.176-.561-2.024-.892-3.278-1.83-.74-.498-1.25-1.367-1.377-2.369-.126-.995.149-1.959.757-2.647.965-1.192 2.525-1.181 2.626-1.213 1.429-.033 2.418.333 3.151 1.154.2.194.358.419.61.811.149.231.083.545-.157.694-.687.428-.687.428-1.673 1.072-.249.163-.595.073-.726-.206-.143-.304-.367-.517-.63-.598-.296-.09-.747-.035-.818.268-.022.079-.041.139.04.429.301.642 4.611 1.293 4.611 3.901C22.11 20.667 20.866 22.127 18.054 22.127zM6.095 19.982c-.112-.231-.031-.509.188-.644l1.749-1.078c.231-.142.541-.112.773.289.237.397.369.566.624.694.101-.002.649.157.833-.226.151-.32.092-8.045.092-7.945 0-.276.224-.5.5-.5h2.154c.29 0 .52.246.499.536.009 7.637.148 8.305-.444 9.386-.366.747-1.092 1.32-2.036 1.592C9.027 22.536 7.055 21.963 6.095 19.982z"/><path fill="#110638" d="M23.5,24h-23C0.224,24,0,23.776,0,23.5v-23C0,0.224,0.224,0,0.5,0h23C23.776,0,24,0.224,24,0.5v23C24,23.776,23.776,24,23.5,24z M1,23h22V1H1V23z"/></svg>