<svg xmlns="http://www.w3.org/2000/svg" enable-background="new 0 0 66 66" viewBox="0 0 66 66"><path fill="#fdf1da" d="M55.93 47.22c-.38 0-.68.31-.68.68 0 .38.31.68.68.68.38 0 .68-.3.68-.68C56.61 47.53 56.3 47.22 55.93 47.22zM34.07 7.57c.4 0 .71-.32.71-.71 0-.39-.32-.71-.71-.71-.39 0-.71.32-.71.71C33.36 7.26 33.68 7.57 34.07 7.57z"/><circle cx="2.89" cy="35.97" r=".71" fill="#fdf1da"/><circle cx="1.71" cy="16.49" r=".71" fill="#fdf1da"/><path fill="#fdf1da" d="M46.31 11.21c1.07 0 1.93-.87 1.93-1.93 0-1.07-.87-1.93-1.93-1.93-1.07 0-1.93.87-1.93 1.93C44.37 10.35 45.24 11.21 46.31 11.21zM46.31 7.87c.78 0 1.41.63 1.41 1.41 0 .78-.63 1.41-1.41 1.41-.78 0-1.41-.63-1.41-1.41C44.89 8.5 45.53 7.87 46.31 7.87zM3.8 45.4c-1.07 0-1.93.87-1.93 1.93 0 1.07.87 1.93 1.93 1.93 1.07 0 1.93-.87 1.93-1.93C5.73 46.26 4.86 45.4 3.8 45.4zM3.8 48.74c-.78 0-1.41-.63-1.41-1.41s.63-1.41 1.41-1.41c.78 0 1.41.63 1.41 1.41S4.58 48.74 3.8 48.74zM61.35 57.2c-.04-.03-.06-.07-.05-.12l.05-.65c.01-.12-.12-.19-.22-.13l-.55.36c-.04.03-.09.03-.13.01l-.61-.25c-.11-.04-.22.05-.19.17l.17.63c.01.04 0 .09-.03.13l-.42.5c-.07.09-.02.22.1.23l.66.03c.05 0 .09.03.11.07l.35.56c.06.1.21.08.25-.02l.23-.61c.02-.04.05-.08.1-.09l.64-.16c.11-.03.14-.17.05-.24L61.35 57.2z"/><path fill="#fdf1da" d="M60.85,34.95H45.08c0.18,0,0.36-0.01,0.53-0.04c-1.93-0.25-3.56-1.74-3.75-3.71c-0.21-2.25,1.38-4.17,3.49-4.5H58.5c2.29,0,4.15-1.86,4.15-4.15c0-2.29-1.86-4.15-4.15-4.15H37.19c2.29-0.01,4.14-1.86,4.14-4.15c0-2.29-1.86-4.15-4.15-4.15H13.3c-2.29,0-4.15,1.86-4.15,4.15c0,2.29,1.86,4.15,4.15,4.15h7.69c2.29,0.01,4.14,1.86,4.14,4.15c0,2.06-1.5,3.77-3.47,4.09h-3.93c-2.42,0-4.36,2.08-4.13,4.56c0.2,2.16,2.13,3.75,4.3,3.75H7.92c-2.43,0-4.37,2.08-4.13,4.56C4,41.66,5.93,43.25,8.1,43.25h12.95v0h0.88c2.29,0,4.15,1.86,4.15,4.15c0,2.29-1.86,4.15-4.15,4.15h-0.88v0h-9.24c-2.42,0-4.36,2.07-4.13,4.54c0.2,2.16,2.13,3.76,4.3,3.76h40.07c2.43,0,4.37-2.09,4.13-4.56c-0.21-2.15-2.14-3.74-4.3-3.74h-1.4c-2.29,0-4.15-1.86-4.15-4.15c0-2.29,1.86-4.15,4.15-4.15h10.2c2.17,0,4.1-1.58,4.31-3.74C65.22,37.03,63.28,34.95,60.85,34.95z"/><path fill="#fff" d="M51.86,33.96v17.49c0,2.03-1.64,3.67-3.67,3.67H16.04c-2.03,0-3.68-1.64-3.68-3.67V33.96H51.86z"/><rect width="39.5" height="2.03" x="12.36" y="33.96" opacity=".08"/><path fill="#241c70" d="M48.18,55.66H16.03c-2.32,0-4.21-1.89-4.21-4.21v-17.5c0-0.29,0.24-0.53,0.53-0.53h39.5c0.29,0,0.53,0.24,0.53,0.53v17.5C52.39,53.77,50.5,55.66,48.18,55.66z M12.89,34.49v16.96c0,1.73,1.41,3.14,3.14,3.14h32.15c1.73,0,3.14-1.41,3.14-3.14V34.49H12.89z"/><path fill="#f8c257" d="M54.15,32.4v-5.46c0-1.65-1.33-2.98-2.98-2.98H13.04c-1.65,0-2.98,1.33-2.98,2.98v5.46c0,0.86,0.7,1.56,1.56,1.56h40.97C53.46,33.96,54.15,33.26,54.15,32.4z"/><path d="M54.15,26.94v2.03c0-1.64-1.33-2.98-2.98-2.98H13.04c-1.64,0-2.98,1.34-2.98,2.98v-2.03c0-1.65,1.34-2.98,2.98-2.98h38.13C52.82,23.96,54.15,25.29,54.15,26.94z" opacity=".08"/><path fill="#241c70" d="M52.59,34.49H11.62c-1.15,0-2.09-0.94-2.09-2.09v-5.46c0-1.94,1.58-3.51,3.51-3.51h38.13c1.94,0,3.51,1.58,3.51,3.51v5.46C54.69,33.55,53.75,34.49,52.59,34.49z M13.04,24.5c-1.35,0-2.45,1.1-2.45,2.45v5.46c0,0.57,0.46,1.03,1.03,1.03h40.97c0.57,0,1.03-0.46,1.03-1.03v-5.46c0-1.35-1.1-2.45-2.45-2.45H13.04z"/><path fill="#f8c257" d="M25.49,55.13v1.08c0,0.7-0.56,1.26-1.26,1.26h-5.69c-0.7,0-1.26-0.56-1.26-1.26v-1.08H25.49z"/><path fill="#241c70" d="M24.23,58.01h-5.69c-0.99,0-1.79-0.8-1.79-1.79v-1.08c0-0.29,0.24-0.53,0.53-0.53h8.21c0.29,0,0.53,0.24,0.53,0.53v1.08C26.02,57.2,25.22,58.01,24.23,58.01z M17.82,55.66v0.55c0,0.4,0.33,0.73,0.73,0.73h5.69c0.4,0,0.73-0.33,0.73-0.73v-0.55H17.82z"/><path fill="#f8c257" d="M46.94,55.13v1.08c0,0.7-0.56,1.26-1.26,1.26h-5.69c-0.7,0-1.26-0.56-1.26-1.26v-1.08H46.94z"/><path fill="#241c70" d="M45.68,58.01h-5.69c-0.99,0-1.79-0.8-1.79-1.79v-1.08c0-0.29,0.24-0.53,0.53-0.53h8.21c0.29,0,0.53,0.24,0.53,0.53v1.08C47.47,57.2,46.66,58.01,45.68,58.01z M39.26,55.66v0.55c0,0.4,0.33,0.73,0.73,0.73h5.69c0.4,0,0.73-0.33,0.73-0.73v-0.55H39.26z"/><path fill="#f56345" d="M41.4,19.78v4.18h-2.72v-2.99c0-0.65-0.53-1.18-1.18-1.18H26.73c-0.65,0-1.19,0.53-1.19,1.18v2.99h-2.72v-4.18c0-1.51,1.23-2.74,2.75-2.74h13.07C40.16,17.04,41.4,18.27,41.4,19.78z"/><path fill="#241c70" d="M41.4,24.5h-2.72c-0.29,0-0.53-0.24-0.53-0.53v-2.99c0-0.36-0.29-0.65-0.65-0.65H26.73c-0.36,0-0.65,0.29-0.65,0.65v2.99c0,0.29-0.24,0.53-0.53,0.53h-2.72c-0.29,0-0.53-0.24-0.53-0.53v-4.18c0-1.81,1.47-3.28,3.29-3.28h13.07c1.81,0,3.29,1.47,3.29,3.28v4.18C41.93,24.26,41.69,24.5,41.4,24.5z M39.2,23.43h1.66v-3.65c0-1.22-1-2.21-2.22-2.21H25.57c-1.22,0-2.22,0.99-2.22,2.21v3.65h1.66v-2.46c0-0.94,0.77-1.71,1.72-1.71h10.76c0.95,0,1.71,0.77,1.71,1.71V23.43z"/><path fill="#f56345" d="M21.54,32.7v2.13c0,1.13-0.92,2.05-2.05,2.05h0c-1.13,0-2.05-0.92-2.05-2.05V32.7c0-1.13,0.92-2.05,2.05-2.05h0C20.63,30.65,21.54,31.57,21.54,32.7z"/><path fill="#241c70" d="M19.49,37.41c-1.42,0-2.58-1.16-2.58-2.58V32.7c0-1.42,1.16-2.58,2.58-2.58s2.58,1.16,2.58,2.58v2.13C22.08,36.25,20.92,37.41,19.49,37.41z M19.49,31.18c-0.84,0-1.51,0.68-1.51,1.51v2.13c0,0.84,0.68,1.51,1.51,1.51s1.51-0.68,1.51-1.51V32.7C21.01,31.86,20.33,31.18,19.49,31.18z"/><path fill="#f56345" d="M46.77,32.7v2.13c0,1.13-0.92,2.05-2.05,2.05h0c-1.13,0-2.05-0.92-2.05-2.05V32.7c0-1.13,0.92-2.05,2.05-2.05h0C45.86,30.65,46.77,31.57,46.77,32.7z"/><path fill="#241c70" d="M44.72,37.41c-1.42,0-2.58-1.16-2.58-2.58V32.7c0-1.42,1.16-2.58,2.58-2.58c1.42,0,2.58,1.16,2.58,2.58v2.13C47.31,36.25,46.15,37.41,44.72,37.41z M44.72,31.18c-0.84,0-1.51,0.68-1.51,1.51v2.13c0,0.84,0.68,1.51,1.51,1.51c0.83,0,1.51-0.68,1.51-1.51V32.7C46.24,31.86,45.56,31.18,44.72,31.18z"/><g><path fill="#fff" d="M15.62,29.2c0,0.59-0.48,1.08-1.07,1.08c-0.59,0-1.07-0.48-1.07-1.08c0-0.59,0.48-1.07,1.07-1.07C15.14,28.14,15.62,28.61,15.62,29.2z"/></g><g><path fill="#f8c257" d="M46.64,42.23v6.09c0,1.08-0.88,1.96-1.96,1.96H19.53c-1.08,0-1.96-0.88-1.96-1.96v-6.09c0-1.08,0.88-1.96,1.96-1.96h25.15C45.77,40.27,46.64,41.15,46.64,42.23z"/></g><g opacity=".08"><path d="M46.64,42.23v6.09c0,1.08-0.87,1.96-1.96,1.96H19.54c-1,0-1.81-0.73-1.94-1.69h25.13c1.08,0,1.96-0.88,1.96-1.96v-6.09c0-0.09-0.01-0.18-0.02-0.27h0.01C45.77,40.27,46.64,41.15,46.64,42.23z"/></g><g><path fill="#241c70" d="M44.68,50.81H19.53c-1.37,0-2.49-1.12-2.49-2.49v-6.09c0-1.37,1.12-2.49,2.49-2.49h25.15c1.37,0,2.49,1.12,2.49,2.49v6.09C47.18,49.69,46.06,50.81,44.68,50.81z M19.53,40.81c-0.79,0-1.43,0.64-1.43,1.43v6.09c0,0.79,0.64,1.42,1.43,1.42h25.15c0.79,0,1.42-0.64,1.42-1.42v-6.09c0-0.79-0.64-1.43-1.42-1.43H19.53z"/></g></svg>