<svg xmlns="http://www.w3.org/2000/svg" width="194" height="218" fill-rule="evenodd" clip-rule="evenodd" image-rendering="optimizeQuality" shape-rendering="geometricPrecision" text-rendering="geometricPrecision" viewBox="0 0 66704 75030"><path fill="#83cf8f" d="M36655 910l26748 15444c2100,1212 3302,3294 3302,5719l0 30885c0,2425 -1202,4507 -3302,5719l-26748 15444c-2100,1213 -4504,1213 -6605,0l-26748 -15444c-2100,-1212 -3302,-3294 -3302,-5719l0 -30885c0,-2425 1202,-4507 3302,-5719l26748 -15444c2100,-1213 4504,-1213 6605,0z"/><ellipse cx="33352" cy="60619" fill="#75bd80" rx="24769" ry="1953"/><path fill="#6c7678" d="M7531 12459l51642 0c1697,0 3084,1388 3084,3084l0 31812 -57810 0 0 -31812c0,-1697 1387,-3084 3084,-3084z"/><path fill="#fff" d="M6542 45260l53621 0 0-29717c0-541-450-990-990-990l-51641 0c-540 0-990 450-990 990l0 29717zM62257 47355l0 3374c0 1697-1530 3085-3401 3085l-51009 0c-1870 0-3400-1388-3400-3085l0-3374 57810 0z"/><circle cx="33352" cy="50449" r="1062" fill="#c6cbd6"/><polygon fill="#e4e7ed" points="40020 58666 44924 60238 21780 60238 25737 58666 25737 53814 40020 53814"/><polygon fill="#ecf0f1" points="25737 58666 40020 58666 44924 60238 44924 60915 33352 60915 21780 60915 21780 60238"/><polygon fill="#c6cbd6" points="25737 53814 40020 53814 40020 58666"/><rect width="5536" height="954" x="8872" y="16574" fill="#83cf8f"/><rect width="9821" height="954" x="15049" y="16574" fill="#ff7069"/><rect width="8361" height="954" x="25342" y="16574" fill="#ffe356"/><rect width="2937" height="954" x="14688" y="20495" fill="#ffe356"/><rect width="5210" height="954" x="17965" y="20495" fill="#ff7069"/><rect width="4435" height="954" x="23426" y="20495" fill="#83cf8f"/><rect width="5160" height="954" x="8838" y="22171" fill="#83cf8f"/><rect width="9152" height="954" x="14594" y="22171" fill="#ffe356"/><rect width="5160" height="954" x="14346" y="24172" fill="#ff7069"/><rect width="9152" height="954" x="20102" y="24172" fill="#83cf8f"/><rect width="5160" height="954" x="9757" y="26085" fill="#ffe356"/><rect width="3693" height="954" x="15600" y="26085" fill="#83cf8f"/><rect width="10370" height="954" x="20162" y="26085" fill="#ff7069"/><rect width="3693" height="954" x="31290" y="26085" fill="#83cf8f"/><rect width="13809" height="954" x="8655" y="28086" fill="#83cf8f"/><rect width="3693" height="954" x="23066" y="28086" fill="#ffe356"/><rect width="5160" height="954" x="27284" y="28086" fill="#ff7069"/><rect width="381" height="1144" x="14922" y="18420" fill="#fff"/><rect width="381" height="1144" x="24817" y="22171" fill="#fff"/><rect width="5536" height="954" x="8872" y="30908" fill="#83cf8f"/><rect width="9821" height="954" x="15049" y="30908" fill="#ff7069"/><rect width="8361" height="954" x="25342" y="30908" fill="#ffe356"/><rect width="2937" height="954" x="14688" y="34829" fill="#ffe356"/><rect width="5210" height="954" x="17965" y="34829" fill="#ff7069"/><rect width="4435" height="954" x="23426" y="34829" fill="#83cf8f"/><rect width="5160" height="954" x="8838" y="36504" fill="#83cf8f"/><rect width="9152" height="954" x="14594" y="36504" fill="#ffe356"/><rect width="381" height="1144" x="14922" y="32753" fill="#fff"/><rect width="381" height="1144" x="24817" y="36504" fill="#fff"/><rect width="20023" height="4617" x="38002" y="16574" fill="#e4e7ed"/><polygon fill="#e4e7ed" points="38002 21845 47538 21845 47538 27940 38002 27940"/><polygon fill="#e4e7ed" points="48489 21845 58025 21845 58025 27940 48489 27940"/><path fill="#e4e7ed" d="M38030 28814l19969 0 0 295-19969 0 0-295zm0 2790l13117 0 0 295-13117 0 0-295zm0-930l19969 0 0 295-19969 0 0-295zm0-930l19969 0 0 295-19969 0 0-295zM37979 32624l5951 0 0 5900-5951 0 0-5900zm14120 0l5951 0 0 5900-5951 0 0-5900zm-7060 0l5951 0 0 5900-5951 0 0-5900zM38030 39346l19969 0 0 295-19969 0 0-295zm0 2790l13117 0 0 295-13117 0 0-295zm0-930l19969 0 0 295-19969 0 0-295zm0-930l19969 0 0 295-19969 0 0-295z"/></svg>